<mxfile modified="2022-05-16T12:59:48.648Z" host="app.diagrams.net" agent="5.0 (Windows NT 10.0; Win64; x64) AppleWebKit/537.36 (KHTML, like Gecko) Chrome/101.0.4951.67 Safari/537.36" etag="eVAWfIhv4RWIERHkAQFr" version="18.0.5" type="github">
  <diagram id="f106602c-feb2-e66a-4537-3a34d633f6aa" name="Page-1">
    <mxGraphModel dx="1422" dy="812" grid="1" gridSize="10" guides="1" tooltips="1" connect="1" arrows="1" fold="1" page="1" pageScale="1" pageWidth="1169" pageHeight="827" background="none" math="0" shadow="0">
      <root>
        <mxCell id="0" />
        <mxCell id="1" parent="0" />
        <mxCell id="dhkKI3xnQHwTl-i7RLE7-1029" style="edgeStyle=orthogonalEdgeStyle;shape=flexArrow;rounded=0;orthogonalLoop=1;jettySize=auto;html=1;exitX=0.25;exitY=0;exitDx=0;exitDy=0;entryX=0.291;entryY=1.027;entryDx=0;entryDy=0;entryPerimeter=0;dashed=0;labelBackgroundColor=default;fontFamily=Helvetica;fontSize=12;fontColor=#9E9E9E;endArrow=blockThin;endFill=1;startSize=4;endSize=4;strokeColor=#4284F3;strokeWidth=2;" edge="1" parent="1" source="14" target="dhkKI3xnQHwTl-i7RLE7-1009">
          <mxGeometry relative="1" as="geometry" />
        </mxCell>
        <mxCell id="14" value="&lt;b&gt;Google &lt;/b&gt;Cloud Platform" style="fillColor=#F6F6F6;strokeColor=none;shadow=0;gradientColor=none;fontSize=14;align=left;spacing=10;fontColor=#717171;9E9E9E;verticalAlign=top;spacingTop=-4;fontStyle=0;spacingLeft=40;html=1;" parent="1" vertex="1">
          <mxGeometry x="360" y="240" width="360" height="277.5" as="geometry" />
        </mxCell>
        <mxCell id="15" value="" style="shape=mxgraph.gcp2.google_cloud_platform;fillColor=#F6F6F6;strokeColor=none;shadow=0;gradientColor=none;" parent="14" vertex="1">
          <mxGeometry width="23" height="20" relative="1" as="geometry">
            <mxPoint x="20" y="10" as="offset" />
          </mxGeometry>
        </mxCell>
        <mxCell id="dhkKI3xnQHwTl-i7RLE7-1005" value="Jenkins&#xa;" style="shape=image;verticalLabelPosition=bottom;labelBackgroundColor=default;verticalAlign=top;aspect=fixed;imageAspect=0;image=data:image/png,iVBORw0KGgoAAAANSUhEUgAAAOEAAAEMCAYAAAAyHtGSAAAAAXNSR0IArs4c6QAAAARnQU1BAACxjwv8YQUAAAAJcEhZcwAADsMAAA7DAcdvqGQAALrSSURBVHhe7F0HYFzFtT3q2lXvli1XufeKjbGNDabYmN4JLSEESMgnnRRSSEhISG8QCCX0Xg24YNx7712yeu/SVrV/z9190mq9stVsS7YPPGv37du382bmzC1z546fzWZrxHl0W1SUlSI9/RiOHD2KnTt3Yv2atTiSlga704HGxkYEwR+hQcEIDA6Cn78f/AMC4OfnhwD5y8+9UV9Xp3/r6uohF8BhscOKWvjLd+SLCPMLxqVXXY5Ro0dj/PjxGD50CJJT+iIwMFC/dx5di9DQUJwnYTeD1WrFwQMHsHnzZny2cCH27NsHq80GU3AIQoKEcm6SecJP/uP/nvC+xoA3MVsjamNDI6psFiG2P2LCI3HZlVfi0rmXYOq0aUhISFCSn0fncZ6E3QibN23Cxx99hIWffYaSkhKYRLoF+AvhAkgx+U9IZRynGgYxGxoa9C9/s762DhanXQeBiRMm4KqrrsLlV1yBlJSU81KyEzhPwjOMw4cP45OPP8Ebb76B0tJShAYGuSSatIi/SKCuJB0buTN3omSsbxRSuglqr3UiQMh3yZxLcPPNN2PahdMQFRWln51H23GehKcZlDCF+Xn49LPP8cYrryG3qADBIu2ctbXyWYNKPpKvPaivb4DdUQur3Qm73SFneLgQEBCEkGCzSLQ6ucbiPuuCn58/TKERIsUC5JpAhIbIANBG8Dnq6+uF2I1ikfqjUYo8ZMgQ3HDDjZh31XwkJye7rzyPk+E8CU8T6sTG2rhhA956802sXrsW/kIch8OJuoZ6BIp6117i2e21qLJUwynq4YB+Kbhg/CgMHzIAvXr1QmSECTFRkYgID9Nr/fxouwldhOQsR0V1jaqZ5eVVKCopQ35eHrLzy7F+yy4UlxbLtWaEhwUjzBSEILFBTwbeq14OtRH9/ZCamoo7br8DV86fh9jYWPdV59EazpPwFINOls8+/RTPP/sc8goL4CcSxGq1KfHa69ig5LHaROLZLJgwOhVXXjoTo0YORUrvXkK6CJFmQXpPEpo2WkDA8cSmBKuT+1A3baAkE1XX6XTA4axDpZAzOycfuQUlOJaejt37jmDTjn0ipQMRHWmCyRTs8qC2AkM60mYMDgnGxEmTce+99+LC6RciODjYfdV5eOM8CU8Rqqur8cknn+A/z/wH1rJKWBxW7fzsjB2x8coqraKq+uGSmZOx4PIZGD1yMOJjY4QYoQgWacV7kgQ82gNPCcxvOkU6q4Sur0O1xYLi4nIcOJKJ3bv3YvGKrSgpKxEpGQ6z/K6/lMcXDKJzoImIjFT19L777kPffv3cV5yHJ86TsItRU1OD1atW4cUXXsChw4dhFekSILZXkEgGT1AtbItHsdpiF3WvEbNnTMY1V87C+LHDkBQfJ/ab637tJV1bYZCTqmZNjRUWmxW5ecXYdzgN+/YewKLl60VyOhBmDlUJ7Gtg4Xf5nCEmEy6aOQP3338/Jk+e7P70PAycJ2EXwWG3Y++ePXj1tdewfv16lJeUokEIEhoS4r5CiFcr0qW8EnbUiyQbifRDRxEZE6nzcN6w2pywWGtE5ZyB+ZcJ+cYMRXJSwiknX2sgKQ1CVltqkJVTgD0HjmL5qo3Ytmu/PKuf2JAmnyowiSgfY4Q8MyXiNdde6/7kPIjzJOwkaAOli/30ztvv4MtlX6C4sFDIY2siX31dvah3dthrazH1ggswcsQIpAzoj0H9+yEnOw+//u1vpPOaRdV0dd5aub6yuhIXTRqDq+bNwYVTxqnNx/t1RN08FSAhWY4ai0jH/CKxHQ9jzfotWLNxO6pr7CId5Xm8yFhLIsp3BvTvj9vuuB133XPPeTvRjfMk7ATy8/Px8ccf47OFnyI3OwcVleUICRKbTzqpXSSj1elA6oCB6pgYMGgQhg0erJEmkVGRMEnF7967D1+/56sIiwhXh0ppebmQsw+unX8J5lw0GUMHD4TZbDq15JP71tc53W/aBv9Aqp/+SkZqoRaLDflFxThwOB1rN+zA8jWb5VkqXWR0Dy4EJWlDfQOiRZ2+/vrr8NCDDyIqJsb96bmL8yTsAApF2i1atAiffbIQWccyUVRarOFkBvkYYzJp4kRMmDRR1c6+ffsq8UJk5KcdeOjwERw6eBAfCIEzDh9Fo3+A2n7XzZ8hdt9sTBo7EtExUa45+06Sj9MSDXW17jckgft1E4TgIs3bAz8pr7LPDf+AQDmCUCe2a0FxGbZu34cvVmzAxm27xJa0I9zsmioh+DycEw0LD8N1N1yPhx/+tg5M5zLOk7AdqKqq0rk+Sr+tW7eiIDcfwUIqBk6TfAHyd8qkSRg9diwmT5wg5OuHsDCzdjxDhdu0ZQuef/4F2CwWZIv0tNltmDx+DOZddjEuvXgK+qckq/ToCPkaG+pF2tRx7kGI5QrS5n0aG90k42v5rKthkJLzkZyecDjqkF1QinVbd+ODhV/g0NGsFlKRZaJ6ahYizr/qKjwoErG/qKnnKs6TsA2gY2Hfvn1Y+MknWLNmDTLSj6FWRnPaaXaHAwGBARg7ZiwmTp6ECyZPRnLv3k0T5exwtJ1ycnKwbs1aXQFxOD0NgSo5gBsWzMI1YvtNHj8aZlOIkKh9qqcSr86hfxtF3VPCnSKytRUkZUBgsDy3DVt37ceHn6/Gxu0HdeojOLjZI8x6DQ4NwZXz54tEfPicJeJ5Ep4EeXl5+Pzzz7F0yVIcOrBf5/9CQ0LhcDpl5PfD8OHDMXXaVFU/+0knIvlo+/CzqhoLMjMzceDAAezcvgN79+5FdXkFbKIejhiSihuunourrpiJPsmJQpr2EK9OiOdsJl5Drf7tbjA8qkeP5eL9xWuxaPkWlJVXIzzMw2MsRAySwYxzid8WIrIOzzWcJ2ErYOfYIqrjhx98gFUrV6EwP18lH+0+m6ie0bExmDNnDi6eNRPDhg5TBwo7HFEpRGXESW5+AdKOHMHmjZtQUVGhntTKmmpcOmsqbr3uSsyZeQFCQoJQT5HYBtTX2lXNVPKJbUd7r6cgr7AUHy9Zj/c/X4eikvLjiBgo9vLV116DH/zgB4iPj3d/cm7gPAl9oLKyEp999hk+fP997NmzB7Ui9Sj97A67VtjIUaNw0YwZmHHRdCQmJKj6yEPqEVli5x1NS0NWVjYyM44hOzMLJcXFaPTzV7Jdd9Us3HvH9RrnycDrtkDJR+lXS+nnsvV6GhhdU1xaiU+WbsSbH69EQVHp8UQMCcbNt9yiqum5RMTzJPTCsWPHNNbzrbfeQq4QSStIVEtKv4TERMyeMxtzZl+MwYMHIygwUMlHCVckRDt8+IiQT0hXUooqIfKB/ftRXl4uEtJPOlUUrrtyNu6541okxMdIpzu5zdZAqScSr95pVenX00Eiloo6Son4xocrUCKquefKDYa6+Yt9fcdXvoLvfec7CIuIcH9yduM8CT3AaYPXXn8dn36yUElE9ZMrzOnxG5g6SBewUv2MiY5W4hE1FgvS0tI1/URubp6crxOJaMX+fftQWFCkkST9Unrhrlvn4bbrLkewVHhd7YkJZZCvod7pml7oQWrnyUAilpRV4f3P1uCNj5aj2mJFcJCHs0aenfX9f9/+Nr7+wANtWsXR03GehG7QafK/l/6HRYs+h90d8eK0O2AymzFh4gRcc921GD9+XNP0AUPSKPH279uvuV+4WiIgIBAOhwMZx9KE0IcAvwAMGdQP9915Ha66fKb7l04Mqp70dtLxIj/kPnt2gUTMLyzDqx98ITbiWrWlPacvOMCFmcPwy988jmuvu07Pn80gCVvGF52DSBMSvfD8C1i4cCEcbgJS/SQBZ82ahTvv+gomCRENAtJ+ycnNxZat27BXSEjXOwnYICpjRUU5MsUO9PMLxLDU/vjW/bfg2qtmu3+pddDhUl9rQ729Rmw/x1lLQILTMEkJMbhx3kxcPG0snM5mO5eqP6OHrKJN/Psf/8LmTZvdn5zdOKdJSKfJq6++iiVLFgsJnAgRAnLinaFkl115BW674zYMHTpUR2sSkJ8x09mmjZtw9MgR911csAmBszIzYRUVa1D/3njovptxxSXTT6p+koB1YvfVCQF7ksezsxjYNxl33TAXY4YP1FUaBkhETm9kZmTgT3/6EzLk79mOc5aEXPnw/gcfYKHYgFQ9Q4I5+S4SkJEc8+fjlptvRN++KaoesWNwMS6XJ23ZvBV5efkq/QzU1daiWAidl5OLlD69RAW9Bldc2gYCNrgISBX0bJZ+vuAf4IeRQ/rj/q/MR3KveM0oZ4D17Rfgjw3r1+Ppp59GTVWV+5OzE+csCbds3oxX/vc/VJSXa1wnVzyEhJowb9583HD9dZoqwpOABw8dxLZt29Xj6UlASsiq6iqdkogUAt92/VxcPe+SkztgRO2scwgBz3L10yekThtFZQ8KNWPq5PG4/+6bYDKF6CoSA1T/w8UkeP3V1/DxRx+7z56dOCdJWF5Whueffx5lJaW6Ml2dA4EBuOKyy3H9tdegV1JSMwFlhCYBd+7chWou0vUgIEEVNVdsxBpOxM+Zjq/efvL1cpR8tfYqIaBd3p1DBFQJF4SAoFAEhoYjIDQCkbHxuHLORbj1unkyFrkyBBigWkoi/vaJ3+GIqP+en51NOCdJuOjzRdixc6cGErOhOSE/ZtxYzLvqSvTundxEQKec5/xfawTk96ia0hkzfuxQPPLA7RqGdSJwzq/WWnnOST+NKXWTL1DIx5UXBEP2YmOicPtN80QqjlZPsyfoqKkW7eOPTz0ldnfLjHFnC845EjIi5pWXX4alqlqlIONA4xMTsWDBAgwcOFBHWxKTJDyWkYkdO3agtLRMiMl0DbXqBaWHlPOBXFNIB01SXCy+ets1atvUnkANJQHrvFIPdgh+Uj6vJUXdGlJOfyVgM/kI1jHrmkdK7yR8++u3IjExVgPjDfCaCCHpu+++q6tYOECebTjnSLhm9WrkFeQ3dWCub7v2+msxYfx4JSUbmcuW9h84iJUrVmL3rt0i7XKRnZ2JvNwcFAjx8vNzdWqDyXtJyqlTxmD2rAvbRECXCtoBkHgiidmJKVECQsL0r5+/SOduTkaW2T/QtZKepFItQ+q9tLQc+YVFyM4rQEFRiUjECDz89TtEQ3G2UD15fXx0DJ76459QU1191qml59RkPW2/b9x/vy4pYkPWOmsxbsI4TULUp28KKsRWzMzKxu49e7BhzTqx9XJ0Ia6RB4arFXgPvqea5KxtwNAhg/DUrx7GqGGpQsJWYjv5W/bqDhHQJfFEWpB8wSbXe553d2Yu1K132lBf61rS1O0gZQwINiNQBg2Wl86X4tJS7DtwFDt3H0JuXh4stjqpTz/ERYUhJj4B6zZuR9qx7OOSYeXk5+GjDz7AzNmz25QoqyfgnIuYYar5yy+/HJWiXnJOsKqsArffdSeGDB2CrOwsrF2zBgcOHYb0B0SEhWuad4KENQ7CIADVqCvnzsQffvl/rRNQwPCzWmu5+10bQcknB20oTynCJfe1zjpViZl0l8TjdQEQ+7aBqSratybxVINlV6ktf+0OJ3btPYT/vvIeFi5ZjcCAUJhNwQgKCpDBTQYq0SRYdiYf9kUyTitNu2gGnv7P04iMjHSf7dk4p0hIW3DpkiX4xS9+gTqxA4ODXB2bYWo2i1W9o1ztHSgqKSukSepxJHfbLf4ihaj41TK+k59Lh5k2eSz+/vtHdZrDFyipai3tJaD8ZpCpSfKxDOyctaoq16iUOHQ0A0WiyjkcNsTExGDo4AEY2r8X4qPM+izdhYgBIWYEiS3Iuly9YRt+/7fnceDIMcSJetkRZGZnY9OWzbqWk9pIT8c5QUJKjKKiInzw3nv481/+gkDp1LT9fIEdl9KFhON1tSJlQkNDMGTwYAwfMUJXzTOp7cYNG7F82ZcyzPthQL9kPPXL72HcmOHHdXxGwzgtZe53bUQTAc1CQJeDiGUqK6vExq278eo7n8nfnairb0RwcIhmxaYEYaDB5HGp+O7Xb8YMsVG7CxFJwtCwSKRl5OCvT7+Mjz5fiZioaB3AjPKJXiF1Tu3CLe1PgNL8Ijz03f/DD374A4SFh7vP9lyc9SRkGop9e3bjwQceQubhdETFRzepmJ5gZ9AOIf87RXINSk3FxbNm6V58AwcOgFkqyriGI/qHH32M3//hD4gwhyE+JhIP3HsD7rrjBjgdzYmUdO8HOx0xzZEgJ4VBQOm4VDEJpwwiG7bsxF///QZ27jmkCXdDQ30PIswJmpIcj+9/41bMmzNVp2DONPgsIULCTxevwm/+9Cyqa2wiwYKkbRqkfKJpuK8zm8T29nMPgrSBhZS+wEGVX1oppgMDKk5G2u6Os5qE3Gth/YYNuPWWWxDKDTZFXfRusCZiybWBAYG45LK5WHDN1SL5UvV6tbs8XeIkiUinTZs345mnn0FuTi6YkPfyS6bhD49/X201A+1XQ+Xeon56EpCROq+8/Qn+++p7qLG0zFxGcNzwBol40ZSR+Mev/69VFfl0wnDKvPjmh/j57/6JEUMG4cb5czB2xAAkxEZpm+QXlSI7rwirN+3Gl2u3Sp2KWRAoRJR68MWxrNxcvPf+e5g9e7ba9j0ZZzUJD+3fh1lzLkFMRKRP24HqENcLVlstuO6663DH7behf79+Kul4EFRLCb632u2iEpZrjOi+vXuxYvly5Ofl67bVo4YPwnsv/bWJ5B1RQ9lZPQnosDvwq6eexmdfbNCBIjjI9QyugcMlafWvKnP86/rMYnXggvHD8dTP7tPVCmcajJBhvSxdsVH3tfjabfMQJ+RjDlJOUxCs5+Bg1/QQN6R5d+FK/OPFdxERHi2D4/FSsbqqGnfecxce/clPevyeiGctCSnBxgwfoaqNr4Wh7KzFZaWaFfsbDzyA0aNGqm1FsvEzdgq+Li4pwYGDhzRkqrKiQr/LqBldTXH4sG4rRhIOGZSCV55+EjHRUeqwqXOKGupshxoqCA6Pa5p+YPl/+Ku/Y8WaLVJYbjvGZVQcDOphs3NnJiuSk2IwfvQI9OuTiLCQINhq60SalGD3voMiZQbib4//n96rp4GEZdYCSsbf/vN1fLRkM/okuSSmAZoZbKeVa1ajT0qK+2zPxFlJQo6mv33iCbz47H/V2+nZeAa4TRnnBu/8ylcQFRnRpHJSYhaXlGKPSLpDhw7JiFslalGQHp6w2204lp6G9LR0JWH/vsl49s+/wIB+fXRVvLOd3lBPKUiy/fAXf8TyNdt0IDBSyheX1SA2Jhq3XTMD1112IQb2T4Yp9HhVjGkiTjRd0lPAdiPRnn1tIR7/6wsYkNJyV6fM3Bws/vwzsdsvRFA3ULs7CpLQ1cJnCdhoedlZ+OOf/uSTgJQwOfn5ePzxx/H1r30NkRHhSkDOSTml4y5ftRpvv/OORsnQvgsNFXvGi4AngkrBDkzI61SEEDBYJNrLb7yH1et3qVOFBGT5CosrcdP8i/Desz/Bj795KwaL5CVsorJ6H2cDAQm2JdvvobuvxfNP/RjHpF15zoBYjdi7d1+LELeeirOKhCTZy6++huiwcLel1Ax+xjnBP/z+SVw+d66oqVwN77L9duzchTfefBN7hHwN9VRHOzb/xOS77VVDPXHo8DG89NZCWGwWsQEDhVAioaUj/uZH9+AX370T/fskweGsbZLcZztIOtq+Cy6bjl997z5k51c2ETEsJhKrVq06LuC7J+KsISEbh/k9//LXv+rmlF4cRGFJMX78859h9uyLERISrKond0v6fPFSaczVauwbTpH2gk6TyHCT5ohpL/xFCpJolIJ/ffZN1NQ4dB7TKQTkwtfHHrkTN8y7SFVPY9A4l0DO8bkfuPNqXDp9pE5rkIahJhOWfvGF7gnZ03HWkJCSbuuWLeo08VZDcwvy8aNHH8XMGTPUbU8C5hcWYuHHnyDj2DG5gpPFHZN+BD17URFhIgU7EBuqo4Ufdu4+iE1bt7uye/v7ywjvwKPfvB1zZ0zQvDfnOlhL3/nGjSivKFW1n21M72quqKlcUtaTcdaQkGv/mDE7wWu7LcYbzpo5U1TQSxFm5kaWLgIuX74CRUXFOtJ6k7Y9CPQPEpKI+qv3aLZZ2gNm4l65lp7QALVPi0Rq33fH5bjkovFa5vNw1ezkscMwY8o4kYyuaRqT2IUHDhwUW7iDK1O6Cc4aEtJt/fEnnyBM7EFPlJSXa+q8iPBwVVlrxIZYLepnSXGJfNox8vG37HaHqknceYmJnfzqO24LUh1dunKzDCS1ItEbMGvaZFwz9yLERIWfkypoa6CafsvVs0VbcAV6h4SFas5XZw93zpwVJKQqyrm8arEPPKUaz0+YMB4Tx4/T+UJKmU2bNmnO0I4SkKBjxDVXBQ0jS+0bD78OZkqjHVlcVKJrHJn8tqLSqukA+6ckakc7j2ZwFcaFk0fDUWuVumlQu5CBE55Jonoizh4SHj4Ms6gnnrDb7Lh49myVjiTh4aNHkXY0rdNufBKQ6i85EiTqLeM1OwxGvtRaNMytqtqKO66fjakThqnz6DxagoNSUnwMRg0dqO/Zplt3bIfF0rPTXpw1JDwqBAsV1dATlTVVumsSpyMovbZv2w6bELMzNiBBAlql4bk7LecRU3rF6zxjRxFhDkGvhARRs+y4bNZExMVEnJeCrSAwMAAXThrV5Ehjntey0hLpA967EPccnBUkJMG4HVmQxwYjhCnEhNRBA1QNTRPboaS0VI36zoLpEWmHNDbWwWzyRx8hYWdIwzL9/Dt34bePfh3jRqaq8+g8WsfYYQNFG3HFzhJl5RVCwp47d3rWSMJdO3ZqCJABBmcPGjQIERERKvn27NmrQcOtLZFpKxi/yY1f2P7hZhMG9U/utAeTzpdxIwbhuitmICpcpHkXS0Gr3YGs3CL3u+4LthMHuK27D6OiyreKyWCFlD4JsDvrNAg/BAHIzc7RfUB6Ks4aSZiZnQXu6GOAYV+DUgepFKyx2lBcUuyWgp0jIe1BNjh5Eh0ViZFin/h1ktgE5wbDw1wT911JQQ46NpsD2/ce7vZEZC2SWFl5RViyeptGDXmDA1ZUBD3ddh2sQk0hGkhPE6GnoseTkGqgzWaTkbFlI9TJiNkruZfaDtwz3tVIne/enJqw1NSgTqSqOTQEqf17uz/prnCtzD+WVYAv12zXFQrdGVzBUtvghzc+WCp17ZtY8bGR8PdjWzaKCRKMgoL88yQ8kyAJqY56o6GxQdMfUEpx8040Mn1C5yUWbUFODlOqMr0E7cHuaI8wBI+B4UGmSISGR6NOnv+LNZtRWd09PYlcxhUQGomAkHDRMKJx5FgWNuzYr041b4SHmXXhrz6jDCpMwNyT5wp7PAmpHh7cf0BtA2/QwUHaFRYUKlldCk/nwFApV+S+n8Zz9oqPURWpu4CpEQOFeEy0q3lqAkNgMoWhV1IC0rNysXXXoS6RhvRSHkrLwp+eewtrNu/WdugQhEiuxMDh8jdEX8fFRaPGYsMzryzyWbcBQti+fRKpuau5wdBDhiv2VPRoEnJ+6NOFC/H3f/wD0dHR7rPNMIWalHzcJ6KriEKnDFe9R4SHYmDfRLVJugs0NynTC0pHZoemdOHzh8hg0b9fbxSXVeHthWtUS+gsqDYWFJVjyYrNWLl+B8orLXquvWAZmf7CXwYLguRO7pUg0i4cu/enY9f+NJ/SsFeiKzyR2k1hUZEMAj13CVePJWFVZRXefedd/PVvf8OB/ftgolfRCwyspqrqS13tKOhhZcrE6KhwpA7o5T575mEQ0MhR6gmGe/VP6SPl7Y8de9Nw6CgT63Z+GoT16x8Qgv2Hs1FUWq7ZCdoDZg8P1KxyzWUhkeNjonHR5NEycNbjhTcXg/tVeCNK14u6uq+j1qnZ5rqTRtIe9EgScnuy1159Bc89/Qwy07klWYT7k5ag2shQp67yNrKR6+tqdfU6nTJ9kjoRKdPFYC4XXwQ0EBcThctmT0NpRSne+mRFp31U9Egz65s5JBQHjuQhI7uo3bYxPcKU2N7gSpe5c6bBYqvB6k17sedg+nEqNFPme043caB1mRw9Dz2OhCUlJXjlfy/j5ZdeRn5uHiIjfBOQ4FQCUwZ2FRiv6MqX6acdJS42UjvjmQYliac08QY7Z0REGC6aNp7vsHLDHuw+mNYpacgNcmKjIoWIIaiorsH+I5lC8Kq2q6Qixbi3hjdYVqqf0yZPRGiIS5N54a0lx5VVJaHbxhcdABnp6eol74noUSRkEl8S8FU5ykpLYZaOdSJ09ehIwvEgETn1wcl6dsYzDnboE5CQ4JrE4UMGYebUSWrLPf/Gp7Ba7Z0iYlJCtA5GlIirNwqx9x9rs0pIW043s/EBErlXYjTmzpoibdiAZWt2iMqboYmXDXBTUdeACF0h8+abb+pmPz1xkW+PIWFhQQFee+UVJSBT2gd7BDiTZt5NTw+aJmrqwhAwRnO4tkdzZWQzm5ojdM4oGAQu9tOJwMGIKunN114Op9hQqzfuxmsfLNdO3tE6YqTQoH6JIhHDcTQzD+u27hXbsKKFmtgaWB5uF94Ccq6hzqm7VwU2OnHzVbNQY62R9m3Ev176RElnIDLCrO3A/zgYcwu7fz/9tIuI1dXuq3oGegQJiwoL8dabb+G1l19VT6c3Adn9oqThPYkYKCoNbcfQ4KAumJg4HiQhNzLpDiABueMTl0W1RkZ2ejpoJowdiinjhom91YD/vbMYr36wTBNEdYSInAKaNnE4EuOjESw22/pte7Ft16GTbhWuoGovg0G909p0cP9+ErBejgC/RowZPggjhqZIuQPw+Yot2LLzoEuCSoMy6bJy0s3LqIhI7Ny2Hc/85z9Yu25dj5KI3Z6ExaKCvvfueyoFq6urhIDNhjzHUR6XmEMwWewHT4uAIWxVIjHZUTiXRHAuqaKiHIVC6uzcHGRnZyMvL0/tTJKb0w8ngn+Aa0s0jr4chbvTJL1ukcYOLB2Z++DzfYtDJAy3UIuNCMW9t1whdRIMq82Of77wodhcjE5p/2Q3PcVjRwxS25DkyMopwLK125Ehf08mDXk9iQZuE2AcdTY0cger2jqUV9Ygr7AEgwcM0AEkJDgQ/3iRmcjlGg4o0qauMMRmREVGYtuWrXju2eewefPmHpMEKuCxxx77lft1t0OpkOPD9z/ASy+8qPvMexOwXtr50rBQfD8qAk5pmE9tDkRwmHSD2annz5+PLVu3IUcIV1RYoHGGlKwF+QWa3qKivEwT+5KEbDROOjPVIG0ldhRPsGNxaoQRGr2T4jFz2mjNLdNtIHXA7N+NDbVyiIoq5DMOkpD7YrDjMwN2fnGp2FmZCAr0x9ot+5Hav5fYjP21g7cVVA8j5fkPpuVoWBzrq7i0SmM7h6X21bQdvm7H6+qEaLmFpTiSkav23u6Dx7BzXzp27k/Djr2HRbU9gOXrxBY8mq3SnVrHrv1HMUkk+aB+vZGTX4wlq7bLvWgaNLcTbd+0tDQZWIsxYOBAJCUl6cDZXUEB0W1JyMxpn3/+uYxqz6IwJ6/FWkESsFHqfY45FI9FRyA2IAil9fV4U0bJGDdxqC46HLWIELtl85bNOHTwoDpzDKLR00mViKst6FUjuej4oR2pAdpyj2B3UigDnJfi5wUFhUiIixK1biiSE+Pa1XFPKdzl4CCiyjlVPiWlSGw+r4C1EyIqOie7P1i8QV4HKBH3HUnHLQvmnFSCeYN7c4SJJrLvUDoKi8thtdeirKISfZJi0b+P7w1bWL4sIdFLby3Gx0s3YNHyTfjsy81YvGIrVm7YhTWbd2H7nnQlqWFkMFbX3z8Q0yYNx6ihA1RKfrpsi9zfNTh6gkQ8fPiIaE7VQsQBiI+P77ZEJAm7pTpKfX61GNgv/+9/GvdpjmzOG6MKoNT5xSYXAWOEgESEj85Dw/9vf/kbjh45qqTUUUca43gJ51IzuVKbUTjpMpIeFtJyp15vlSZAbE2TyaQrM3ILSlVinmnweUrLq7B60x58Lh164/aDOiHPfR14njYfVUc6lmwywJRX1aC0rBK9EiJ1AGEn3nPgmHTs0iYitxWcMx0zbABGDe/nmjc0BeFQWiY+XLIOaZl5rU7gl1dUiw25H/tEAlLF5GahCXERckTKEYv42HCEyTkWx2J1yutQLJg7FfPnTFUSUz1lWkiaBr4QLarp5599hhee/S+O6rbmnh6D7oVuJwkZDb950yaVgDu275DKbN7wwyDgdFMIfhkdiZjAIFWJ6uTYKR1tiZc6SoRI4xmjIDscE+o6nA6NAaVEdB3cosu1R55BSEpDemHZxmFhYUpQguc5wnLHJKZamD551BmfpmCnXCUS5Im/v4KPlqzFlt1HdN7uSHoOjh7LR3pWPrLyCnAoPVtUvmNYI2R9+5OVKCqplOcK1I5ebXHgvtuuFFVSNI5WiNMaeA/G0R48kof8ojJ5Har35rmRw/qr5PWEDoLym8WlZdh76Jh8fvyOWfTa2kWT4e5MvZMScc3lU/G9b9wkZHXlXy2RweWDzzfI5y5pHCRfNyx64068795du3XwHTpsOCLFdu1u6HbqKFXDffv24b/P/RcrV6zU0cwACUgVdIo07M9EAiYFBTe5rEtF3XpRRvdCIUOQjw5EA57RM2xAxpjGxoSrRy9eVEraR+HhkdqRjNAnEpGdguWpsbiSR4VHRGiFceS1yrmcnHyYzGbMu3hyc6ufIXBwWbFuOxav2oLYqGhdApSdV4zdBzKwccdBfLl2Bxav3CA2FNW9fdLxM3SawojJpIMpMjwIj9x3kzqf2gvWb1JcjKiYJUL0XK1DmgLlouJz2dFgZqOTOjXA8nIinlrEgSMZMohxELCjls4jecNyxXCQFdJMGDUYP3zoRlw/b2YLolrk+rc/XS0DkPQNufcI+Q77iN3dJ3glr+eAyiRgZmmrwYMH69/uhG5HwqzMTJWAH3/4EaI9trxi5VLWjAsNxk+FgP2DQ1DvrmyH/H2n2oIXPOxBT5BYrPjEhBjMunACbrvhSnzl5gW4/Yb5uHHBZbj+qrm4ZNZkzRNTba1RNYkudt6KZCQR6VVl4qVIkcoMn7KLDZmdmy+DRLhIwhHqnHGV5syAnS0tKxc79h5RQqlqLR2cjhGz1Fl4WKgcYboEKFzsNxKAz8YqrJXraUPde8uVmHnBmA5L9SBRD3slRGv4WkZ2gUjBQBQUl6BCBsdB/fuIDRqr5DPAztcvORHjRw3R9Y42IW10ZIiqo6OHpeKGedNx941zpVyXy3fjRENquUqjorIGby10kbBGnv+OcDOGCRGzhMRW+R2jJ9BLzvZLS0/TAZgbwHanPQ27FQnpiHn7rbd1W2sWzBj12CVIwiHSyD+QTj9SVB2DgPzssDTOD0orEC3Xe4/hlH4msSvmXTYTv/jhg7jx2iswcvggHWE50c6QKx6x0VEYN3Y4Zk6bLJLPIWpcpqrF7MwsBxuRtk1MbKyuIaQ7n3OQIdLRh6em6AYtZ1IlpToaGR6uC5szRPWsk05NN7/bF6NglfGg9qBB6HJwSobaxrWi6n37q9d36hkoDeNFq6itqwW3xua6RXOoSSRyqaZxHCVqqacnWQkpTcyom9nTx+PGeTNE2s3CzfNn49orLtKMalGRYVomX+XyJKFTzIgZMthcag5VSZhNVVb+GkRkfyoqLkJZWRn69u2rh2GinGl0GxLSO7nwk0/w6ssvo1zshEC3/UWqsfr7SWf/RkQ4ZshIbhCQsEnDv11Tg61CRLObtAbYIcPCQvDz7z+Ib9x7ixAtUjplY6sdjZ0oQuyhyeNHiD1TIvbNMe20lBiEqlAmk25KSXXLbrOIbVijmdGmTRqp584UWDYmCh4tHTdO1ELmZ3GIBhAUGCyNHKCrHQIC/LTBNf9qQCDC5FkS4sLw0F1X6z4PXTGIsA779k5EQQmnPzKkXPKbMkAUlpQr6cePStWAAU+wjll3HOwYMEB1WIl3kvr0JuEsGWwHyPONFSlfIN/PFAnPwdsYmENDQpGRkSH14sSQIUOQkJDQNNCfSXQLEtIGoCPm+RdewN49e9UJYoCVGC8kuF0IeAO3MfMgIFEs3/1HZbWcb65sglLMz68B//nzL3HZnAt1RGRHNSrdlemacaUuKWKAnYiRGP379haJkicjerZ2WkMacsoiKYnLl1x2YaZcw0qcN3uK2DxntkH5fGGidk4YPQRXzbkAs6aNw8ih/TBMJPWgAX10HnCEvJ8kEn/O9DG44/o5QsDr9HomT+oq0BnTOzEeeYWVUn/5Gu1CB0tRaSVMUrfDU7tGCtHr+87CtUpCh9T9JWLvc7AOktejRGs6JCTMk4PwJOKePXu0riZMmNCir50pdAsS5uZk4z//eQZfLlt2nCc0VDr/FWEmPBAVcZzNRY/oPqcD/662qipqgOpWeVUF/vrEo5g7e5pKP1Y6wZyjuQWF2L3/MI4ey1bvHJekBfozqsalerrUqmg4ZcQ8mpalahW9bwQDhePi43TkLisvQ1Fhsa7imH3RWLG3zvyeEXxODmocEKgajhw6AJPGDMV0kdSzpo5Vm4+JhRnlwmADoiskoCcMtZRTDtxtl+RjwqaSsirdSbh3UgwG9PU9f9geZOYV4oNF9I76oUJudamQMCWQ86NAiLTXcGnPw0JCOutIeePXmKy5ID8fZtGqRo4apYPsmQRJ6ClATjuohr779rtYs3J1izWB7BZM2zNe9PwHxC4I8NFgvCZXKvk4NVTIc8s1V+Ka+XPU9jEkYHlFFZ7+7+u48uYHcMt938dd3/wJrr/7Edz94E/x4usfIiMnTzpknfRksZdESk6ZNAaDB/eHxWOekDsmcR6Rc4f8S/WJUxy5+cXa0boTqM6xLlo7ulL6eYPOoRlTRmPBZdMQIdKZdRQupkFGdg7+9b8P1IHU3qAAT7A9Obh6EjlcXrsoKM8ubZ4s7XGT2IiUjp5PSlMnNz8PH370ETasXy99xCUtzyTOmCTkiL1o0SK89tLLKMwTtUXUGIIyyy7/jhfVhY6Yvh6eUE/Y5Nxyqw17nXUIdjcGJVS1pQov//t3OlfF02wofv9nv/k7XnxriahEIWLHRYMBvzzoiFm2egMOHz6KlMRIJDKTl0jG2NgYZGXnY/8h2oau36d9SFU3XxqxtLhE3e7BovoMHdgHo4YN6HKp0tMxqF8yaqwWbNt9UO1QeiULiqtwNKNA1OIhiO7AnCRBb+6htGydeiGXLXLcFG5GoodpwRbrJ0SslbbLlkGB/cX4JaqlmZmZqJPBYcLECYj08MSfbpxRSZiZkYn3338fB48eaRERwwnXoVKwO0VdGO7hCfUGvV9pnEpwv+dlztoG3HPb9ejTJ6mpbbn55nsfLcWSFWu1wWjv18soaoAxiUnx8di+5xie+PvrWL9lF+pslbBXl2H8yP4YOaQ/bPZaJSBTHWaKcU/nEe0aOjsoPRmudR7Hg8uNbrt2Lq65bDqqmOdHGskcGoTDaRn4w9Nvo0JMiY6CEUscHNmS1IZ86SHsO1eLJB4lv8l+5TlEUvPasG493nn7HZXUZxJnhIRU915+6SVsXLtOXesGqBiwQmeZTJjr5Qn1BM9ahUh0zIS42cYGLqu0YsHls8Sea65USscn//4aLr/4Irz9n5/iDz/9mq7KpsrERlSXvdwrItyEfYey8fK7X0gnyYZfYz0SosNFjaLr3xWLQSLShiABWQYWj6odw8B8l/TcBuuYm+V89db5uHTGVJRX2mRwZJrCALHL0/D3599DbQfVYtrq3MmYo3CU9IFg18vjECif3Slq6cjgIFg8+hPbsqqsAiuWLsPaNWuatJ0zgdNOQj7s0iVLsH7VGtTaHVoZBmrkswli0N8VYfJpBxJUL4rqnCiqr0UJ7QL3eVIzMMCBKRNGu9+7sG//Udx9wyw8/r2vYPqkUXDIqMd4R1Z5VbUdBUXFyC0s0/jF2GgzVqzbguXrt2tGNeYU7d2Ltip3YKKDx1V+Etthd6Kyqhq9k6Jw1w2XHTeZfB4ukIhDB/XF3TddKprFAFhtDnV0cR7zy7W78NcX3lfbur2oqbFpQEKj9JNYDo7u897gQN5L1NIrTSEYINd7pgimBrZjz268/tprKCvhfpVnBqedhCVFhXjzzTdwIO0wzBHNUpApaceIfXWzSMHYwKBWpWCD0IfLlqhRcmTjA/BKkmPsqNHHpSCMjYnCd+6/WV3nvObDReuEcBYUlVTjwbsWYNui57D7i2dx5ewp+nlIsAn7D+fgWA6jPkKQ0qe3BmwfE/vwWHapHIWoku9fMHkUnv7dI3jjn7/AgH7dJ+tadwQHPS4k/tpt88XWjhYCMqrHXwPLP1myCX9/4QON82wPSmUA5WBIxIudQYnXGtiXOI94QWiwqq2eaik93rt27sLrr7/uPnP6cdpJ+Prrb+DQ/oOq5hlgpVDezDGZMYN5W6TSfMHR2CBSUOwz9/sm6OV+6Ns7Qd96Ii42RqM4SLDK6hpk5ebCIqPxTfOn44b5M5AQF61xpAwOHpaaLB3Gic07D2h8JfezmC/kfO+ZX+LLt/+ENe//AXu+/C/2LnsBz//hu7ji4imqWp2Xgm3DJdPH4lt3L1CnnCtGNECDKphm4y/PvdMuIubnFsi/opFIuyZLG4S0zkEFNav5MkCPDAlClUf/oiZWUFiAJUuXYsuWLe6zpxenlYR79+zB8pUrNVmrMfdGVEqlXCh6+03h9Gj6rk0SsETIZHxKJ0uYXGuMavwe56e84Xm7wuIKOGsDUVZhxwUTRjRtR03VqG+fBFxz5WykDuin84f5hcWqckaJrUgv38jB/TB4QB8kxNB76q92LUf482g7GJh9xezJeOie61Ba4XLKcDKfzq3XPliBX/zpJT3XFhxIz5GBVV5IA3MZW4BPi7AZHNhJ1rmi3Qz2UksjRCBwx9+XXmr773clTisJn/vXMziwaw/CPCLZmVRhjDTOPKmc+IBAdZR4wykErODiVPd7gjYA1RA9J/XPDUIYfO0NpnSgFCRcf+U78icpIVbzzxig7XLx1DFiA0aJpKxFeZUD1WInspE5+c3pCI2K8WT1ebQbjB+99ZqL8Z37rkFRqcsOY6AEs4IvWrEFP3nyeT13InApWn5hvkpTkilabEouZToZOGBfGBqEiaKWsi8Y/YkDeJB/II4cOIiFCxe6z54+nDYSLl60CHt279aFpYa0YyWwMqaLCnqRHEaleIISsFwISIeMJ+gYi/WYF+Ic3b7D6e53zWDOFWWdoNpi1YajAyY+NgKBMgp7opcQ8+Kp4zEghZt+igrrs0TnJrhHhO5twRCjToCaR3RkmC5NuuPay1BZ5coMFCADHEMDV2/arsubTgRG4dTVUXV1DcKRbZCEBuhNv0QG/AlCRNcvuxAkA3JaejrefecdVJaf3imn00JCVu5bb7+NrPxchArZDFQIOSZLZVwhh6kVCUMHDB0x3giWSk+hWiGf8ZskdkZWlqqQLeDxXa7O9vd3atJel/3R8jfZQS69aCLGjhwknwfqsqXzcIE7PDHNflBYjGb77gxYz/Q8Xy42dbiYIEYL0c3mcAbq8qoTIb+wRO7BV346CR/lHhiO7yXHg18bKIPvtJBgJAp5Pc0ZemkzhYifffaZ++zpwWkh4RdffIHMtHRdDmQEOvPhE0XF45zgsJCQpsrwhJ1qaEOdzzGO6ke8VFrTXjxybzpIjqZnuU8cj8T4GLFL/EUN9Veb0huUyr2lc9x905WYM32SEPHMxhV2FwSZo+EvpgI7KpMMc7s17n3RGdAn0K9PIqZOGC7tZqyJb5CBr1Zjd1sDB08GRwRLO0pxlHgxgf6qGbUVHFqZnW+YtC/9EQYYvZKbl4ePPvlE97Q8XTjlJKysKNcpiZzcXJ3oNsCHp8t4lhy+5A3V0CpRQ315SnmGdU51lAs4CXYQsykCB0QlZZSML3ARbmBAOMyhoa3OTZGI08aPwPiRqToPdR5St5rdu7mX63syoJPgihUmDnZy7aPUO+NvRw9PRUry8V5uA4w5ZWa30JBANMrrodKOdNC1pzSUs/HSd6ZL3/N00rAP+YtUzTiaho8+/NB99tTjlJNw6ZIvkJF2jL1bH5LgQw+Sh58jZOgrxPQlBblKwpcaaoDzQgzOZeCui5TcLzAI7y/8oqmDaDJcDyWFc1NzZkyA2RyqKpEvsDMwcbCmfnDf51wGbcFTVQ/Me5pfXKaDHaOWgoJkUJ467qTB8Dv2H9V2YsumyndPNj3RGugQHCUDNoNEDFAalpaV4cvly5ErguN04JSSkPk83//gfU2u6ykF+dBTZBSiPehL1tiEINWtZJI2wHqPEpVmklQk6cR+Qum2av1WFBaUaAMx96YnmNxp9rRR8koIXmeoQMdDG9ijYc5leDtiGuocqLVVggmFOwN6ozOy87Fx+161v+tE6/Hzq9Mt0dhOrYGrP7buStcOwMG8j5CQ/oGOIFoG5ami3o4SG9FTGlJVzhN1lM7E04FTSsI1a9YgOyNTyeApBQcLWaaLHZggo463PKIaWiN2ICXhyUBnDt3N1e5r+RsNDX5YuOgLGdFcNoMnONpOGTMEI4f0U1XoPFoHV8Bv3X0Yx3KKlTBEnb1aDoumr6dm0xFwjpW2NvesWLN5r/QNVxekE4z7Jw7qn6zt1Bq4mLeqxuXX5PQWV0oYq2jaC36LC4DHSV+gYDB+ldKQyaYXL16M0pJi99lTh1NGQqYGpEeUot1bCk41heiD+5KCnIpgFMTJwCvoXBkijWAE5pKEDEP6x3/fhJ0rH3T315YNxF1rb7vmUo2S0QTA5+ETtL2efnkh1mzYojl1SEDXXhfUIE7ePt6gdGH7ZOUW4r+vf44fPPEclq/bpbl+NP2kSNgJo1JPODgyTUd6Zh6CRILxXvSMJsiAzhZuf4lc3wmT5xwn9x0p0tCQvyow5ENmbf9iqZg3pxinjIRbt25VjyizlelDCdQWlEpT97APKUg11HISNdQTJDGnKUbLvYxvMRSqsLgGH32ySPe/c/90E2gLDh6QrKkW2sD1cxbFZZXYue8gNm8/AIdV1E8hSUcqzJU+xA9Hj+Xiny9+gB/85hm89uGXOHDElbXAZnciMSEW3/n6zboLE500rYFE3nMgXZ0ybFdqQnEB3NPCfUEHQbtytKil3rZheVm5Lv7lnianEqeMhG+89Aoq5CG8pSAT944VAnj/MNVQ2oEncsZ4g3UfIw0zzxzaVIE8x62s//rs60LGEnnC4+cDNQemNzvPowVy8opgdzRi1cZtmgnP274+GUg+hgNyz/m/v/AufvrU83j/87U4eDQHZRVV8plT1FI/3HTVDPzyO3fJ34t1eqg1h5mBLzfsESlNQeWHYUIehqx1piXZa6KkrGNEGg4UAeFpG1KAZGdmag6kU4lTQkImW922a6eMcnZ9GIJV21sedpIQMEEqz5tqJF+tELE9Fcp7cBScEhqkkRDGPeldYwbofz//JmrrpZHOE67dYLr8xsYAlFfYcPBwpqYKOVk9cp0l657LldaKvffHZ9/Ck/98HR8t2YD9R7J1uRhbrbGxTjPU/eibt+O+2+fjQnnNDVdPRsDiUpd0ZjG4Cfoo+S1jPWlnQBIMFQ1qUmhLaRgUGITKiko1q04lTgkJP1v4KWw2q64wMMDI9YkhQRghI453iBGloF0awJuYbQHvlCiNP8erAmkbfvTZaiz+cq3mETlPxPbBHBKidcYdlt74eAWOZbt2XeLUja+jxmrXveVfemcJfvXnV/G35z/E519uFvJlwSKfMX16rdgMI4cNxEN3XYNH7rseCy6Zhr7JCULKxuNSHLK1PCOW+PpoRjacDpo3/hqkMTg4sMOeUU+w13DOebTcr7eIWaMkDCxhtNfuPXt0p6dThS7PMUP9+amnntJ9BTkysuH4UDxuE2JcEBqiy0o8YRMSWtthC3qDDppE/wAstTvUTuTd+buMxNh/+DBSB/RBSlK8eubaCqpTvAfTKDDHJdHdkjmdSnAj1tc/XI7gYH+UiH14+Fg+LFK/ldxMprwSRaXlauft2HsUHy/dhA8XbdCcL+u27sPeg8fUi8kxkU4XqUrd8PO6K2bgxqtmYva0cejPFCTSHt5TQaxzTjUxeH7LrkNNE/es+w+XbJTfSxPSi4SWc3eHhyE+sGvkCPsNW7dUBoMjdfUtFgmzP4VL3506bZrrRBeCtqefzWbriABqFcu/XIYffv+HuoWYYQ9y0QonRn8UE6X2oOcPuiJj6vVvZ0AKv1hlwZsWO+I9SF5VXS2jbz8x/G/BtAkjdGA42RwgCchOtGrjbmzesZ89A1deOhOXTB+PWkfH86L0JFDyPPzYv5RUHLu4MxLDzKIjzerB5IDGyXbue59XVK4r3bkaglNDTqfY9mJP9U6Kw9jh/YWA/TF+9FDds5CrKHypnSQfPbIVlRZskjpfu2UXJo0ZjhvmzdJ1nfy9q+/9pWZC8JP2YQs+lxCNODK8C8AeUyc3XSYDzdNSBvZc3pl9hSt7Bg8dgjfeeKPLk0KFhoZ2vSR86re/R3p6OvutVixBVfTaMBNmmEJh8pJGViGfrRNS0IB6SoVg25y1qJZGNlZaM8MXN0fJzCnWSPm+yfEwizRujYYkYFpGHt5a+CXeWbhKRuPDOHg0F/369sXM6ZPUWD/Z/vBnAxjny5UmS1fv0M1duO6vusaicZu5+SXIkYPrM8sqajQRVj1qVSOh5Bo/erCmPJx/6QVYMHea5jxlrlFKs9Ykn0U0jnVb9+N/73yBJau2IL+wFN+48xrX3vT1jSp5f/uPt8TMCIFTvjNRVMeLzSEdniP0hUC5Vb2ozRm1dShuaFTJyPKxzZllb+y4MbrxaFeCkrBLScjImD88+aSMkFa9OcExj6PVLdywI1hGUI9K4zpBixCGi4a6oirDhOD8rQ3SaXg/455MkZeVWyxHEY5lFWqCIG6Uwjkqjvh0ffOg42DTjoO6bdjSlVulg1VLxwnWZFQzpo3HlAncBq1ed70928HRPzEuWhcukyDc0cokBxNixURHCEEjVTIOHtQHw1P7YfzIgZgxdQyuvPgCzJs9GZfNnIiJQkYutObA5ot8rHvOQW7bcwTvfLoaHy1ehxUbdgrZa0RzuUmdNwwUYGr8Fet2YJkcDE1kKpRrw0LVv9A1crAZXBhQLgTkYG6s7GFZmeeUc9/z5s/Xc12FLldHP/7oY/z0xz9GrYwahipKKXi1ORTfjIpAPznn+WMM0Oa0RJcVQMB7vVxtxRuiHkVK5Xk2Ehu0RtSq8aMGIrV/Egak9Eay2IqM4KiorsGxzALpEIeFqPmqMrHzcB5r9kWT8d2H7sDwYamotVl04rqngB2IXmoGPTOVBw8OOG3NCmARlXPb7iNKFibJ4lRFQAC3NfNHhGg3nA7iErEIGWS5TpCrHOhkac3TaaykqZb2OZiWhU3bDmLTzoPYI3Ykc89wx6gLJw3FU489qPciaELc+e0ndW6Rv5svfepFeY4hwc2Ov64CS71RJPs/Kmt08YAxkFMljomNweeLFyMuLs59tvOgOtqlJLzzzjuxbeNmFUGGE4QV9oTYgjfKCBrqEYdIKUhbkMuVuhL8BeYk/bPo9RuFQJTH3k3FvRFsdqtuFRYfH4cQUZMqxZ4sLatSu4QdgYMg1bBhQwbioa/eiLkXT9XVA1yp39NISM/lqvU7RLU+gCGDaKMNQFJ8rG5mwy3fDBjhad7QLQKauuPxqJeBtLVQM9an0Re4b2KBqLN06GzfexS7D6Rj3yEhX12DSLhgJS7tyCd/fB9GjxjoKo+0ZamovJPnP4xeiVE6yIrGiBcTYhBF/beLwZIyWfCrMpCvk/Y3Vr8yN2mwEOZvf/8b5l52mfts59GlJORWYdOnT0edwykqnEsKMgyIq55/Hxejm3t6olKkYE0XS0ED9L6WC8H/J6PtepuM4PIjqt+7Pm4Brsin6kWp56kqW202UbX645tfuxVzZ09tcpc31DrkGWu6jV3IBbZc6+cJqn6N9ZRazWVkLtUf//45HEnPw/QpY3QvimTp1MlJiegjdjJz59Bm456GnLMj8dS77f5+W0ASGelJKDHtotJxzrC62qIbiB49lqdbaHMXYb5m8mTXgOenkjncbMaDdy/AV66/tHlAkNst/HIDvvPLZ5EYH6nxorPkO4+ISsxco13df/i8DIdbLOX+pwzkce4+4dKMAnDFlVfiz3/7q57rCnQpCZcuXYr/e/hhafwG1XOJcnmYW0V3fyAqEr3lnOcPMWVFe0LU2gsS0SoV93aNHZtFlcqQcnHMb9ldfYOSMj4+Gt/62i248ZrLdB6Mk9VEA9c4OiyuMK4zDE2kGxKmq949QZtVBwopK6GdvLYOa7fswR+ffVuImCtEFVvEv07U03hNYNUnKUY1A5oRMZGhSkhzWBiiI6hiBik5eR9jg1FvcEE1t5/rJRKKMZ5bdx/Cpu0HUSkDYXl5lZAvV44CcJ95bhbDlRMGmDSLhLzpqkvwvftvUHXVAMl4z3f+iEPpWVqmYulTj4kKPNsccpyG05XY6ajDkxWurOFGaVjOiMhILFuxXDcc7Qp0KQlJwGVLGOwqhXY3Up6Q4EkxzK8Xe8FTFWWQNhM3URVtru6uB4lIvX6dzYnFQsRs6YhMGEwysgFb+23uh373bVfjuw/cIWSMaSIg0a1IyP0Hg83wl78GKP2YV4dqsydIIGa7XrVpN5559SORjIXSAYRY0l519XJIZ6dW4OCMusobwCQET4znDksh6lFmu4aLfe8ZhGGgUqTGjAvG6DxgL6mz3/7rVTz32ucwmcyq7pPE3KvQE5TYVEXpeb3i4gl49Ft3iJ0ZpvYXwfah1Lz8Kz9H32RXpy+R77ycEK1LmI4fCroGvG++WyVdLQNyqOu0ktBffve/zz+PGTNnus92DiRhlzyHpaYaq1euklFDSOUmIKuxl1T6YBlZPQlIcGKeNuGpJCBhrMqfJaPmIzKiLxA1i1ERLBfLx25Klfn4UagOvRO5t31UCwIS7MzGM3Y3eBJQyymH4SBhh+cUzaUXTcBPHr4Tk8cNR1SEGTaHXckRJnUUGWFCQmy4HHF6cJvt6hqrTkukZRWoCsnJ8q07Dx93bN+Xjr2HM1BVzcAGqsNi55mCEBsVpvf2JiBtSOaSiRDpO2/ONJ3HbUFALXsjPly6ARHmZvNmrJCgl6iFp7IF2B8YTzpEBg7v1PmB0pfXrV3jPtM16JJnOXL4MKqqqrWhDVCvniVGf28vu4JSkHGiXeuOOTFIxiQZbW+VTvZDUWVuE8nMRcUjhJB9pVHplvYuT52M0L48iHTOdDbR0akC1VASkKph2rEcfCa21NrNe0S9dkk2tg8HkKkTRuDPv7gft1x9sW73HSn1wS3gqIZ7h4/RDuLB1e+MVOEuVL6OCCGaStKmfDG+wTIwiobLyFL798bt187G975xg05lGAQkaFMWlVVi4RebERHukkX0tF9KQp/i0Zu9mHtj9hdbm3ujGL2aAwMXHy9f9oVKxa5Cl5Bw46bNCJSSspAGOJM2SkjIEaWZmqdPCnqDROSRKJ1pjjTkz6LD8ZgcX5MOGCOdrOVabn+xZawi4bt5dIx0VGPg419jfSSnFT4VAn79h3/A7595E3sPZTbZcbyOqmdsdAQevPNq/PFnD+GWay7G6GH9kNIrQdVOOqUsosJzWRFJ6dl+rUIa1CoqP50xwnSpQlcL8/cojSn1ON3DpbO9EuNw0ZSR+I7Yf9+48yqRlKEtCEjw+tWb9qCwqFQHAYJXTJQ+dSptQQMsfbzYqWNFlTZKxv7N+jicnoGioiL32c6jS0i4fMUK+HsY7Gw0VlR/6fAcUTxB2dKmRj1FMMjIMsTIADEiJFC3WPbMa+rvH4yysiqUV1W2GFgMqLveS8VuK7zV286AC2xdi2zdr90pJ+ju79+3l0iaFJSU1uDjpRs1xMzToUJysEPxum/dcx1e+POP8bNHbse1V1yI4YN7o7cQMiEuRqUkvcaUplYhptVGj2ctHA5GkXgeQjL5jTqxKTmXR29zvWgT3IaOQRHMdNc/JVF3Df7u/TfjiR99HbMuGOsujRekKcora/D6h8sQJwMlwaccL/2JWbRPlxZFz/5QIaGRTIxg21NKb9+2zX2m8+h0xAx3rP3JT36iW057jljDAgNxo9hhTEtogCkr6LFkLu3ju/bpB6uW4W1rZIQuFnI0K5mNYi+FYtzIoeibcny6BX0nEr290xQkNCfNGYrly8PYEWgqwoBgKZRILPe0BPfWp1TjFt6btu/TKCG690cM6S+/K52o5eMoGTklQfVwxpQxuOqSC3HhxGEa89knKV43Vg0UVcdson1nlr8mvbdJJJiJoYhyMCoppXcipk4cLt+JQ0Z2AcoqLBg8sC9mXjAKCy6dijtvmItbFszG0NQ+SlLDXvUG1dVla7fjlfcWISrStVU6VdH7pT+lCilOB9g/2TeYG/dL6R/M6GYg0C8AYRERmDt3rvtMx9ElETPcROP6a69DmDSMMTXBdIZfkUZ6IDpSSWj8AD2inJbo1A92MVjRz1RasNzmUGlIarBz0A75zoN34ebrrlBbxxPs6HVOKxq8PJAnA133/3rxQ0yfMkrUv66JQWT2AGbGZrehU8aQhiQ5w/A+WLQaTz3zhgwqEXjqsW/iwgnD9DNjPu9EYHmNrkfVtKKqRu9pkYPrDRkz6mk30wHTv08vVXUJDsqeDhmSvWn+7wTghP53f/kvHMnI12kJlrRS/n03QSSz3O90DeD8ncMi2X9a6lpZz/eqQcgzR8fHY/36dU2Cp6PoEu8oU9uHNLac6Oa6vv5irHsatQTp150IaIC5JznSGd2DnTQrrwhHj+VIRzt+KoLOmY4kv2UDDhJp8/if/6f7ZvhSddsLzgW6PKLNBCQ4kFBaLZg7HV+77RoUFFnww988j5Ubdolq6WzTb9PBw+xmPFh2roBg5uyhqX3Vu3rxtHGasdw4Jo8d1kRAgp3V+D6PthCQZVu7eRc27tjbREC2wHViq8ZKO3W+xtqHcPnBkV52IZGXl4vS0lJ93Vl0moSbN25CcFioet0IVhoj25n7JcijoUlAanXdjYQsz0Cp5HAZYY2KJvz9gnWlQG5+YZeQhWC6hwmjh2DH/sN4+b0l2sm7AiSiJwENkIgkxY3zZuDSGWNQWl6C7//m33j701Wa7czhdJGxI8/HZ+H3PQ9vjaG9YDm4ev7V979EXIwrPpPtwwW8N4SbTjsBiXBR35k2v0XyMSknbftdO3e6T3QOnSIhG3nVihVaKKMhOdalSodOCQxSVc9AtYyKZ8IrejLo9IWUl5XtOUCEh4WgID8fObn5CPCxcNTlnGn/03D76JFDBuNPz76F9Vv3a2c+lWAbpYj0uu/2eQgJCRCV0B+//ssb+L+f/wvL1+7UTu8U6UOpZRDSOE4nDOfP0lVbsXu/KzqG7UFaXxsqNi6lkScRThNMftKX5bc99SGWNcJk1jQuXYFOkbCqqgrlNS3nBxk8PVFsiUgvx0N3VUUJSsGJUtGeG4RwXmz3wWPYufeozxGetpgrpWL7wLq655bLEBEWhR/9/kVRe4t50v3pqQEjXMaOGIQfPXibdHSrSEczDhzJxoM//RdufuBxPPfG5/qsJWVV6kVliBuX7nAHLY74nu3bJvByfkcP16mTgYMAV0k898ZnSIgL03OsdaeMBXdHms8IAfmLnJPsJW3tOVS6BqhGbOmiBFCd8o4ePHAAr776Kkwh3O3IRTquL7jcHIqJosMbSXhYmd3JK+oNjmycStkrna9Iymn43yzWGiQnxmHMyCGICHd1DAOM2+SztDd8jY6M1P7JeOmdhbBYnCgqq8b0ySN1a+5TBZKIkqVv7yTYbE5s35OOMJH0kaLicYnS2i0H8L93vsQroiIfychBRk4BcgtKUFltRUWNxbWMSVRnq92pc4G8BwOzjYM5ZLj7MecneXBH5LLKGg14YEga1wOeCOzUxTIAPPvqQuw/kuNaUSHnSYKvSRnZl44fBk8P2MYMPNkpz043HJ/E0BQKCwrx4De/6SZlx9Bp7yg33P/Jd36AsGju0uOq6BzpxP+Ki8ZlZlPTKnp6RTlJf6Yqsq34W6UFq6Uz0d/FauWE8YjB/fCt+2/FJRdfqHNgntCU8Nb256RkeojXPvwCT/7jbRSWFOqc2R3XzdVlRe2WOu0ApyeYhe5HT/wHW3enIcwcfFwHItlsNpfX02IT/UUDANj9+FfaVMoYFNxyaRO9pM5afs4ByeXEoSbx7a/dhO9+/Rad/jgRaE9+sXobHn7sr+id1EvP8W7ctOU/CV0TKN1R8ClLRBt4TvrGWlHbjakKSu4K0QIPHTqEqE6kvOi0d/TYsWMIFqnnGfVODAoOPi6NxelXJtoHBntfIh2MYWzGdmvsSJt3HcHK9XtR6yMcy89fVFJumNJO0AN40/yLERcXhV4JCfj5H5/Hhu37wRQKpxKc7+SK+Cd/cj8mjh6EiqrmXYwNcMVEdJRrE9X+faIxICVWjj5y9NXNU5MSIjUeNEauMY7eSVHyWYwcveQ7KYiOjMQ1l8+UZ5x9UgnPQSA9qxB/e/ETJMbF6zkOdfXSpR6KCGvhVzhT4Ap7Ome8+zDt7czMTPe7jqNTJNzCcDXOJbkrioXktIR3LkjOv3V3KUgHzQRTsCaBZbfxLG9efiEyc/Lc75rBqYqAoI6pkZzcfuqn98HutEqHj8MPfv0fnVQ/HaNVr8RYPPvU93DbNTOQk58n6qZILznf0Z82vseV8SVl5Zg8dijuv2MBhgxKOS4czRM0YQqKyvDSW4s12TBVM96LvYeJeCdLe5wJW9Ab9PZzvtvT8KAmENrgr3HTnUWnSLh2w/oW6gw77hSxPTyjCwi+a3mm++JqcwgGCxGNTWYixXZKz8jE9l2HNIC5q0BP4LSJI/Gtu2+Szhes6twv//w/5BWVNtnXpwqUflSJf/3Dr+HTl/+AC6eMkAEgS44yseXEBnTU6kpyX92fgcuqsoqNxK2uS8Smzc4rQEVlJSaOTcU/fv1tPP2772PSmGEnnRfkxP+KDdvx7mfLVLoS/E0G1N8Q1n4N41TAGBSipU1oGxqg9kctMEvqrbPosE1YXV2N/v37I0lUCKPTcNnHPFMIfhjLVHSuDttT7EEDfJIvbU68XW1FgagbXKlXUVWFG6+5FL/4wUPgwldPMGazzmFFQ23TnsHtAu2l+37wJ+zcm4aKahtuuPJC/ODBWzQXDNWdUw5pM39pK+YW3Xc4A0fSc3AstwT7D6VpNrXi0irUWGvdqqwZKb3jEBsZjoH9eunq/IH9ktE/JUnziEaK+sgyt9Wu3bb3CH761MsoKyltyklEhbxBBvFX4qN067LugkMi5b9aXI4Ud1/nMzIL21XXXI2//O1veq4j6NSi3mNpRzFpygUtSFgmBft2ZBjuiYxAuPscV9CThB36kTME5p/8a5UFX1jtiJIOwdwoI4f0x3ceuh2zZ3Wdg8YAg5Vv/sYTKC0vR7XViftuvwIP3rkAcTGRp4eIhDxzg7RToJCBhONrTlNoeJvrf/Ui07lD7YeSgO1OBwWJzGANSgxedzIwbpTZ7/754odY+MUmREU2ZwYgCbkD7weJMadltURbwOdi3plHZUDiMjzjOUnCfiKIvlj+JS/rEDrlmKm2WI8b8fguQSrYM1KGOn1bGqY7IURqhXlMjO2yqLrtOXgUS1dtOo6AREcdNAaSEmLwt18/AJOJGcyC8fK7n+H9z1aqunaqVdMmSJNRIrJN2Xwa9ymmBeNHuf04V8YHBQfqnCM94SSi61oS0lXGthLQZnNg+frt+GjpapGeLeuN00Ohct81ck13cMoYoJ8jRcpuDIksGdtm9769rhOdQIdbuKiwUCqr5VhFndns599iBGPD9DQSsoq572FyoGuS1tUpg3DkSBa2bd8lnbPlc3fGQUMwambcyMH4w8++iTBzIEKDQ/GPF99XIlpsNk1ReLpAYrXnaC/oZV6xfjf+88pniAqPUBJ7gk9aK7f9p5gDaY66bkNEDg6R0re9986k7VxT49omoaPoOAmLihAaZmpRiSxedEDze2ZUq+uGoWonAz2lXIzMaRZjqzYmONp94Ag+WrJa18l5wyUNO0ZEdmaqnTMvGIMfisprNtHjHIC//PcdvPPJClFRTy8RTyW27D6M59/8DA6Hs9UVCDzLdYiPVlQhVwao7kBEekiTA1suUDdgqerc/oUdbtmCAtcuPd6IE4nBOTeCa7J9Fbq7g5VCW4hTK0b5XeqXv0jDTGxtVRq2zHrWHpCI/I0Fl1yIb95zPczmCLG3AvCv/32AV99donYjVbmejK27DuOZlz/WrGsn8jSz99BNYxcifqe8ultIRDFTdVff4/tzI6zWzmVg6HCrMmTHcyQzCkfd2aguOjh6GglZIRxEtjpqkSWjcLhH49Mu2n84HW9/tARVQgpv6BKnDsSTGiARaYdxw8y7rp8DUyjDyhrx4tuf49+vfKirOnoaEV19xE831/nLf9/D3sMMzg5oHsA50HExsmhNnuCnJKK1vgE/Eom4y17bNLifCfApQqkZud42QYqPGlvHPOMGOtyiVqvFVVMeSJRCeibh6YkEpM7/icWON6ptyKtruUUWvYONjX44IB1p7abtPqSh2MNeOUDbCxKRUSZ33XwZbrluNqIiI2F3NIh9uAF/fu4DHErL6TFEJAG5K++Lby3C7//9NtIz8+Wcy8OqkGdlIHxor4Ew9xuOBmfLzsyrOEVEifirymost9q9u9xpAwP1vFfaEGyv8rIy97uOocOtyXlCetOMEY1WErMVB3pUEwvcE4hIKlHdOeKsx18qLXi9xoqCet/TKkwEnJmdh48XrRSVvMR91oB0MFHHA02R7vcdAxs2KtyMr918OW5cMBMmU5guLl63eY905jd1uQ9XOrRmU51pcJclVt66LXvxiz++iP+98znKypmvR+rasG3lGdlVQuN7I2ncDMQOHY+wgWN8EpG6BYn432or3pHB8cQhAKcGLLuxQYwnQqXHcyPRzqDDqyheeuFFXVlsuNBJQk5PXB1m1jlCbvTC3Xe7M+hDoorD/DLv1djxodWGw9K5RQPU0cnXCMVBh06U8grpVPL+gkljXB8YkM+5woIpMNqbg8YTHACYLmLIwD5Sjkaxo/J140zut7h1z0FNNdGvTy+RlOFK2u4Ako+DFFdhPPfGIrz83hea9p4RNrpawN2JWS/UGsJThiF+xGSERMQiMDgUQRFRmgLDWZqnEtIT1Eg4o31MtJMyaa8RYhpQPTxdT86eXCq/+6nNgQiDjFLvDukzc+ddgREjR7rOtROslw6T8Jl/Pw2bzZVklmAhk4WEV8gIzi3KmEvGM4NZdwMJWCGVukwq9XXp3FvEBixzDxpsfnc1+wQHHk7gV1RVIyU5DoMG9dMJbgOsEhKxo1E0Blh9zHidOqC3EDJU1LlsJR8znR1Ky8ORY3kIDQ5En15xuoNRW/LGnCqQgFyt/8HidXjp7S+wfuteGahcG+yoZHSDBAwQyR45dAJiU0cpAQn2IxIxJDoOweGRsOSmHUdE3oXxm5lCxKNyDAsMQIS0xYnaqqvAqi2pb8RCdwCHcdIufWfO5XMxdmwrmeNOgk6R8B//+BeYEt4Au29fqey5YSaYpWK4BXZ3CL71BiUfS7VBSPRqjU3+1iJXGpRPwiY/TvoxixlHbta7u/LZYXiwk+UU5OvqgZQWWdlc0pCOms7uZcgqJAG5ySZXNtCu4r6JHC+YGXv3gaPIyitATFQEEmKjdOOa00VGhtwFClEKisuwcNkGvPDWUny5Zjuycgt0KVQLBwwhdWmKTUTc6OmI6D0QwabmfDSEQcTgyBj4h5qEiOnHEZHtw7YqlAF0v7Rbqjwvw9t8aS1dCdZokUpCDxIKqBXNmXspxo0b5z7TPnSKhP/8+9/l3+bGpkNjgNzwUvc6whopHBfxdheQfHSs7BfSvcTAYZGAabXcprtRVR2Osh7dxZWzRT4Llk4T2muQfNiIemuVEotgh2EDMDntsawcjfUcOKBvMxH5e/6ignUREZm7s7+QnVKvtLxa4zpJNkYuZWYXYfveI8iUzh8TFYm46MhTSkZdHyi3PpqRi4+Wrscr7y/H8rU7kCbvabtq3lHpAy0gg1KgkCs4sS/8g03wDwxCUIhvJxbTOIZExp6QiGwrmhH7GDomn3Pv+lNJRNakLxIybG/6jIswcdIk95n2oVMkfPqf/3S/coFqwgBpnDlms5DQT7c9cyl3Zx4kYJGMmh9b7Fgo5NslqidXSRjk8wTJxzT3IXG9ETlwJKL7j0RYcj+ERiWisdYBZ1VpExGplpJ0+YVlSEvPBTNX9+mViMiocBcZu5SIjapy9uudqEuEKB3zi8pRXsl9a0VVKqtARnYh9hxIx/6jGfLbAeCmndxZl3GenupyR0BSM30hN8vhfN/L736BDxatE7VznysrndQr5/5I0BbSz4CUgQEIDbYa2IuErIXZcFSXwy/UjCA5vKFEjIoTwobCknc8EfkLPENiUDXlKgfuMXKq5hNbIyEdZBcKCSdPmeI+0z50joT/+pf7lQvsYsy4PUcloZ/ahHRLnJoqaRtIPpt0vlXSQd4RXZ6bhuZLRZJ8PDzL1lhXK7ZKOMJThiBqwEhE9B2M8OQBCI2IcTkNwiLhFxwCZ02FSMTqFkQk2YpLKnDo6DEcloMzpVxREC0qomYcoGrKDtgBItKeYo4bbmJKm4su/2CRIkmJMbqddWhosOYAZUwr00nkFYpkFjIePJqFnfuOIl8kJqU49/4zC3E5vaGHDiDHD5N0rDRdIwczwjGR7679abql9QeL1mPVhp3YtPOQzlvWSb1x8XOr5PNAY61TSOjasKbOUgWHDGj13JAmPNo3EWUAC4mOh39QECz5Uq9eRCQYyUJypAkR+Zp7n3ivZ+0KnIiEF82a2SkSdngVxegRo9RWMkBJOC04CL+Oj9FlTIXS4c6UY4bkY+jZTlE9lzicyJCOlC0VyDkn72ZU8oVHwSxqkjkuGaaEZASZhHA+GrJOJGF1fgYqj+6Es7xIJaYBSiqutePOVINELe2XkoQpE0dj8rjRYs8lIyo6Qt3v3OW3LRnWSL6yymps35OGjTv2IK+gQsgm35M6J7ED3INAjcUiNlmpbj9tlJlqKMnD1BQJ8bHokxQr9mKkqLN9MHxwX8TGyAARHq5Z5EKNle/SVFQlG0S9KquqUTJTzc0tLBTiW1Elg0BmbpH+jm4C423vdQRSPnkYhPcdgqTxs5R0vtAg2knZ4e0o27dJt4PzBea67SUDwVWitl9mDkaUDDJd2fvq5WZ7nXV4UAbCvhx4BWxzu9WGxx7/Jb523316rr3o1FKmyRMnw2Zpjhpht+LmGb9PiEWYtE0FJaEU8nRCnS7ym1kiFZZKh9ovaud+IQYzVh6ndgr5/MUmCRNpZ4rvIyTsI+Q7PqDYGyRiVc5RlB/ahnpLZQsiEvx9kswpo36vxHgMHNgP8THhoqLGYer4oYgy+6nNFh0ZoflaTKYQn79ZWFKOV99fgnVbD4gkyheycZgzpJgMMjKoUJaHci8Nr6ABAywLr9ONXaQjR0VGoXeveJhFejIggPnGQ9zr+AiHlJluK2ZcqxQilpRX6lrKAH+x3+S6ICFtR4nH4ZqOOtrlLG2T/SZEDJB2iB42EdEDR7VOxIY6lB3civLDO+Sd7zLQFx0rdTNfJP7l5hDEdCERWyWhmCCP//YJ3HX33XquvegUCS+5eDby8/Jc6piAJBwiI9FfE+NE1WvQ7Gqnk4IsBeePNgvxNoj02yl/2U05brZoMkpvKXNwdJLaepGifgaZfUu+1lBrt6Ai84BIxN1o5OSyqJve0ERA2oFFnZSOFhQQihFD+yFCOggJSDVSOCh/w4WsMYgRScltqs2hQXIuCF+u3YlPlq4VyWPXvC+dljoC6TPqtaTaSnJyg05vBAf5a5uScOqA8YLre/Wwi1TmIBstnZ2RQ77amsTjyhqWPEHuycRN/EV6Njkd1DTfJggKi0LM6AsRLFqJSUwAX1AiHtqOyrS9ri0I3NqAJ0jEGCHiAqnny2SA46Y/XdEPWyNhTUUl/vC3v+D2O+7Qc+1Fp0i4YP58HD18REZmV0WQhL3lgf8jo3+I3+kjIauDau9u6RRfiG10WMiXL3aga3eGlmgUFTkoOgFhSf1h6tUf5thEKX9LSdZW1IpdWJa+B9Xp+1qo5QQJ2Cgd7LLLL0NZcQk2bdoEq9g+XH0RJPYcbTHph9LZ2SUDRWWM0RTz9ICShJRs3NLa7nSq7UZQDjKnK3+JsoK7RHDPdt8y8MSQ22gZfZHME65yUrWtF2lqE6kZjN7JCegjR0wEB5IQZGfnISO3QMpa1zRQsN1JPs7hcVcjpgsZTDs2wGUmpMtvrxJNZYfY6C4iClEDQ2CSATEkNhnm6BiEChl9SUUSsfLYflRm7IezosRlm3sNUCRilBDxznAzLjaJ1JfPO9MXeXf27x1i3nyvvAq9jOeU+qkoLsd/Xn4e11x7rZ5rLzpFwjuF+Vs3b2lBwmgp3P96JchDnz4SFsiovEoac6scO0TtYhm85RLJFxgRC1NskpBvACJEAgZ0ItDaAL17HJlrclpmYqYqGiSV+9lnn+m6y5UrViA/Px8lpaWoFSltFTuOiZOZZ4Zxh9VWi3Qurs8jwYRcIaEIlc5DArIOWbfcjagP7TB5bZVrGWjA2NYSqWc+L50R7LItu+Px4OR5uHTOqPAw7D7gyhTGPkXJR9TWGu3mRIzYjX1TeiEuNhqR4SFIio/WvTQG9uutqvTGHQd1XjBd1GWq4CQhtxFT8ondOCUkBNNChIDBwYh09xPCIWVeJ2rc3ytrdOKdy3pJpqDoRJj6DdP7mCNjYKJ31Ie0Iypz0lAl2oi9iDle5AH4EB6g95vbG3wzMgxjpCyd6Yu8M9uAc8u/LK/W8EyCg1Sp2OOvv/OmDLiX67n2olMkfOTb38bizxepd4fgmM5R+oPkRJiFhAxZ68yDnwjsLmxsbu6/QkZUEpD2xnFeMbeEChKJF9F3qKiegxHEHYy8r2snqIbU1dpRa7PCLqNx1bE9qJW/BphhLEg63jP/+Q9mXTxLr68sL0dBURHKmcKiWqSoELKmWuyukmJUynsuDnWKtCwrLMHuXbvglHtwFTs701RRXW8PM2OMdGjGh1RK3XJP9aMiURjGVSzX5gsJcoSYnPdkImPflpWLhFzJf+P8mUjLKJLftqDGapO7ulorOCgEwcEBCDP5IzkuDkMH90PfPolCxCjd14KqcXpWPj7/cgPe/XydDCyVKrmZF4a13U/KPEPUwLnSuUYKUemx9NUPOI/8bo0VT1ZUIV7bQ+zF0DBEDL+AFSyk9IcpMloHS1OE79yjFqnzmqwDqM44gEapC+92LZf73BNhxnWimkbIc3e0P/KuXBG0WvrZExUtSVgg7cfBdvr06XquvegUCR/72WN469XXECwqCUcu3qRIHvoLIWG4kNBYDNvVINkN6bfe5sABeR0jv+9NK/V6hkWK6tkXYX2HISyuV6ujalvRRD67VQ4bHNYa7TD1DiscBRmoE8lIqctH5zFu/Hg89PA3MWHCBJjMZnVutAbmHKWRv3fvXnz324+gtFRILQ1EO+rH0vkvFnsxkKFwcmM+q6H6UarkyrPulQFppxA5Uw5GAOUJIfm03jYxn4HpFq+YcwHmzhivuyxRNaU3lbUYFm5CKCWX/NXyur/MzGn8LpNBvfvpGixeuVFtw2BRUal6cp5urJCOttiFolZHieTj9SfqBZtlAP1+Sbmq2UFy+AeHIGzoJPh7eEApIcNjExAibemr/aieluzbJAOhmAVeRKQKP1Gk4F2i6g/mQOE63W7wjuzPy6wOzT1EbYswSLhq1aoOh62RhB2eJ9y9exc2rt8gRrnLacBiceS5WcPWmvd06Arw3pR+HOVp+31oteNzix1VopbRpmiudoFUDBkQHJOIyEGjET9iitgX0VJGbyW17aCrv85pF9JViQpaBVt1BeqdbGIXGP1BwisapbO6iZiVfgxH047CZrUqCcPDwoTEtdpRvFdA8H2INEieqK2Lly7RhaI10uluETJcLgQMk9eeHZqveXByOk60keFCgAvlGCeSKoET3dIGlIZVUh/Mgse8P6wnthUJt23XEU1VyN11ExJi0U+kXe/keERwnlcGVsPhZvwQp182ifr5wluLsWy1y0MZIG3PHDx9Re2bJ+1+r3T2KUJAaiRGWamhsN1qpQ7ZkWm/N/1lJxbiHBIprsaBPGOgKQL+Jo8tB3idqOsMOAgUknq3I9+bEnrDUVWG2poKvZ71q5/JId/QXLJJom4bZWoveB+29g6HDHZi+1K6ExxkaqSdHnrwAcTFuxIXtxedmqw/cOAAVnyxTOyXZhc7d1OdL6oIjWLXmc6B92CVUxXIkcZaL/YU1/qtl8rgYlvv6AguDGVwMKcdooZPRnSfwZ2SfpR6TrsFdQ4bbFWVcpSjXuw9X+BEcqCoTQEhZi0HO02AaARFhUWaJJlp/SorRVLKfzpwyXeogiopBRxV2fE/+fhj7NiyTezKWlXxbhfbbbRIJrr2WwM7Fw9eEy+NOko63TQhUj+RosFyzwb5KoMWNEpIrqFKyrm+/KIyrNm8E3mFlUL+MrHtstUbWy1qIuNTK2ssom5W6EYx67bsEwIuwu79x6Tj+KNW7s1Nf8bK79wjNub1ciS6TROC5KOEswj5LDIw0TxhPDEPu/sviVkq5dog7cmk0Qxo8BN1OCgyzkUmD1D7oIrKeGXm8zH6HEEi+odFwVaUg4ZaoYv7M94hVsrJfe4TO0lCrqyhx/2ADBieJGQOoB/98Acwh7m29W4vOjVZ//FHH+Eb996H2AQaz67RKV8K9feYSIwLFcmgZzoGPiIPp5SsSEfKemyk7SeV4NP2E9BDGSSGfES/4YgfMt59tv1QqScN2SAqnr2mWqRf9XEd4oSQDtFYLzaq2CvOikLUi8raIFKzurIakbHRuHTuXPQbOACjRgxHr6ReiIuL1a2X2ZEYrfLgAw9ix/YdKimSRDo+ERetG6J0pJE4b8rOv9/hwGeiSm2SvwzfI+0NhY/3dYp2UVnD/SYcGD00VecSaY9ym2zmguE1m7YfQp0QgPYfY4MT5O9F8vn1Yqv2l3J7l49L2arkempEx7eWC3T7k4CPlVchUcpK1TNQCBg2cPRxHmcDrKfw+CSEmMOl37W0fPO3LYclL00HQf4qn3O0lO0ekdBDxc7tjDpaLvX430qL2oXGukIOnEVlpcjJyYHJ1LHF3J2yCdeuWYMFV1+N5ITEJhKWSsf5hdgvM0zBqgp15MZ8PFZhsXSWA0K+LdIJGOtJVZfTDi2VEZErUhGc7A2NElVq+BRExie7P2sfDPLVCWHsNVU68raLfF5gZ2kQMjoKMsVWLNPwLN6bqmCNzYqLxJAfOnQYBgzsjz59eiMmOkal5/e+932Ul4nEFWlJ9fIHMVHq4mdJSEwNivdRLM9TrEMeJCElnyt8rwHb7XZ8JJrEDrE/C2nPyXnPbsx7MGKmTtjhlLp30c9V55Gi4TBIgB2ZE+I/lsH2IlFdXf7a48EkX1VCJN+fNmOPqHePiaSltezPgSgyBmGDxrVKQgNhMfGuFRehYSohieK03ag6tA0NorlwMKQaPjs0GHdEmHWPkc6QkHObfyirRobUjyFg1JaW50w/dsx9pv3oFAm5QeIFF1yAXvEJTSQkUe6XB74mLLTDczP0mh1w1mOlSL5NMupwfOYY05J8hIuAgaZwhKUMQfzIKR2a8zPIRxvPVl2pDhefvbzD8BNpWAFncR7qbNUqFUXMKhmt1Vaxl+owQqTioIGDRKUxY8O69XDIs1uloy8wh+CbUZFic4ntJXVbJd8jmbyli6/Ssr646JW2JMGpjxB5z/pdJGrm61YbqoWIjIckPAlJz3OcXBshqhxVfjp/eB1/kwftoz+KhJ5tDj0hCSkNTwR+M13I/mdRfRnTy8EiwByBiKGTT0pCggNdhErFSCVi0eEdqD6yw7U6Xz5jMuo7xKa+kQES8iwdbVWWk8l/f1gqg7Pck3VLVZQkHDJ0KD5d9Lle1xGQhMf37TaiT58+TeQzwPmebNGZaYi3F3zQcmkIpqB/pqoGS20uxwdN9OMKKcSh6mISqRcz6kIkjZnebgLS0UJ7j+pmdXEBqorzXdKvSwlINErHioJpwEiY+48QlTke/qFmGcFNiJaOnJSQgGKxG9esXIXFn34u6p9DY0OpDVDtZsckuCqFBGTpvLs933sfvI7Xl4hazYOZ0KmacnC8ISIc/4yLEgkRhiEibZNFZYuVtmS3p6ezl7y/QqTcT6Mi8LhoNvfLdSNEGrMovC9ty+2q2roGBR4OaROWjr/dHoTKF7hTsg4F7DfSsdsKDqDVJYWwW6vUS0rV30VeVylYVnptQ2VA4+uOgt+1yD+ZUjbPvkitIXXIYPe7jqPDJDSbzQiTw/PhOJrmyIjhaOcTs8pI3JUi+d4U6VAmxjqnHY4nn9xYKt5f1JCwXgPQ+6KrEdNvqPvDk8PwctY6rNJ4BajIz0ZVkUgojpynGlL2QCFj2IBRQsaRLjKKGk2HDiflTSIFzeFhLQY2VSXdr9nB21mtLUCSVEtHNdA7MBj3iZR9Jyke/xJC3iTaC4Ogadf/OTYSj8ZGYbqUaZjYfReKefH9qDCd/CYi5NgnZsJikaYLLVZ8aLFgpbw+ImouvbEsp3GcDOwzJAolTEegRJQBlE6zuppyeS/3kXuSiglCvhSxqw0brqOg7UoB4ekcU0koUnyoSMLOosMkJMaPpe4ule6uQN7smBSWo2l7wEc7LCroelHDGBLePEvkAa1cUavCoxA1bBKSL7i8zdLPUDmdthpUCunK8zKFiF2tdp4cLAcPJeNAIaNIx+CYJBcZVW08deXx1Q3p5GLnN8lvcz9AQwYNCHI5gvg5JSinFBLEpqLnm7k3qaLuEluOm6r+q9qCV8TOfE+ORXIcEAnJvUd8/Z4vMPSOqmJH7TUDNWWFqK0ub5Kk9MyOFDWeUrYz4HNwWCmXZ2rhepH7O+VZBwwY4D7RcXSqhBMmTtLCGGCBGUZVLZKs7UoFHxI4IKrNERlZfPqY5Deo84fG9kLchDmIH9y2VAIcHJrIV5CDysJcGb1cau6ZhJJR6inAFAFTylAh4ygEy7NxxTltmVMBtg2jbTg1UCwd9ZiYDTtFmn0s9uGfyirwVyGUEfTgdFOCJKQjyGhhppIgAfkp23eBkPJpkaKfiTR9SY4fxEZjqskkKqaLVLzXyUCbkhLfNVEj8JA27UGDzeJWRV3gRNLAYFGzO2ELGqCXvkQ0PM8hn/d0+jdi0KBBrhOdQKdaPHXwII0ZNCQhwZApbi/MBmwrmM5OyUuyuc81QTqNn6gUYX1SRf1cgMj43u4PWoeSr07IZ69RlVPJV9e5le2nCiQkFxMrGUU6UtKLTqr1wBpsey2eGCQP1aktVjterqzCD0rKcGdRKR4tr8JiMQO4UJW/yQ6RJWolX5fX12rAtQEmxzI4Qo1lltiNY8W25X1pb/Kg1KRXlIu62w2WwcfC3ZNBvaPy2wZYYpa1vwwanQlXM0BTid5Rb7LwuRPi49zvOo7OkTA1FdX2lrszsY040rIJ3O11UrBhW7uWk99RIvmSJ889ofrJMnDNHMlWK+Qryzmm0o8LQnsCXGpqpAYxM3cpn5SqYnNXbmtt+gbvRTVxaEggbokw40fR4fhBZJhuEW4WaUFlmN2YQRCMDLEoofSrTciv4wR7c0l4fa1cxz0oS6Sei6TuC+SgE6kjoLeztUW7J0OdtVrqUF5I+Wn5XhgchP7yXJ3q4G7QW5wuktB7fppRUPGJSe53HUenyjh0cGrTUhsDDD9i+nhGaLQVNM5pPBtOCAO0lcIHjkTCiAvcZ3yDqp3TVi3ES0dpdhoqhHyuFulhkCIHaJoHUQGl/KxDQ6Ng3XSmsXgXSjVKxJSgYFxoMqtj5kVRI99PjMFt4SbtbGy/bSIZS4RY/Ba7HQ9qK2vFZq+Tv4asqpLBluQjuUlyQwVt2VVPDJbLs6U8I2HaDLkB52I1OZeADqZUISFV0c6Cz1Qhz3xISGjcjW1DB9rsWbPcZzqHTpUyoVeyxjt6gqPFPjHaqVq2FexgTJfIXVA9x1DmcnEUZYtddwLvpfxOXa1NVU6SsSeD0lDVAunGbBhONjNkr6vAW1FlzK11ilTjhL1Tbb6+QspvREfpYEhzYquTndk1TUJpyHJ8aLFirUhIEtWgCdUxlpN/O0AdBdXXCiGzETsaINqAq6RtR2NjvWtu0N3+7EPM/Me09Z3tESxfnpSPKqnxjGru1NZ2OK+MNzo9VHBxLwvFgyChDkmhy2X0aE8FcEFw78AAHVENUNevFYO7IjfdfcYHpAN0Zm/A7obAsChRyYKUEIWi/nFU72qwM7Ge2bHyhJA8ioWQFfKe7cdOfE9hCf5QVoW/VlTj7sJyvFRt0zAtwyDgPTjgRlB1lr8dBUnNdZHagrSPzeHtHkyZZoTblutrOSYFBWh/8tas2gs+FUnIZWLeuUar7bYO5xr1RqdJeMHUqVpYg4QEVUuud6Mq1dbmYUoCuqpbWHBiI9TbauDITWtxf19wufjPDlAaBAoRt9WJndXODtlR8Fco8Qiqm3TxbxWNZqNIP6l8hEmbNjDgvK5OOyHXAP6rvApPlJThsxorjjrrdbEx78A2p2uJgQbaN+RoDQzg3iG/w46oc6YqCdsOtns9NyfiHeT3dGqCqqj0p66AVSomo/b4KRcm4hoi5lhXoNMknDR5so4KbBgDHNVyZPTgKNcW8JuJIgWTZATz9mFyVHTISFdVnOs+c/aDoVsK6aD5QkQ6SU4lSBgmRfbcBo6v1PYT0pUXlMAp9uC06Rdi/KSJmgmASb4qpFzcm+F3lRbcVVKOqwrL8GBROf4u0vODGgs2yGdHhGBc/2mRZyFokxoHl6LtEZJz0oh5RlUL8PIxnByiGlqrpK5choy8Qr+goC5RRQmuDNorfdlzwp9DS2RgKJKST+6pbws6HDtqgKvER40aBZPYFcYqe1ZHX5Fq34+J0JXWbfkBVv06uxOvVls1TtGzKThChvVORfKkOe4zXpCKcjqtqMhjqoOeD2b6tmYeQJndqsHHX4+M0K27y+rrOub6PwF4t1eqLHi2xoZ+QgCufSwsLWnK3j16xEjNJHbppXN0mzY6TsoqK/G/F1/Cp+9/JNpOA0LNrtldfoMdn9qMa47RdX++53m6nLj+kyFykfLXz68R2aJy87f8pf9w9QRzkLZXHa3ev0FjcuvlnrRpfx4TiRHBbet3JwIdWetkkPipqOW93YMDNTLWwY0334xfP/EbPdcZdCp21EB4eDgmjR0JrlHztAu3y+hXLCNde6pzoBCWuVQMtcgAN1aprSpGfX3rc30ddw10PwSGRcM/hCkZ/LHbQSeKi3islc52LE8wmPuJ0iq8YbEjRVT/6soqTBVpt2TpUrzzzjt479138frrr+LaaxbAbDLJQOfU2NYw6TgPP/wt/PTxXyA6IQ5lFRWoF4nJFmDb01VH9ZV2VKwciULUXvW1iJBBhKvfKUG5GiGDBJRr+T1KQmoAHbMHXfVDG3c8J+g73atdZWI/zBApyAHDAONFa2vsmCgaQVeh08XlqHDVtTfC38+VzsAAZ3uohtAB0BZ6sOoZGsVgYm+qcf6oTlTeiqyj7jNekDKcTc4ZIigqEUHBodgp9sh+scUY6dIVYFvwOCb3/V5JFbY5a5UsXCw7YtRI/OLnjyE5MQFj5fWwIYNVu+FqAW+bnGSZOeMiPPfcc3jkkf9DsEjDjJxs3bqN4G/UVlXCUVaMMHMYeg8fh34TL0Rcv0FwyjXOkmL4yW9q3+Dv1zphyznaLnWU19JnIC/0HlRrx4QEa5rDrkCNCBFGFlG6GmAr1AX74YLJHdt7whc6rY4Su3btwrXXXotgGc24ZwHBUeRyUwi+IuoU9y1sy4+w6raJbfKKGPpcOtKyKhthiuuNlJm+U8s1yGjIOcK2LIHpCVCVNOsgymwW3O5WSU3SF7g8qLlLtA/8HjsRt57+fWWNDpBax/LXZrHiuz/8AW64/jqReA691rvNgpkDJiICdia4stmUmLyGhLQwg5zYgW+9/Q6Wf7FMSTFYSDd85mUwxcSopOM5tfGrq1BwcBcOrFiM4ox0mJgagmWR+5upkopt2BaJSKdMzZHtqKM0lO/TB/GHuKhOZ1czsNVRh0fLKlWaa33I/Tk1ESvlXb9xgzxT552BXaKOEiNHjnTbg82PTkN2k+jT3NOtPegfFKDp8rydOmwU7gPRmoOGC0IjEzu2oLc7gq56dlxmM99sc6paxI7AoyPg96iuLbU68NPKarXZ2IX0ntJWtOv+8NQfcPjoUW1L71aLjo1DYjLT+UcjsVcy+g4YgAixERmswfw4EULO/n1TYAoKgtNuR1h4BBL6D0J0Sj/NIRpsCkNwqFlXxEckJWPQhXMw6+vfxZi5C2ArKWEhVBpaM/YrqdoiETngNnD5mfQNekUnyG/HdYFXlHfQqQm3im3ckSRk8qurr72mSwhooEtIyIJdNX++blRiqC28cZ5UToaoHJ6hTicCxz5OU6RIJ+D3PTsCOwpTTtha85LKD3RlxZxp+PlJHZgiEBQQhCOiDh7is4tK2t4GY73TE8ldZp+ptODvVRaEsj2knertFjQ4uIZS6k46fYi0369//YRINdc5AyRgpBAuODgY2dnZeOvNN7Fp02ZdE8mwLYZv8ftsI6uYDXanXYjpB39pR5oS3qBc4ar46D59MXr+jbjgpruEiMX6GSfdbaIBnEwS8r71tmq5zjU/yHCOSaauUUVZZ0wrmSYDn6eRQ7XcIf152rRp7jNdg86X2I3LL78cdukonEcyQJ8ZM2LTEG8LCQnK08FiG1Kl4GjUBKl0ZjFzFLkS1h4PsQu7IKFvdwIDuykRQqQedtgdyJRO0R6wzhlxs1Ek6RPl1VhjdyJY2qJBJBWJc8nXv4eLbn8A1sICvZ6qUYZIwrffeVffk1REWFiYJqeqKCvFD3/4Qzz285/jvvvuwxdLFus1JCIPJi3mdtdUUhlyyP0FTwQmdjLHxmLIjEuFiHe7iCjPSiKSYCeE/K6zJJ+Xa7ZzLkzrJ6RnkIPn4N1RFIgGx+0UPKcmeF8mNpt24YWuE12ELiMhJ+3ZUJ4VwAxa24WERe1USfsE+mNQcJBG6nuDuVqqpPJ9gR2i/fNM3RMMYQuKjnflz5F+QNX+iNtLeiLw6Sn5KEc4gf5vkX5PVdUgS77LyXY/sd1SL5yNS775EySPmoA+YydhxOzLVSKy/kJNoXjxfy/hyNE0V33KYSw0zsrOQXp6OhxiDxbk52Pvvv3qiKH6ahaihrulZYNI3cCgEIRIhz0ZGPgWGh2D5DGTENY3VUnI9JEcgE4EqqJ11aV8oc86LSgQvUT6dlYXIuW4HjZDhAljRo3eRMnMfKyXzZ2rg1JXost6bKyMaDOmTxeVVOwJDk8CVki2FD5TRDhjEJvHlNbBCqVrfrBUKte3tVBKRBrSRWwrznaf8IW2/ErPgL9Idv+gULG7AjTbALMWGJPe3jDIx89pQzLF/K8qqrFOJKhDSEECRsZEY87938VEUQFjkvuqR5n7w49ZcAsiYuNVi6F95y8/8fprr+t0hCcGpaZi2JChOq8XZjJj2LDhiIqK0s9IVH6XgyBlEXOScu6vLWiQ37WVFsFWkKXL1oJjOQneetd0qaI1muCZpGVo3/iQIF2h31mw93Ap3l57bVOgOlHLqQkh/BVXXOE+03XoMhKyAZh9jQHBniopYw13ixrE5U1tpQfJ21/uR5XUM5aUoKrCbNe+QFsjPC7R/e7sQACjSAICxY4TEoo6yi2ijYgT46BT4pCzDm9UW/ErUTufrrZgq3Qipprg6u9AqxUDROLN+up3kDJuMsJjmhPVss4iEnph/Pxb4GDWb7kX5wSXLf8SW7dtV/WSKfw5D8g54V/+6lf473PP4fU338DlV1zeItUff6uulhNMHHGltX3Yg75QVVyEPSuXIEiIHRzXW1NX6j1ag9xbVVH3a1qwI0RKdTaXDMFBP6euAdtk0PKcmqBg4WKFi2bMcJ/pOnQZCQkarNSZjWgLgpO2jMrng7WQaicAv820BEz1562SUg2ptVSjusxlx7SA/FZQcPewC305JNoLNnygqqRmta83Sz2uFDuFoWCHHXUaFvZylQW/Lq/BH0TyfWax46gQlVvE0Z4OFFIEBwRh9JU3YPyCWxHXf7DP+VRKsd6iDg6fcYlITIeUXepRBsFXXn4FlhoLLJYaJSMxdNhQId8VmDlrFuLi4vRaA9RSXPsmQlVRTmmcDE6bBcVH9qE86wgCw8IRnJgilXdipZKqYV2Va8Cggj5E+gp3fPKUXB0Bn4SaRLoMOAypM0pB9ZpblV96yaVNkr8r0aUkTEhMxCVzLtGR1PBu8UEq5YHS5MH4gG2RhiQhU+kzV6ROJLtOK9joJKK10LdK6rmPwZkC7bk6uy+Ltr1gOFeI2kcM6JbqwwqrHX8Twv1F7LznRfIttjpwQMjJUD/OzbK+2RkbxHYOj4zBtFu/imFi80UlnSjO0Q/B5jCMu/YOecXaFnVT3u/buQdbtm7VBMAOu70pPpgSgZqPN+g9NK7hZqZt8VZXF+XjwKpFKu0ZoBDADXtOIs/q7dWiwlJVbtTBZqqootyZt7Ng3yyQetwr9renQ4ZJjwOFhNde17Htz06GLiUhG+a666+TjiNqpDSIAT7QdlFJ80QatoWEBJuPKukEekldp1ygl1Tu7Sj0rZJyvvBMOme4ts1Zkgdb5gEZrUs7LxGlPwbFJysRg4XcHKG5nRiDGZhygfOpJB1DxYxfqhfCRIoEnXjtbeg3aRrComLdn5wIfojq1QejLrlablAn5ZZ7mkPx1htvory8DJbqaiXZicDU/brKQuxQRlAFhZzYO2qrLEP27i2oKipQtZtS0PAntAbWp7NEtCCtVz8N2ObuTwxkOPE3Tw5V60WT2C2HMZQb5YkXqT9xYteFqnmiy3vrpEmTpMCuCAjjAfhA+6TTHJYGaquDht9kpM1QUUm9Y0kpaTS9vEcKv5ZoK9W7GiKlxSZyFOfCaamS1w6Yo9tCgBNBpFuoEDC+t24dFiDPzvqkose/fO8nhwESMCo2QdTPm5EyforOx7UHwy6+EuFSZkq0EFMoDuzZj507d6OiolyjZDxXy3iDKitNkQZp68CgUAR72IveoDZTnnUMh1d94crDGivPp2Vt2dbe4PRHbaV7KkPe9xKNqZ8M1kZ+1o6C36Yaf1i0Cs9QS9rCoaJdXTnvSg1IOBXochJyUveqq66CWSqUD0DwgRihwT3kubdEW6qLTWGSCh4SFISBUsmeTU+VlGFqVQU+VFL5LIwdv5ON0jFIFxEp0uCwqCrW6HQgNJwrDzovDQOj4hCa2E8lhp6SAYhhW9y7ISDctb00CRgWGY3hl1yJlAkXtJuAhDkmXqThAtSLLUiTIlhUvYULF6KyshI2q6VJGhYXF2PlypXYvXu3hqwRVFkZ5E3w+enpbA3VxYU4tn0dbGITBkXEIIjOIq/B1hvqFRU1v1EzLbgWJU+RQZoT9J3tyPzlo6Kp0e7m1JoB2rhh0VG49vrr3We6Hl1OQuLqa66GKTKiyUgnDAfNwVq6et0nTwJVSQP9MUU6AidjmyCN0ShqmTXP9x4AwebwNhG9q0EJrfsgUDrJf4zwYdImemw7R0QunwlUJ42p9yCY+w6VY7j+DUnoqxKEpAwRydN39ET0n3xRhwhooN+kCxGdmKSaTGiYGdt2bMfhI0dRWVGhzhf+febpp/Gb3/wGP//5z7Fu7RqxG10ENAZebhfHwxecosXk7d+BzO2bERwVgxAZXPyknk4K6UO1Hqoop/Mnh4Z0WhVlX2FyX9rWjCwyHDwchExmEyZfMLlLUhu2hlNCwv4DBmDK1AvUgDfUFz4YI2f26YO2XRpy7meYkNDb80V1xlleIPc/XiVlxz8zEEmoLnr2ExmdQ0KVfNwfMUxUxE4T0T9QJKFIDVHdguNTEBiTRNed5uKpFzssOqkPUqdfrLGanUGwOQIjL1ugkTU65yflptSrEPKRaDnZ2Vj25TLs3rlLtwLfvn07akRy2uX6eqfYU2ZRm8MY7eNbEjIRV9qWdaiTfhAUlSCSPFoe7+Q04iDHna4I9irumJsaJNpAF2g9R0U4bHU4VVgY4I7L5ohwXH311e7Y6FODU0JCxpLefNONiIiO1D34DKg0lAc9LGK/LSMXrwmSOqGDZoTXqnt1U0vns4px7w3dk7BTHb4joOxzNyA7lHQYw1NL9dkkKpcpyve2z+0Da0UO+SmutHCW5QtZahAqEiVp2GjE9u2aEXvA5BmIipOBQ54lIjwca9au1YgZOmlCReLGxsSqIy5anilRpCanJKxiM9ZL+0ZExYom5Hsg4KY7eYf2ojw/CyFxSQiKa2PQvdRhXVUZGpwunYi+0Qs0jUXnVFG2GOdT90k/ZTBEkxSU52YEWOqgVEzt4lhRb5yynsq0F6NGjdR5Q2O6gg9IF/BuGU0p9pvHnNbBLkcHDTd69Ex6xAGLRrqtwhX46w3P+avTA5amuXxsRD+PeTKWJ9TYzbezkHuxM3LCupa7BjsciErohd6jxqurvysQLGUdOHWm2LW1SsTqqmps3boVZSUlGh3F2FEu7P3hoz/C7NlzdCLfKrahXcoSIgQMCTveiUHtpSTtENI3rtaplyCR5AGhYaws9xWtg1qEvShT/xLM5jfVFKzJpk7+7dbBXnK0tkHDKz0laq2YEuEREZg3fx6io7ti8Gwdp4yEYdIoV199DSLFqKVYN6DS0O7E/jYGI7OCOWeYKqMSk0E1WZlaYX665Zgv0CHiuuY0osUgIXKxjWFbHUGdaAC1nLAWdZyEj4iLR0zvvu5PuwYDL5glNpGolfIskdKey5evQF5BAaxWi07Yf+/738MDD3wDg1Jd0re6pkb38Q8VdTTIzPm+luDuV9k7N+pfEpCxsW0hIFHvsKCOe00ICdkHOH88JEjU8040Mb9KKUihkCFS0BgyWZ8sVu+UFN3U9VTjlOpsjKoYMmSIK7DbXdkcp3NVGrqM4LbUIS2LFKntyaJ+NGcglW/KPVUdkxHWG6ERUdp5zhjkt+kw6XrIyF9fq2kdjH34AqRenGKL1pQWq3e2qxCZ1BsDp1wk7Reo2cUyMzKwZ88+lJWVwSqE46qJII+BpqKsHDY5Hyb2YKjnvvMCbjNeeGgfsvdsR3BMvE65tCfbdl1VuUhk12uaJaqKdoFX9KCTtqBIe/d7glIwMioKl192GXr37ppkTifCKSUhw5oYTxodG3OcNOTk/S6Rhiee/m0G3dDjQoNbzhmK3cU1cXaOkF7QldynG0II7rmuL5UcJ56s7gg4sNAD64oYcYEOkNLsY9i16H0cWbsMVUW+V5l0BKmzLkMQTQqp94iwMKxavhxFBYWoqa5CrXs6wkBBXh7KS0tE7Q5DiEhDT5TlZuDYzk1wyHe4+Q03w1Fx00Y4ywulUZtV0emiigZzQNIz7QdJR0fhThEGXCLmKQUbGhrRv39/XHPtNe6zpxanlITEpZdeqtLQMxEU6ZEjUnCzEJF5aE4mr/gtrhPrL8Tiyunminfd01JW5H7fDO/9zE8HSDymaGCJ6cnrnDfUN9TulHsbdamQ33HUVCNrxybs/Ow97F3yPtI2rkJV6fH10l5E9UpBXN9BGobGZUp7du1C2tGjopJa1elmeL85f1hUWITKyiqEMLrH1KyOcu/A7F1bUJB+EKGJvREU18v9SVvgh3qxf+s4QS8wVNGRIp2lK3QKu5116ij0nOinFKQNeOmll6Bv365V71vDKSdhfHw8rl6wAPEJCRrWZIATovtlFGLiVy48PVl98vN4t0radBeeFClQW+67s50KEpwU2qDyu0KUoBNEjHQYQj6/EJPmYVHvq0FGSl7p+M46J45sWIWt77+C/csWImvXZiVBZzD0wjnaURkuyLDAjRs3oaxcVE+bENEtDZkq0Ur1OCgAQWI/BoiqSnCDnvz9u8QW3IzAULEVo5Ok3DJQeQ4iJ0Et14+6pSB/bVYIVdGADndethBjbblG85gIAWNCiwMbizV46BCRgqcmTtQXTksv5ZKXsePG6dSFMYLzwVkRlIaMhWxLQZicdniwZ0pEqU557Sj17ZxxEeJ0wk9VQ6qknCYxRboiWboa7MRBotK59jRs2aE1isYcjlqxG4+sW4ZtH76KQysXa4xmR8mYOHQUwrklHZ8pPAzrN27EsWMZqK6sVG8opWGVvKZ0DI2KhinandhJUJGbjWPbNqCisAAhUl7uOuVZ3pOhodYGR0muPJfrfvSQTzWFqEOm7XdxEY99jAcNo81CQO427BkdQymYkJiAK6+4Ev1EHT1dOC0kjJJGufrqBejTp3cLaUjb8JC8ZxoBVu6JKMMKDxH9ox9XE7hOuUC7sKZC3d/eYA6U0+6c4bzVqV5OJXVF135Ir/4aMcM9Dbl/hTcZ6RiyVFVhz7KPsfndF3F49RJk79nabjU1QO4zeOalupKAtclJ+x07d8pfISHVUpGGhcXFqJTfikxIblqvaLdUI3PPNhRkHBE1NBmB0QkuNrQZjeqQYVoT1zvXQDxUVNGT3YafG6RjLCi9oFyLybnAHfZarKcpJO89pSAn5MdPmIAF11ztPnt6cFpISMyaOQvj5AGZErFeKoLgj1ulZikNdznqWpLLB+gljZMhkPvONV8rapLUuN16fE4SczTXu522R3RDpOHpiNjhoCXqaHBiX4T2HSZSJhlMC3E8GTkomFRd3L30I6x//T/Y94WoqWI/0oHDfKNtQd+RY2GmnSedOTIsDOvWrkVGZqY6aOwOO/Jyc1ElpAyXOudEPVeTFBzcixyRwKRPUGS8qMuRLcp2Usi1TPpszH3SM35FaLB6RX2R0CAes6mQdNxDYrP0q6XSvz6yOvBOjQ2vV1vxWrUFR8UU8oyOoU2bEJ+AKVOm6Dzo6UTAY4899iv361MKTtpHR0Vh3+49yM/PV7c3pRSrl5m6SUsmeIp06/6+wCpjBecKiTNkFNOgKJ4UovlHxCEsRkZaD9CJYa8SKdmehu8UWBiRzFxB4bTp5qaeDiJ2eFt1hftd14FpJAIjYhAgElGTS4h2wKeX0c51gdQz65qDA2M/S9IP4timtarqNYgW0ij2VZDY2q3FehJBoWZYy4pQXiSqv9RnXkE+EhMTMTg1VXOurFq5EptXr0HCgMFIGTNJVN9KHFzxOfIP7YVJBgoOFu0NJKh3WmHLPKhSnS3IXaMeiAxDsvQTA9r8rpeaUZxp9ffV1mGLEG+5TYhnsWGZvN4jpGP2NObaqZKbsZd59jT2kSCR9BHhkTCHmdU505YcOZ0Fpe9pIyGRkpKCXBkxDxw6qDGIxsJQ/lstpGJ6Ak7AthYLqBUu/zAHCHX65p1T/VQ9i0huqcfTLrNWlbk75emAlEckAMOrTicJDdBRQzIGRkRLSYSMjKvls0vn1Ioj5C9J6ycdrjTzKNKEjJYaGTRs7tSH0iaB2vmMum1GaFgE8vZug1OuZQaDGosFI0eOQmRkBD547wPs3bkdgydPFyKm4uDaL3Fs1yYESVlCElJUSpO87QEdMnU15SrNOUgz99D9kWbtHywdDy6NKxZT5Ehtg5o1Hwnp3rfYsctZpzs+sfa5/wVtP3rYuY0b+5v30zG7ACN+GBW0ZcsWnV5jf2UGulOJ005CorfYhUeOHsWxjGOawEhHaDlfJg1ULeNdioyWvQN9Z+zWipfrq6RPLbU73Ea166DdEJM6hpe1AGNLzxUSGvALEDJGChkjY6W+RIq4d7AVnYsVqC9Zj0pakwmVhXk4tmGVkPKISkomXlI1lpPhGrjs+o4pKgZZ2zaKnVmh57Oys9C3Xz9Nn7hi5QqUiTqaOmkaLKXFQu4VcFhqECoE5MR8e8FABGuWSEEpJ/tCpfSPm0yhmCzqKEvDBbh57sF4kdWOF0XV3Cmv6VvgInLmh/EmGx1InFahA4ar5XlQAho5U/mXpKsor8D2HdsRExODYcOGndLg7TNCwmh5MOLI4cMoKy0Vaeh6QEq1Ehm5RDnCqOBArUhfoAphl1b5TCqe1+hVUpEMYo4dMUUr0xPs9L6cNqcG8tvdgIQGqH4GRcTqWkTWFPPHKAlJRr3AVVeUfkFh4XDYLCg4vBf7v/hMSVCvqe5dwfYBoqqykwZLJy1MPwyn3YbgoCBNFMxOnXEkHeFJKYhLTkH65rUoSjskEjAZwQl91EHUHtCerC0tQG1FkQ4GBFfQPxIZrv2E5OMOXq+JffeBqJx0uHAyyBfxCBLNyCQXLlI7Uvog0zNy8AgU1ZY5ZBhMojsOy0G/RU1NNQ4ePKjZ5Tlxf6pwRkhIcG3WsWPHsHffPiUQG5dQtZSqk1TjcGlgX3GBPEUV5ICMehwd+R2CDRcxcJTYmi31eKcuRG32yJ5aSOm6EQld4BIoNxnFZmboF4O/m+xk/nWTUadXhGyc5ysvyMaRtSuQt2erprYIkMsYiM9MATk7NqmUo7e0pKQEGenHUFldhbiUvijKTEehqLlB4REIie+DoKjmzG5tBXOg2rIPNZWL6CNSeY45BF/a7PhXpRUrhYQcjOktbZbVLUHJR/K5Bo8QTJt+EX7w/e/jJz/+Mb5+//247rrrMGz4cPXq5ufnoU5sRkMqkrA18txZWdm4ct68U2YfnjES8gETk5JEJc1AWlqajDxB+uCsyGqpWCaG4sqJPh4GuAFew1X66VJhaWJkU89XSIUHxCTDrOnymhEoIzejSbpOJaW7h9MpvppdzikJS4SE9m5CQgMko0g8ISMjVug15t4PajNqueWvR6fXa0U6Nsh15VlHcXDlUhQc3KneUI1gke+yk7MtjeVqtWJbWirLVaXlnKBKQfUUuwl/Qkityv0YkucozBRbsELL4PoESBRyvCe2HvcLZMQpTZHWpB49nTwY7xoYHKRe+f975BHc/41vYIRINjoJVSrKYDN06FDMnj0bUZFR2Ld3r66J1L4oB6Ujg9L79++H4SNGuH+ha3HGSEjQs8ZV2FRLOe/ESiHYZZnAqECIyNCkWCGiZxNqpcs/3EZ6u9PtnOH/0mAhiX2P85AyuNtezV17uoaE9UKuBpGuTN1gdJJmuGxTR1G25n3pXiQ0IGRkEiaxF2mraQxnQ62WW5/HRz2pWkt1VchWnn0UNotFBagBQ3pQ6pBI3GeQUlC3vub99GIOXXztdUj70IFE8tVWFMOeny6DWKn+pgG2ebncg39JPv71RBPx+NtSFibpZbKxK+fPw2M/+5mQ736MHjOmVScLzzOYhKsmNm/eDIsQj/2RB+1jZhlfcPWCpj7alTijJCQYU5qbn68rs1l5bEiCHiwG19IlzczKfG+Ar9gMtB9XiErS5JyRawPNUYjo1U+vM0B7sMtIKL/VUF0OS+Z+1FWXaYp6rovjefcFbhLmSIf2Q9TA0WpLGTh9JHRJa/51lcxwxhvMkb9SH1ThGVgQFJ2gSXelF6POVu3+zvEg2TiNccK5V7lvSJxrYr7BVqPEqq0s0WVIDC90Fueitqyw6XCW5sGRd0wHLtYpNZrjBzfXE3iWi0+iTiQ3Oa0Oh84XXzxnNh5++GE88Zvf4Lrrr0cfIZbnSo/WwGfr17cvzGEmLP1imdqFPMeA8xqrFdMvmo4k0d66GmechBxZ+vfrh6KiIuzds1cDhA21lJRhGgzGlY4WIno3QLWQ8EOrqHwGAaTCmAAoZlBLDyklkZVRF9K4nYb8FjOosaM2WKvhrCwS0tXpFs+ujiNjvcOi6pScEPW4V4vQtY6R0CAOwWc1asI4L3+lI5JQXFtIdVidKqIaNthtcljlELvYUqUrEerk90kIShtHYVYzIYQg6riRe1E6dRT+waFSjFrNku5SK0U9FTIyBQfLwkGqxSF1wnpl/RlOmJNBN53hIC1mBlXGyy+/DN/93vfw+yefxM233KKqo2dm8LaCYZVUSy3VNdi6cQtMQkgdeLSPNeJiUVsNQdFVIAm7ZJPQzmLtmjX4yx/+hG1btyA8qnn1ORfrcCHvneEmXGYObep2rAYuwvxKUXnTXuIEVcDB13/T/a4ZJaJCsWN0FWrL8tV9TqIRzAlq6pOqKQmdpfnqVOC8ZdTYWYjvN0SvIepkkCjL8UxO5XoiShZ91fSP6zylN8lOlcgA1TZ2XjpXGmSUpqRX8sjzGduEtQp2dg81r6eBNihVz7KqSowcPgJfu+9r6jThIgGSpStAlfrDDz/Ew9/6FuKiY5R0jI+NS0jAsmVf6DrDrgRV4TMqCQ0wWLZWRsQ9YhgzbZ5RobSmuDNOmqhJw2TE6BXksg9JQnpImSmZ80J6NaWBdM6ooeObgocN6IR9V0hCQhrFiA2tqylzEUjI5RDy1ZYXq8ThNdLbdZ4tPHmAXkticQWCVVQzl3Ilqp+oybo2UA6nSCKVTkVZsOUehV0Oh9hHTCRcW1bQdDBOts5SodKN8386B0jpRYKpNDnx0VNB8uUWFmDq1Kl4+pln8OiPf4wJEydqtM7JpJN6gtk/3AfR2nfY9zhlkZeTh/SjaaqdNcr7AOk+g4cPVUdOV+KMq6OeoApRJeoFs3oxjb4Bej+5YeNukXzTggMRJSosq1G6Hw45a5EvFdQ0BopUiBk++TgSUgXsyrlChl+xEXVnIEOdolTkb7htT0olp9hDjWHRsAjBqrKOoOLYXpGgh0RSHoA9/5jaQ8wMwINJm3joannpKFTNfJLI+C0e5wgYXZWdn6cb0fzq8cd1nV97JF+JmDv79+/Djh07NGSSxD3R9mY6YS/SdtGSJbqQmYMpFy9ylcjV13TtQt9uo44a4Nzh3/76V7z91luIi2kOonWRDugfFIjfxUTobr4VQj5uhvKZzdEciEsSTr68hQpIlOako54qW1fATYJasa9qMva1sFWPh4y8Ytca8A6u7gjoBeS+6ZzTqpfnrXOInUlJ6hHS3lmEiQ4iT4ngCBOCGZcq9c4UJV1pD/EZKquqUWVtuWcHpxUSYuOaPJlUD5N69cJf//F39EqIR+++/U5ajoK8XGzYuBGLPl+M5StWoKi4CHfddRceeeQRDB48WL9/snt8/vnnuPMrdyI50bXLFx00YRHhWPbFUiQktWdR8onB5+xWJKTOv2vXLvzxj3/El8uWId6LiOxmo4OD8HhshGZf/sRiw0vVNp2w1WtE+kQMnYTk0S13Uu00Cd33dzk8KlFbXabODaq/XQl2OINgDnk2a70T9frkLoSHmjFAVPdBg1M1/I8LpblLEA+maDebzZpgizsIhZlNqv6SQKYw3xtusr651Im1axO7x2K1obSkBOVl5bo3YXZONo6lpyPjWAb2HRTpLaaCCQHaGc3hlBDN6i3rnjlXDbVf41PdOWT4BJ5dnvOKCVL2e8Wmo2Shg84gHTcf/fGjj2Ln9h16jmVkysHf/e4JLdOAQamiBPiWgju2b8e//vlPJR4n4FmPd975FTz40EOqRlK1bKsE3Sum0W9//QS2bt6k84p1onUFiYnx5N//rHlIuwrdjoQER/rVq1bjT79/CrtFfYiMbU43x4KKVoDxUpnfjw7DBnstfl1RrUlg9XOScMhEJI+Zru8N1DptqCzIEUF5EseFL8i9mVTJXpihGc5cQ4H8XifUQe7pUCuN6qgRojVSsXY1Qe/eKZg0cQIGDRqowcMkWe/kXkiUkTcqOlq9d+xEngdHdOOv1gL/ug8DJxr1DRvJsJd4sOMTnAKgJ5Jtkp2ZiaysLJSWlupAuVrMhiqRZCQQ41RDE/sjPKmvJthy5X1t/s2KtD0o3b/ZpU4LOD8cFx+Pr973ddx3/316zigjfQIrl3+JW267HSnJvbUspZUV2LR+nZZtQOpgfV5PlIqk+93vnsQnCxeKZuAUVbIK48aNxQ9+9CPMnDlTJ+XbO8dHj/3zzz+PP//pTyKBE/W3+bszZs3Cf5571n1V59EtSUjQBliyeDGe/O1vUZhXgFAZ1Q2wsLQTx4tEvNgUgp+UVzWRkGDQ8sA5N7foBHV1DlTkZ3fIQ9pQa4c9L003eWnZmd2v6cGsr5XPhAj0PMo1xpIdNpxdpIulogpWXc/thxiRWNMumo6hw4YhpU8fDExNRUJcrKo4rj39grXD8GCje74+U6AtVFJU2OQ0y8rJwc9+9nPk5+YiNNAP8eNmImrgKCmnSD8f5azKTUfpgU2oEy2CILEosa+/8Qb87LHH9JwB1lmu3P+r996LrIxM/b08+e0P3n8fA/r1RaIQk6Qy2uLo0aOaAzUr7RjKhKxxsTH4xgMP4MabbtJM8KzPjoB9kCrpV+/9Knq75wcpwUNFA1i+7Avdo78r0G1JSEi58KmMbL/7zROoYXo9j8pkgTmBz+kLro72HOO4gDV13t2dJ6F83ySjOtWrmrwMnXBmHlH/4FBVtbiTkNERpN/wX1FPRZWsKhPCitSV1/x8hozE3FJrQOoglW6RQkJmsDbIRulmEK0lybsPuOFLqUiGOvczUW1+8Jvf0oRPpgA/JE66RAMTVAL6gLWiGKUHt8Emg5khDWtFYk27YCpeeedNfe8Jtvcbr7+OH4ok6yODU011DX75m8dx2aWXIDouXlVvloMEvFfIyk1pBoiteOfdd2H+/PnqbafjhXXaUXAwWLduPe772n3wE9ub96KpENDgh789+2/Nu9oVIAnP3PB6EnCylQ/6zYcfVtWNKpEBdlXGjzJ63rua6yydS2rUBLk/g5QDgkOQOGIiel9wKXpPnIVeY6YhcfgkJAwahfiBI/VIGMRjFBKGjEPyBLlm8lw4maLfYcfV116DO+66U+MTR4wYoUt/aA/RjuOITumnHrJuSkBvsHOyzLFR0QhpQyQK4fIm+7s8yW5wSqrS5tq/whsk0JxLLmlq82DRevYz2F9g0zhgl9zgIPCgSL2PP/wAH3z0IR548EGNDeXOYJ0hIMH2SExMwLSpF6gGQKgNHOSv+290JbotCQlW5o0334RHf/JjVItK50lE35DGocfQy2GiapKhPrYDGuFSWa5ZpZlnJTAkDIEiabnjUUCgSDKvgys4AkPMCDKHacWauPBVRnWO3Oy4Z1Kl7ErwOWJFhfZM3HUiBJvCECJ1wIHNAF8xYbFVSOUNEoApJi4WLYL74LPz0w41pLCBC6dPx7XXXYeLZsxE6uDBOrCRfCQ27dfDhw83HTnZWZrioz1guw0UldZhdTn1+Ny0kZcsXarvuwrdulew0rmw8iYh4vd++D2UVpS3gYgC91ydAZUyHRQ0SsSqct1JyFJRoin8Wt+c1A0Z9f25S630NBr4ZxtIPK6C4cBiOHFOhACxlTk4ee9XyA1k8vIL3O9agveeO3cuaipczp9du/eod5S2mkFmDtIkCr2X/Izmy1duvhWXzrkEN9xwA2677bam4/rrb8AlIl3nymcPP/RNvPTii9jJ3aSqjx8EDNDb3KdvXzgams0YOtGY7jE9Pd19pvPo9kMzCcSQoTvuuguP/uiHJyUi26e6pLBNI3RbQS9hncOmZKwszFVCludnyt9sParLCl3kdK9bpHOCoWxssmwZkc82sG65KxM7f1vgsNXALnalH/ONuiEWMBrsTl2P6Ask4cQJE2AVe559wGK1aLB/a6R/9pln8MrLLwup82UMboRZbK2U3r0xZvRoUSmn4pJLL9WA7tu/coeuiJgyeTL6iu14ohhTLlpOSohHlJDdAKd9QgODsHPHDveZzqPbRMycCGwE2gmDBqXqNl3Lln+JUGmk49U7l9IZkjTAnWmtWfyRQJ2NmtFYTpGMetSJnWocolbV2q2itlSLHVkFe1WlhrE1CDFDQk0aVNyTQa8gly8ZBGC9Z2Zn6/6EFnnWiJRUhMa03AhVl5DVVKr2wDqps1TqIZWnn5PIlDSjx47BaCGKN/gbAWIr//Pf/0K0kMBRZcUll1+GXkmJCDWJyu8VPMApD4a0XXnVfN164aoFC3DFFVco+WaJWkvVlcQbM3YsBqWm6lI680mcN5xK4bzp0bSjmvqf1/I39XflmH/VVe4rOw76A3qMkcJGYeTE3ffeg1/+6lew25q3Zm4BqRxfy5Y8O0jXgdJWFBTpWLUiKWvtNk2CRJuU2bAbpBwHDx10XXqWoWkQ9BcbzFKtjqj6erHxqspQUZiDqqJcWCtKdVdeDlT0LBtZuQmmNWEOWkZJ+QI7OrcmGzVipGo+pjCzbkRDIvjShLgsjrGk48ePx7jx4zBWyEYnTaoQjlMVffr0aQpuIPmZWe34QbwZ/A1GyVDd5XQSnYMEy8XBaO26tfq+K9BjSEiw0rgh5R133IHHfvlz9S7arC020lbU26jnd5062m5woORiXikCF4T68gD2dHAbacOrWyckrCktRHVxPmyVZUpIp82i5DOgWcmDhIRuSegX4I+aqmoc2L1X3/sC7888oA4ZcBm/SdWVv8dgh640N3yBUtBmqdFUkL2Sk1Ejmo4B/jbtwq5q1x5FQoKNQGfNzbfeip/+/DEk90nWDNCe0EnhM8lBt2OGETwcURk0fLbBJGo26qie1+vUQ53TpQV4Eq8JJIy0m4yiTeShIukQNb5YpBudKr5AEg4ZOkTUWquopgHIyszU7+tvnGISUtqxXzEEsLeQ0HNXMQOentrOoMeRkCARqVZwHpG6f7nYJQY4GcxJ8zMH+s+kHIyakY7CxiwqdO2zfjaBNhkflE4QF0grHq3AB2d4yipqPEPhfIGaD/cHpHOGAeQFbk8qbVQft0O19IPDov6vWbMGiz7/HB9/9BEWfvIJli5Zomkrjhw5gnKRYG0hD9uNAygHAk6XxETH+lSDuwI9koQG6EGjoc3g4yaIFOKurj5b/bTB9dvskoHSbkXFvrf07smgV5Ed1AAHxhNx0E+u1VQgXqAULGmlfmj/pfTpjTqpT/5WTna2kkNJ5CEJeY/XXn0Vj/7oUfz4xz/B47/6FX77u9/hyd//Hr978kk88dvf4he/+IV89mP83//9H/7vmw9rbPLyL7/UEDkjUZUBko3n+Ft8LgbDcx8VbxWY/a8r0KNJyJGS3lJv1IuNciZBdZROCDYg3dzsPGcbuDqjXnoPV3nQC3yyHYKZXMo7DT5JxgWzWa3UD9s3qVdy0+usnGw43Q4ST/A+zA16wbRpur31/PnzcO3VC3DdNVdj3pVXYs6cOeo5pReW6TZjYmOk1I26WiQzKwsFBQUtiEiS26wcyF2g1I+V7xigDz7EL9ClDXQBejYJpZObQo8fjc64Y4bNFOwiYYB01oyMDPf5swMqIeS/ej/pyrTzGpgx7WST9m7XvgcC+V2ROq0NUrzeSBZNMOESU02wZem5NCQTpSS3Zmcc6QMPPIAHH3wIDz30TTz0rYfx8Lcfxre//e0Wx8OP/B9uu+N2XDD1AvRNSVFvKUlugE4ZI1SN4M80q92uASHVvU9/V6BHk5CT4r7WynX1Or8OQaQh19NxxN2zc5f75NkBklAYIrQSkFhe5PIJXsI68ejsfG2z2ZGW5jv6hCT0VHmJ8spKJbzahV7qIcHrOf/HDNv0G8TGxmkOGs8jOTlZY3iNg/tOUJoSfDbe29P+q6UDqdQVVGCQcdzkifq3K9CzJaE0IpfEdEewA/mHmHXUPnz0qOvkWQRG/3MyvT3QFRQeeVhZRza7DUfT0txnjgeviXDvfx8s3ZVbJ7DdGTxQUV4mKmXpcUdlRTkqKyt041JuZGocXJJF+9HXYThrGKvqGcpGonPjm5ycPP1dzv3Wi0o8fPhw9xWdR8+WhNJArenlHVrA25WQBgsIdaXMs0pHYyc4mxASEtwkPdoMqQtPu5DtR4lDMlktzWku2PFJDJKIKfijo2P0OpPY2fRuKnnFZqsoExIKKX0dFTyEkLx30yHXt3jv46gS8jqkvQijfMUlJaipqdK2ZNnqRFqO7MKM3D2ahAQriqsVvHHGSSjl4uS0piSURsvMzHR/cHaAuWBc+Tip/ktduyfhTwQ6rIz1hJ5g5ExZmSt9PqcZKMmUMEIipt0PC4/QOgwMCUJVVZVPNdQTvJbkoXSjamkcdptVSe3rqKqoQBnJJq8NsG9ZRV0+cvioSn4DQWLnc7emrkKPJyEDapkR62Rwzd6dXmhiJ+kQ/mJC0Qt3NsHIUE0wt4z0en19QlASemQkJ1TFq6vXQapSiEApRjJYahgGV6+fR0a42pevSdaTkbCrwN8pKirE6tWrERUWru8DpL9xS+3oLtzN96yQhIzmV2fBiXCaGs4T/uohFdVN7CBujno2gYQIEVOAe0wyVrdNxODiXi/zgdsfcJriyJHDKgGPn0j3a5JCVH9JVIK/f7KD19NR43nwnPE5+05r4GfM7rB37z4cOnRQgwU4KDT6++Hm2291X9U16PEkpNeN+z2wgjzB2EWjY+jqidNNQmlEzTgmf4NMIRqtcTaBnTnMbEawdGxXAuKTTVG4wXbwuFanOoR43JjzZDYmiVNONbWyClU1Nai2WFAupCwR6VlQWIjs7Bzd6Yv7Cu7eswfbtm/H+vXrsWbNWj3Wr9+Abdu2Y+/+/cjIyERpKyFzbDPucZF2LAOLFi9GhLnZ+RcZE43pF13kftc16LY5ZtoKxmXOu2KertA2nDScJ4ydtgAJ/YepG7wziZ46AyaJqtqzDo2iwiQl98JKUWt6IjxzzBgIFjv814//GuvWubKghQ0YiaCYpNYHO3Zsh1V3XXKWFjQ5aKjBMNnz/AVX4YEHvqErYwwpRalIgv30Jz/TyBaCS5a44t5P7DL+Uq3doblfOAjbHHY4HU5YrRb1hNrlM2Y2oMezXlRertDnagxOUzD/6MhRIzFcbLtevZJUIhMqHeWg5vLqq6/jk4WfaCoPHeQpBW++Gb/57W/12q5At84x01aw0kK9Juw956LOJOiEcM0VAvsOHPChavVsREZHqZqmE/Uq4dwf+AI/k/rw91jYS7D9nFIvhUXF2vnVSVNejoOHDmkG7Pfefk+dMZSSPLi+75WXXsFzzz6H/8rx+suv4t033sYnH32ML5d8gTUrV2Hblq3Yu3M3DolErKysRIh09Hix4eIT4jUtR3RUJCLCwzSaiQOIYcoYEjAnJ1fI9ym+/OILRIVH6GdMaxEeEYk7vvIVfd+V6PGSsFDUkJtvuFGTxhqSkCFU4QPHILr/EF1syjVtNWVF6n07nWA5qg9tQ51IgJLyMuwXNYiLSXsafEvCYDz/wov4TDprdWWF7pIcxO3VToAG0UichdmwF2Y2SUIlgRx9+/XHV++5S1dV5GXn4sDBA1i/YQNCxZ6OiotRojSbF/zb3G05X6kSTMDrNM19qEnTEzJMbfiI4Zo6Py4+DnGxcUpAQ/Xl9a6jERabVZMdf/b5IqxY9mWTXakOIvl7zfXX4/e/f1K/11WgJOzxJOQaswfuv19XeXumReSuRcHxfRAzaLSoJTb464JSVvzpe1zaotZje+GsKhO1qgwLP/8U06ZNc3/ac+CLhHRyvP32O3jvvfdRUVqCSKnnk5GQtqOzKAc2UUk95wtJLmoJXKjNVRUhfkEIMYeo55uxqeSX2WTWuckg93SUoT6SPCXy+zplIudqa+tw0YyLMPPiWRg3diziRfKxrAR/h4TisiT+1UznTgcsNRadCzx46DDWrF6Fnbt2qQQkAUlQZoYbNWYM/v3vf2vayq7EWUFCTt4+9tOf4nMZkRmu5AlKIjZ8YHgMQpMHIiAs0h3JzwY8HY/dKDZQpnY6Jix68q9/xJ133eX+rOeAi1eLCvLV9jLAjv3Z54vxxquvyWd5IgnFJkzoA7+TWDjcVs6Ssf+4YG6CJGE+UgT4IUbssCD/IN0Pg3laB4tES+7dG1FyPkwkGVcwUPbRhvz300+jvKTURUS577QLp+k6RMadhptd5CWhKEHrpE84nLW62LqyvEIdPZnZWTgo5kJRYZFcL/d2mzdUQTm/2HdAf93n/oorr9TzXYmzgoTVUpnPSCP87c9/0cW+rYGEDBLVNCQ2Gf7mcDcZXSrMqQQ336xJ2yl2TyPuvPduPP7rX7s/6VnIycpUB4cBknDV6jV44bnnkZuThfA+qQhJ6udzuZJnPSsJM4WEPibtOflvDjEhtneSrn4YN24cRo0ccdJs1/976SX8++//VPuPqzscdgeqLTUqwU4EZndh7tQQUyiChaiUpIa0rJODC4kHDByE+79+P26+9Wb3t7oWZwUJ6WJesXy5K+15n5Qm26A1NJFRVCclYyBV2FNDRrF2UF9Vjpoj29EgnW5A/wFY9MXSk5axO8IXCXfu3o1//fUfYkcdRXjKYIT0EhIGGpElDI+gw8b1Wnq2qud1FcWiGRyfV4YEGDxkCB757nd0A5j27rT7nW9/G6tXrtKA8Dr5HcN+pFzmvVWn9QFKR8aD8mpeQWdNENcJBvjLADAS3/3udzF5yhS99lTgrCAhQbtw9sUXg9schzKBj6geJ4OSMToeIfEpCDBHuCM5up4cdEZU7VotjRqEssISZBXnt7Bdewp8kfBoWjqe/PVvkXb0MKL6D0VwYh8d1FxLm+Rw2MU2d+h6w3p7jW6gyp2tvKUgHWY0Je665x5853vfdZ9tHxji9tprr2PFsuXIKczXpUhUJf1FA2GYGacXXM4d1/XkpEq+epF8UlYEB2oqw0EDUnH5VVdiygVTNHkUSXIqcdaQkEY9MzTfc/fdaHDU6kjoL4TyF3XiRFKHRGSH4CYyoQl94R8eKdefnMDtATtg1e41uu4ut6AA+3bvQopIxJ4mDX2RkNMKP33sMRw+cBDRSaJZhJhd28fZavSvMNF1cSsxowbYfkza9Z3vfw93SRt2FrRhK8vLUFBQqA4XTnHwkL6udh5Bxw7XETKBMD3WfcTejI2L6/LtsE+Gs4aEBNUP2gT/+Ps/8Pobr6Ohxi6dQkZA6ewc8VQlaQVMyMTg4uC4PgiOF5uR2aL1+s4ThRKh+sBm3R8xryAfy778EpMmTTphebojvElI2BxO/OjRR7F3126EtyF+1xtN0wPSdgMHp+LZZ5/FwIED3Z+eGyAJe1ZPOAEoWaKjo/GLX/4C27Ztw6/+8FvNN2mv46abcshoywb3BU1PKCR0lOSg5tBWWI/t0b0ISc7OguXyZwypvDYhCLtFYhv2Sk/HCbUMeUY9xOby9bzq+pd2sYjKmjp0CP741FPnHAENnDUk9ARVm6/ceSeWLv8SS5YswVfvv1/0pwAZycU2EfujdTKKyiRkrK0qQ83R7bCk7RYylkon4iQ/O1IHyCMdNTDMpeKEx0Rg08aNZw0Jw80mTQlogM/VJN3kqK+t07nFhvqWAd4cEKkG3nXP3boH4OLFizFu/Hj3p+cezhp19GTghPM777yDP/3pTyjLK0JEVAQCg0++DzvVSQZiB0X3ElW1FwJCjWBeVltb1FU/1FYUCaF3oq7RT93eO/fs6bJMXacLhfl5sEodepKJDqbHfvqYBkYzSa61qgYWu03n2ZgJ+8KLpqNPSh9s2rAJSxYtRqjJ5eTgSvUx48bihef/i6TkE0/wn+04q9TRk4GhTF/96lexZcsW/Pv5/8AkJCzOK9TszieSTJSOTEbkLM5C9b4NqD64WTcBpfNBP6fT4URqGZpD5ejMyMjO1qDis0UamiMi4S/PRdXypjtuw0uvvozPFn+OZ/7zNO6+607MveQSjBw5QjN2e4LxnJHRrc/rnks4Z0hogB6xG268UZe4/PfVlxCVEIf87FzYLcen028BISODsRscNthzj6B6/0ZU7l6NmvRdsBdmuzO8+SlpPQ9//yAERjTvu09w/4XWVOLuCnoTfQ02sTHRmpeTESlDUgdhzKiRGqXCSBYeVP8TkxLRu08ffW2A17d3LvBsxTlHQgOUjFdfc42SkVs2J6Qka+CwraYNG0lS+nGSX6QZbUZbzkH1gFbuXIGq/Rs0QsZecEy32OZRV92cXyYcQdgr6mhPI2FrCApm+FmjLtdqFJJ6S3i+jxBpyVyfGpLmBgnJKYPzOIdJSHA0pm02b948LFu2DG9/+J6uL8vNyUV5ZUXbiCIdzy9AbEvGQsprSsq66nIhYQYsR3foYT22W0lLSRIeF4WtohJ7SoWeCtYPbZpAr5QV3mDqweiIqOOmOM7DhXOahAZoq9Gjyn3S3xQifr50se7sanc6UFxcorGI7QKlAQ9RR5sON0yiqn301ntNW231FISGhfuMRDKZzFp/MqrAVwJgDjZUO8PEBnd6rKjnotuzcRfjjuA8CT3A9YgctadccAF+9/sn8fHChXjsl79Ar5Q+yMrN0VXedEB0BpSG5fYaFBW2vutsd0Rrzqcgd7ifw2FvVbpzEW1yfKIo4s3djdubcQXDeZwnoU8YZBw5ciTu/eq9eO311/DhRx/hoW99E7EJ8cjOy0VhcTEsNTXHbcvWFtBqOnI07axQSamCE/YaUcM9bD5PUO3vP6g/ho4Yps/MIOmG2rqzLg1kR3GehCcA1SxOKnOzkZkzZ+KRRx7BW2+/raFnf/nrX3Dzbbein3zGZEM5+Xk+j9yCfCWrJ6LDI7F3716dtO7pMJlCNf2ho7EOtQyE9gE6Z5iOnusBOWixXq0iCZmQ6TxkHDtXJuu7EhzNadPwIMFqaiyadr1CyMjOxczRRGBgAGKio7FyxSp89MEHTSn7ufyKESIvvfKykrwngKpzfk52i+xkJNOKVavwv+dfws49u/Doo4/ilptvcn/aDErCwsIivPryq1oPzFjGFe1Tpk3Dm2++6b7q3MQ5NVnflWCn4l7mSUlJGJSaijFjx+DC6dNx2WWXYcGCBbjl1lv1uPGmmzH3sstxzbVXo7yqyv1tV6TJug3rdUFyT5m014BzH3YhVXduZU0wSRMXw3qDBA6PCEdsYjycbmlZV1evm4OebflYO4LzJOwC0GlBqcA0DJx/pD3Jg1KO0m+42JZMq2CA11eLBM3JyenxdiGfxXDacDUED29woGFawwRRSUONHDHwg7PGiqyzLDN5R3CehKcY7KCRkVG48cYbYRW11QATyu7ZvVujSnoyQkM4T8gJe8Am6nlrz0NJmpSUiP4D+uuqFk1DUevEgf373VecuzhPwtMAqp+XX345yj0jZ8xmrFm9ukeRkGq4IfUMeJ5TR1NDo8+1kpSGkWIf9+rdW69jmkImWtqwaq37inMX50l4GkBJMXnyZE1ya4CrDlYJCX2lYe+u8EVCPltjXQMC6hp1ioLpBL2vIVQllYGHjiquMeQ1DIbIzs9tcmSdqzhPwtMASgYGMI8ZPbrJBuQ55sahTdRTpipCdL/FllEzdMyQcn4NIgmdXDzdejADM6XTNjRSJ9J6rLFaznnnzHkSnibQFX3V/PmoLq9y9T5BuMmsK+17ijRkyns//5ZSjoMJpVqASPa6xoYTDighYj+GCAmdbieVfBP1jloUnuPha+dJeJpAVW7u3EtRw92i3CwMM4dh7eo1mnm6p4L5OhsChJhy0L5tLSaW6iilJqcq6t3PHxDgr6ppUWGhvj9XcZ6EpwmUGCNHjkJYpGvXWYIdeM26taiorOgR84V0MDE1vSeCg4KFTf7MMKoSvbYVdZTP5y9SNMgjHQbrpFH4W15W7j5zbuI8CU8TqLKFR0bi4lmzNHTL1Sn9dUOb9LS0HuElpRPGUx01BhM+GwnG4PbWJKHrGq/uJucIOnPOZZwn4WkEO+GNt9wsKmnzwmGz2EnMmcpcmT0BfAYSiiAJuR5T5wnlPAcXOp54DdVvHvyM5MzOzcW6deuxa+dOmMQ+Vrilf7DYk+cyzpPwNIKdl4HgdrckJCIjIrD8i2UawtYTEBjQvA0ZYTabdFUEJaRVBpfSslJNCpyZlY09+/Zj2bLlePW113U/wdflL3OUhpnM+l0NcZPv0XN8LuN8APcZwMwZM1BcUCCSwhVpwnWKixYvwrgJE1R6dGeUFhehuqqqSRWl1PvRj3+C9evWoVdSLwwcNBDRkVGqlpKU9HxyN2Wmsgh1S01+h4OQxWrVpL+vvfoqUvr21fudazgfwH2GcPNNN0kHtDV1ZOZe4a6yXOja3REY5Nq9yABfM142JDgENSLNN2/arLlEV61YiR3bt+vmrUwSRYmvjh03AWkDR8fG4Oqrrz5nCWjgPAnPAJhGw+Z0NE1VMIRt0+bNmo+zu4PpORhyZoCqaWJCohKRr5kOn5nQzRFhCPaQfAQ3fqFEZKRMn5QU3HHHHbj33nv1s3MZ50l4BjBk6FD01qS3LtvKHBGO1avXoKysrMlW7K4wpJknEhLilISeZedrTtzr+sqaaj2Yn3TY8OG4Yt48PPTNh/DgQw8iLi7O/Y1zF+dJeAZAO+CyuXM1WoST1bQDj6anISMjo0dMVXCu0HDOkGxctkXnjJHoiedI1OjYWAyVAWfK1Km4ZO6luOnWW/CDH/0ITzzxBG4TKchdd8/jPAnPGK5aMB9MjsQNKgnuq7h969Ye4SXlIl5PDylJyKkK7h9P0Malinrdddfi0Z/+BH/64x/x9L//jccffxyXChnPS7+WOE/CM4SJEyYiPLZZEkRHRGLFihWqknZXaFoPsVupZnqqntHRMWr/GY4mbtA5oH9/Ta58idi/zD4QFh6hn53H8ThPwjMEqmozLpqBRu5YJJ2X4Vxbtm1DdnZ2p9MqdjVIPi7Y5ZKj4qJCfW2QkH8p2QKCAuH0CFnjeU+inkfrOE/CM4ibb7lJVLfaJgkSFBCo2bm52Wl3gJLPJuSrqkRRQT7KS0tQ7xVixmuYOJkHA7IJ2owawtbNBpPuivMkPIOYPGkSIuJjdA8HIjIsHBvXb9Q9DNPT0jV7Gx01p1uiMF095yw5KV+Yl4fyEiGfkM0TtAl50AFjCg1BYly8RsKwrIEhQbCJvcstqs/j5Ah47LHHfuV+fR6nGZxzO7j/AI6lpVF/U5U0R9TR9evW48iRI2ofkojcW5ErFAwi6A5JXtMEnQXvzcW2XAXBqJiK8nJRO137ERqEM0jHc9z73Wqza/m4MPnAgYMaGUPpxyGF6waZ1nH48OGuHzgPn9Cg+PNha2cWK1eswIP3fh2NAX6a/IggIZx2B6qFBLX1dRg4YCAmTJigGcEHDRqoSXSjY2J0YpwZ3jh3x8ZkIDRD4bzn8VoDf4cT6CQV5/NqKiuaFuXyHA8nV0UIq3gtA7RtQrxKUU/zCwqQcSwTBw4e0O3J6RENk0GFv81ro6Kj8a2HH8bd996j9zsP3+B01XkSnmEwgfCsWbNQXV6hRPIFJaVIwhq5lhnKCGYFHzd2LFJTUzX/aXxCPJISkxAl5OR0AYnJuTuuhjfiUUkQf5FmlGIkH2M3rdXVOk3i2tLatc01c4Jy+oQrO/ILi1Ap0o5TJ7m5+di/by8OHD6kzhmqn0xXQQn+/+2dv0vDQBTH35DU+GuSDFLpP2BHO1TirM52sYJdSnCQmuzFf0hd7WL+g2r/Cgct1MGSCI3g+74meEiiwemG+8BBcynXQvjcu3fcXdBuDqLhFv+fweCKTs+6Wa2hCCOhJlwPh3R3cysCVI1i+K7kbjHLgs20yhuB1zhCNnYaVK9vk+u6cv4phq9YQI2HjhPDF5nMABEPdRAPb0qazd7o5ZlzwflyofYqWbSy7ojQUjCEUqRTQYcRczsnnQ4FQSCdhaEcI6EmPI7HdN7rUcIi1CybReT8q6KMRUCcvGA285Mj21/kQ2GJxixYWVQuAyLj9xLuEPZaLQrDkLwDL7trKMNIqBEXvk8R54fpe0K2w8M763tLkzoxohMiHhf+INc4Bv/w+IguORfcbTalzvA7RkLNwKzk02RC0UNE96MRvU6ny+GgXZOHVTRUZTVl4kTlv7JCKpWf1zloH/fSRUrzj1j2guy32+T3++RxfruxaVbHVMVxHPoCznJBbh1EKsUAAAAASUVORK5CYII=;" vertex="1" parent="14">
          <mxGeometry x="215" y="45.00000000000003" width="100.75" height="120" as="geometry" />
        </mxCell>
        <mxCell id="dhkKI3xnQHwTl-i7RLE7-1004" value="" style="shape=image;verticalLabelPosition=bottom;labelBackgroundColor=default;verticalAlign=top;aspect=fixed;imageAspect=0;image=data:image/png,iVBORw0KGgoAAAANSUhEUgAAAXAAAADVCAYAAABOv6vWAAAAAXNSR0IArs4c6QAAAARnQU1BAACxjwv8YQUAAAAJcEhZcwAADsMAAA7DAcdvqGQAAD9LSURBVHhe7d0HsCxF9cfx8W8Wc1ZURARBVAQBSU+yCCKIgJgtBQOGMpSplFJUtKTKUKZnKEVFlKAkQfIDBAkSRRBBQEUUEVQwZ/37ae55DuPuvnv37r27M3u+VV27d3fvTE9P969Pnz7dc7s///nP/66SJEmS1vF/M69JkiRJy0gBT5IkaSkp4EmSJC0lBTxJkqSlpIAnSZK0lBTwJEmSlpICniRJ0lJSwJMkSVpKCniSJElLSQFPkiRpKSngSZIkLSUFPEmSpKWkgCdJkrSUFPAkSZKWkgKedJJ///vfJQXe/+tf/yqp/nmStJkU8KTzhHj/4x//SAFPOkU+0CFpHQQ4RLjX+/rfINr//Oc/i4Df4Q53qG5/+9tX//d/t9out7vd7Za/Rur3d5JMGingSWsgxH//+9+rP/3pT9Xvfve7kn7zm99Uv//976u//vWv1c0331zdcsst5fUvf/lL9be//a2ItuT//H2nO92puvOd71zd5S53KaJ8xzvesby///3vX93rXveq7nGPe1R3vetdy/v73e9+1b3vfe/q7ne/e3W3u93tNoLeJDqOQb9JklGTAp6MlRC9Jj4nzH/4wx+q3/72t0WsCfOvf/3r8t7nXn3nPcH2NwH3mb+JNvFmfYcLhQUuEXLnDQG/733vW93znvesVlpppSLg3t/nPvcpQi4R8kj+DlH3+8hvv2tJQU8WihTwZGwQPMIa7owQQYJLfH/yk59U11xzTXXllVdWV111VXm94oorqv/U2fL9YkGoWehrrrlmSWuttVb1yEc+snrEIx5RrbzyysUlQ6RdR1xDEJ8nyUKQAp6MFWLHMmY5X3fdddW1115b/eAHP6i++93vVn/84x+LdR0pLHK/r4vkQkOguV1Y3Sxzryxv1viDHvSgau21164e85jHFEF/4AMfWNwwdas7LfBkoUgBT8YCPzZXx0033VREm3j/7Gc/q376058Wa/t73/vezC8nlxD1xz72sdWjH/3o6mEPe1i1yiqrVA9/+MOrhzzkIcVqJ/TcNUmyEKSAJ4tGWM1cJMT6sssuq84555zqhBNOKKK9mG6RheKhD31otc4661Rbb711teGGG1arrbZa8Zlzo6QlnoyaFPBk5NT9wERL8vf1119f/fCHP6wuvvjiYmGzvEWR3HDDDcU1wh/ediKChSvFxCgB32ijjarHP/7xxW/OBRPlIUX5JMkwpIAnI6cu4ISZm4RrxCQkq5t/2+Qkv3dXCZHmI19vvfWqxz3ucWXyk6+ce4X/nAsmBTyZDyngyYLBoibap59+evX1r3+9RJCwuLsOQTbxyVUUHRn4x7fZZptq++23r570pCcVcU/xTuZDCngyUgiWeGw+7XPPPbc6//zzi4jzeYsisZhmGggLvI4JTa6VBz/4wcUi32KLLaonPOEJZfJTLHqd+N8U+GQQKeDJ0NRFJoSbP5ub5MILLywCzuq2ACe5LSY7N9544+JeIeIiWSwc4kNHzAdkDHkyiBTwZGjqIuO9+G0RJQcffHB1+eWXl++aVmjyX3R8FgmJVtl7772LW4WwIwU8mQ0p4MnQEGdL1lnYJ554YnX22WdXl1xySZmwZI2H+PhdCFJyK8RbUkaiVcSRb7bZZiWxzLlUYoVnkvQjBTyZNYQ4BMV7+5JcffXV1UUXXVQdf/zxJTRQxEn8LgW8P1E+yiXKi198gw02qLbccsvynm889loJUtCTOingyawIESY6RESExbe//e3qiCOOqA444IDbDPmb0RfJYJQna1uZCS3kC3/Na15T7bjjjtWjHvWo8psozyj/JEEKeDJriIhkAY4VlCeddFJ1wQUXlJjugLikeM+NEHAdH4G29H6NNdaoNtlkk2rnnXcu8eOW5SvXFPCkTgp4MitY2DaR4jKJ5e/E+5e//GX5PkV7eELAw50SZWnlpphxy/Kf+MQnlrjx9IsndVLAk1lhnxITk0uXLq2OO+64EipYJ90mwxMCDmWoLOFze5ezwnfZZZdqhx12WL56M0mQAp4MhKD8p46U/UuOOuqoEmnCZWInwbqQxPvwhSdzo16WypyrBMrT7oYscJa4Cc7VV1+9/D46zBT06SUFPOkLS9CjyiLK5NBDDy1L4Ql6k7rgJPOnWZ4e7yYyZffdd68233zzatVVVy3CHSmZTlLAk76I8RYW+K53vas6+eSTi3inQI8HIs3NYmfDnXbaqdprr72WP9czmV5uv88+++w78z5JCuE2sY/J5z73ueI2ufHGG8skZjI+dJ4ehGGHRyMj29ayzJPp5dZxWjL1hD/VqwlLy+JPOeWU4vf2tJy2PWyhq66FX/3qV2U73iOPPLLsNWOTsPqoKO5jMh2kgCel0RMBr/zerDzbvx599NFltSXxbpsYdlXAwZVlEZXO9dRTT10+Mqrfx2Q6SBdKUohG74k5VlfyeXsqfGz/2nZRsMvfAx7wgLLKUSieTgpEPiYM20B0TDpaD302T2G5fTxwucsdV/K/pIAnBZabCcuzzjqr7CZIyO3fTdzabtVZju6RZnb7W3PNNauVV165CB5Yr22KYXc/CLT8xlP6dbL2GddBWcWZAj49ZBRKUuAmsbqS9X344YffRtDaJHBNiNkb3vCGErlBvEH4PJ/z85//fHlakN0T20IIuHsCkSl3vOMdq9e97nUlxNA1xqKgpPukBT6lEOQQZYtyPDVHnDffKh9rfNdm69sCGEvRbQrloQmiNrhPhN95z62i47KLYpuo3w/vjSJ0SiJTPHOTFU7E43dpkXeXnMScQuoCoPHbnIr1LVyQ3xt+02bxJloE/FnPelZZAMP37TOJiHuosJhqe2/bKMpn8X+TjPvR657ohJYtW1b2pzHxjLbeu2T2pIBPISECxMpknkZvj5MQ7y5gDxHPnlyyZEkR6F54kMJqq61Wrb/++ssFnuU66SLeD+GeBx10UHkeaTIdpIBPIQRKYn3bWVA88S233LI8XDD8rG3Gsyaf/OQnl8lKPuJeuE6PMNtuu+2K2OvUjDraRP1+2WzMnjXf+c53Shx/dNRS0k1SwKcQjZ1YG2rzeVsYUp+obLt4g1Ut6oQlPuh6rGT0GLNVVlmlPJ+yjW4j1yfxgf/85z8vrjAdsxDDtkcQJYNJAZ9SWNzf//73i/VtAjPQ2NscdQJi5iEInvS+Iu5xj3uUhydID3nIQ2Y+bQ9xv8ASxxlnnFG2/DUZbZQVnyfdI+/sFKJRi/P+2te+ViYwWeNthmCHG4EI2zfblqsR6z0I/8fFwuWy7rrrlmO0EUIe7h+Wt/t67LHHtipEMpk7KeBThkbOdcL6FrUQEQttJ4Q3BPwRj3hEX993L1jr66yzzvKnwbcNAl4fNXlSEivchCZBb/OIKulPCviUYbjtaTqXXHJJdcMNN5TG3XbCjeBVxInQQBEmc8HqTCs2rWaMkMI2c/PNNxdfuI6amKeAd5MU8I6j4cbQ2qttYs8888wSOsiVwnJtq9ugiUUsrGiRJRbp9CLKQ/I+/mZ5m8jcdttty7Mn244Ozb2+9NJLyyS1ex3EtSftJwV8StBgxXzbflSoGR940AUBdw32O+HLtsqyn/skRLspYHzh3C8RUtgVLr/88rKvu5WaRLx+/c0ySNpHCnjHIWwxwcdlYljtNXYZDGu07bg+1jcRnwv18uF2ETveb+FPG7n66qvLI/F+/OMfl42vghTwbpACPiWwvkQmnHTSSZ3zibK411577RJ5Yle+XuiwhNURNJEZBFtSDtGJsdotsRdD7iHCbSY6JhFG7re4cK/xeXRaSbtJAZ8CiJS9oy2VP++880oMeJsJ8Q0sxjFxyYctrrsXrp8Vyp1glSIBC8IadUwbQcUioLYLXOTfU3zEhnOf1ec92n59SQr4VMC6tEKP5akxh/ukrTTFh896RZOPwiUtMfd0fYuXmiOQsEphUY8J0TYLnOuLyBwjj9NOO62MPnRkzWtP2ksKeIfRUKMhm8wycRmNus3EdYH7hOXN/+29z3VY9WvkRjD68BzJCy+8sPrRj35U3EnEjEg33Ql84Y9+9KOLP7wLDw1mdbtW1yx1Yc4juZUU8A4TYibWWzhZl3apC4G2YIe1bOtYe5n0wiZP11xzTdn3hZAbjYiDtw86mpa24zzykY+stt56605FpCgD2yboxJNukALeYViWrE8+b/tFG0J3gbrVzEreYIMNZr657XcB4WJ1BybzPHHfaz+4Y7oSEx7w/QshrceEJ+0mBbzjiP8lYPygdqvrAqxvuwx6iK9Nq0SfBDHqqCeixeIO+MM9+5M1rnyaOAYr3F7hjl3f5KpXB9EWdFgmcrtUF6adFPCOY0k1y6seA9x2QmC5Ofiq+7k5jD64SYw+zAEEXCrKxJxALyvc8UWj8H/bI8WkZl2w2yje8uy6XS8XUjyVP2k3KeAdR9SJpdTh7+0KrGLPu7SHCWs8CAtZIljEm9WpI2tiTxiJYPdjww03LClE22/bNhEcZeLVZCZXWtfqw7SSAt5h+Dq5C1ifXbLAYdOppzzlKWXhTohrk5tuuqlMXLI6w+/rt/F7HZu4cHuGhChzudR/Y5LUk951FP0mSScd1xUdjnqgPvTq0JL2kQLeUTRY0SdEjAVKpLqCcEHCGqGDveA++cUvflE27lIGQV2cWaIs8Ouvv355+YTQxW+szOSqiafatxUdk2vj8+c+4gePa03aSwp4R9E4uRBY4F5ZmIbRbYewWiUp+oSg9tu0ynUTaHHfdWszJjaDG2+8sfrWt751G5Gvo8zsbshd47Xt8H0rFwKuk0vaTQp4RyDYdYuKSPF/Ey/ug7DA2g4BZw1L8eCFuK4oA4lIiXnmMtB5hUXdhHvF/jCWmUcn1/ytJ9YLVTRZOpeHREwiok90WgTcqKMLdWKaSQHvECFe8Z6Aa6jxd9sbq8gQLo3YuArNa9ZR6bAsXPIwAxDkfgKufIQU1ldmNvFoNpEoq666avG99ztWG1A2JjB17EZmba8T004KeEcgKnXrkZBxC4SAdwHiuWTJkvLknNi0yjWHa8grgSJM9j2xjSqUhdQkfk/QhBSKC+8laH6n89h0002rTTbZpNUCHljcpW70KpekPaSAdxRCRMC7FG1gVeRWW21VQgjroYN1uEyIsQnMFUXe1C124Yb1xT51onO0aIj13zYBb3buIOBGaPUOy/teHVgyuaSAdxTCFD7wLuCRZ0L5WMCDnndp8lJo4Gyuuy5Y3C1E3CQfX3gv7LfCdWOBT9uem0m8mwKujMICT/FuJyngHURDZFWarCJobYfw2HGQ9Wt5O590L4iRVYbHHHNMCQ2cC8rKlgM2/Kovr3fMEDmdCPfNTjvtVDqTtqA+xDWwxKGjqvvAe1npyeSTAt5BNFYCHiGEbYeoiDrxlBwPK47okyZGHDatuuKKK+a8cMke6cT/9NNPL2KOpkVK4Lhx7FLYtk2uXEskmLBVRs1rTNpFCngH0SgJuEba9j0viDXLl3jbl6QfrtkDK1jQhDw2ayL+s7UqhRQuW7asCLkYaR1hU+AipPBhD3tY61Zmupa4HuKdUSjtJwU8mWhWWmmlshKS62JFe3PzY9c3rQq3QKQVwSfMf64TEKER/+c4IeZ836Jh1l133dKhzLZzmDR07ing7ScFvIMQGy6B8Hu2GWK52WablaXzgyxeQkToPZXeAx4izDAEajZCG7sXcsOw5gPHiOQ4Qgq5dCzlb6uAs8D5+qN8knaSAt5BuE/sg9J2ASeOrO54Mk4/33eIK6v4aU97Wgk1NNlpv/CwnOciVMIQ7RciGiX+H/XjCCnUWRgh9AtpnGSswmSFz6VckskjBbyDEB0+4LYLOMFmga+33npl3xPXUxfUJix0VvFrX/va6mUve1nZrRDxf7PlnHPOKZtgETj/V3fDSLj//e9f9iIn4m3c5EonX98LRZkOKttkMkkB7yAsV+LX1uE95J2Vy1VBxPme6+LifSTENbO6LXkn3rvuumv1ohe9qGwHK3pltoiR5kJhhXMzOHakgBvF5labb755Kx+7Vi+7oPl3MvmkgHcQViKBqQtO25D3eJgC8XZNPvNKaMKqDqsxvg9Yx9wpr3vd66ott9yy+MfFj8/W3WESkyXeb5dC2It8iy22KELeRjdKkzbXl2klBbyDELOuWOCsZ7gmKQgxb34eEPZ47Bp3CrfKxhtvXFZRzoYbbrihOvHEE8uCIMfqhYlSIwQWv/DCtpd3pKQ9pIB3EI2wzQJODE1IsqJ7CW79uvj6mw/oDVeAMuA6MaHJpfL85z+/2nHHHYvoDsLx+b+5UKzO7GeF21qWy4YfvG0hhfLe3Bq3rfVlmkkB7yAaIqu0rQ3SZlXbbrttCR20iKeJ6yLSIm2uu+66kvo9Fs17Qs5K3mOPPYqIO7ZzcKn4romyE4ZpRaZVncIKo1OoE+VskZGJ1jZ1mtxSRihtyW/SmxTwjhDC1Uto2oZJQb5lPuZ+iGNmHX/0ox+tPvzhD5edBMVwh6h6jffxt/JhKT/3uc+t9t9//zIBydofhONefPHFA8vVIiOx5wQxRHzSxdy+6jYFm+Q8Jivm9vvss8++M++TDkCsCBXr9Nhjjy3Pw2wLxES8tx0Hd9lll+WTjr1ExhN0TjvttOq4444rcdtWFbLATd5yu/QTJhY937XziOF2Dv+nvCQoQxBtoXbEziPciLL8+DyO773PdCgiV0StcL84xiR3pkY3XEkbbbTR8gnYFPP2kQLeETS+uqjwC59wwgnlIQX9tkedNIgeVwTrm8863BtNYXE9ls0fdNBBxQon5p4wz43Cr2vbV8cKEQ0hjb8JFhH3lB1C5jPWu06A66RejoTZb7lJvOoAwkUD7x0vRj86THuq+D7OO4mYFxAz7/mi/co5mXzShdJBCBVL1JanbYpRJiCswsc97nEzn/TGLov2K6nv+00s/X3ggQdW++23X3kaD0EPIXfsEN5473NRKi94wQtKlIptYn3nWHXxNYl5yimnlIdE+D6OV8fCHi4Zlr3/jXP57SRi8ZGRReRxUvOZDCYt8I7CSvWAAsN6FuEkEuJB8Fi2FuzstttuJfabeyN+UxdLv2V9WynpafL10QXBZkWbfPTKJRJPro+IC8cKgXZuk3n84CForGzUXSrEmIWuY2Gxh8shcEyfybPNtIQg+n1851yTQL0sRfkY7Yj0CQs8aR/Z7XYQjZQ41QVpUpFP+RWOJ+abW8PkZd1aDgghwb7ssstKiF8v+J+5Mb74xS9Wn/70p8tiHNvDEuPoLEJQ68c3WhGdsu+++1Y777xzyYs8EX6Les4999xy3PrDHvxv5D/cMlwtRhFxLtcxKUR+wffv+uL6k3aSAt5RNFTD+kGPH5skrGbcfvvti8unLox1YrdAYhoPLB7ElVdeWX3wgx8sYk7I626N5vF9R4SJ2u677169/vWvr573vOcVizsg4FdfffVAi5qVzrccQjkJuM6wsqNDMeJQNyYpn8ncSRdKRyEyfMVimPs9rHfchIASTqJHMFnC3ClN8QZLmPvkG9/4Rok8GYT/j1huD7VgOZvYdS7hfuYImvgf30eInWiWiEN3nLqVTRB75ZFLhvvm0ksvLeeXxk3ksz760FmKrHE9va4jaQfZ/XYUlhVXxGyXjo+DcDEYznvCjRjtfi4fvyWi3/72t8sTd1YEUQphMhdw+OGHVx/5yEeK35xLpblbY/33XmOfkz333LN6znOeU/LH+r7wwgtLZEp9J786LFtx4fz4k1L2Uc5eXRu3kJGGvMY1J+0kLfCOI1rj1FNPnflrcggXhrTNNttUT33qU5e7HuqiQnQk258KFTzggAPKysuYYJwtfOescCsrRZNw1bDEWdhxjkiIPLCoRZZEuJ3fs84JYEy0NnEu1rpzCXGcJHSQOpgddtihPCQ6XSjtJu9eRyFAGisrkOD0chmMG2JJQEz6hZjUxbuOUD7uIB2SicoVURdjhP+cqOrQvvKVr5TXpk+7/h72UmF9L1mypOyjwu3gWHXrvQkXjAgP8ehGF5NAlK1OS+SJyJuMPmk/KeAdJRqr0Dz7gMxlP+zFgAASlRCUVVZZZeab2+I6pJhA5F/u576YLTqCz372s9VXv/rV6owzzijCzlfdFO+A0MmnJ/3YopZ7ZVCHSLRXX331slgmJmXHSZQh5E2kj04maT8p4B2H2HiK+iQ2WJYtq9aQnkD2g9hzn/BlDwsBI8RSuA1i4c+73/3uEqXCxdJrFEDYw4csnxb/eO1lhcdvIdZ6/fXXX36+cVHPv1GZEU9bopOSwaSAdxwN1XanfLaThh0B+b8HPRCBr5v7xAIZy+bnAwGTApOhYsptOXDooYeWfVVsPVB30dR/T9hNABJBr02hD+JzG1xNyjazcR389kY8k1gfkrmTAt5xWN6ExNB53JZgHYIdG1cNsgZFfAgZ5Puez4pSAsYKjRQIMbRa9Utf+lK1dOnS6qyzzioPcQiXSiRl10y9hNln8Tm3ELFkrU+CvznCII18+k3AJu0iBbzjEG4+cBNqk+JGIXBWOhrKc/GwZsNCbGJZ+rJlywY+2mxU8LF/7GMfK24V4YpCDeVrWAuan9xCIG4iojluLDLiThNJkxOY3SAFvOMQEcItyoOQj5OwTlmv3DoExeRqP/cJK1gYnonGhRRw+YHJTAtwTj755Oroo4+uvvnNb5YJz7mGLAaOa5TBTcRdNG6MxHSa6sSwnVIyWaSAdxwNlYUrrG1Fu/wtNASN5Sc/JviIOELYm3Cf8ElbOm8V5kIQHUr9/Fau8olbhm/TLKMAnUnd9TJbuIc23XTTIuTjsnpdm3Nz5xj5pPXdHVLApwANVlhbPVQvGnUv4VwoCCDfqzA2IXbcJ03qfmfL5sVtLyTOY+GN14Cgs7qFLtoQ60Mf+lAR8vooIPIYeO/66p/BQiChnCxfD2kOa3+hqd/fiJwxAovthZv5TNpJCvgUoBETEY24HrK32I3Y+Yj2ZpttVnzykY8mhJD/+YILLijhgwtNr3KIhT9cKvYC/9rXvlZeRcPEMnz/F6kfRJSbiHhzYSxmhxn5smReOCN/vA408jAo30k7SAGfAupWWER9aLy9LMaFRD5M5tlIiUuhF37DIuY+me2ug6NGuUjBtddeW6JULOM//vjjy0MkYoIzfut90xVTx4iD+2KxLPDIG+xKaV8XG4U5v+T7xbz3ycKQAt5xoiF71YBNqGnQiw1hE3tMwFmjg5aY33LLLWXRDr+3PVAmBXuQH3bYYdVb3/rWMtFpcy3XNUi4A7Hurp1LZbFEHDpu52WBG4Ul3SIFfIpgedswij98sUWcwDmvhS2EhJD1QkdDGMVjW2gzSVYiy5tP/qSTTqqOOOKIsvCHqFveHwIuv5EC78Vfi0QxDzGo8xo1/N4mi7ms6rHf8ruiTieZfFLAO45GGhYi4eBGsbOeiITFhC/YFqvOLYytnxVqtGC7V/7mSXwUnGgUIwSW+Cc/+cny5H8LgYwUQrjrbpX4W+RNTGYuVjy+ey76yJwDS7xe5ing3SAFfMoQc73RRhuVML7FwjkJCB/woI6D2LG+57Lr4DjR0Qg3FKly5JFHFmEn5IRSCgH33opPKzyFKPrdQqOTtBMl69uoRweadI8U8CmDmBBRlmAssV9oDN25DligLFHRHdwONo9qJqGDIj24K1i7k4xr4FI57bTTygMjDjnkkOK7l3fCDYKuIxLNct5555WFSYvRMdkuVvy5+QblntZ2N8kHOkwRYRGyhr2KdSYoC20RijgxlBf/HQIuyoSQ1cWbINpYyjJ2D12YdIgiyzZ84yeeeGLxdbte8w1cJyxvriDiLoLFdfl8IZEvnfMrX/nK0lELI3TOdJt0j9v9+c9/zliiKYJwa8Sel8nSfec731nC9RYSHQZBM4kXFr+RQFNM5E2HQvAWw80wClyDfAdGN7H3jD1H/tO+yjVZFMQ9pNMK//gocH5lCcd0bOf3hP03vvGNJe5eHHrc96RbpIBPIRpzPGJs//33L5bhih4SnMwe/meWOAHnBopoGgIagi+NAsczCohjEvBnPOMZ1a677lrtsssuZcQTv0u6R/rApxANndVGZJ797GdX2223XTbwEUK0jXBMclp+H2IdAht/j5I4rvu68cYbl4U7Jo99thDnSyaDFPApJCxByXDb6kxD7lzo0T6Ic+zlYqKY39tzO/m9Efc56SYp4FNINGivYpLtUugp5WLEDfvju/rv4n0yeRBvna9FWjvttFNZMFVfKJX3rrukgE8pGnVMJBLu3XbbrewZHotM6pOM9ffJZCLWm9tEjH+EDeZ96z4p4EmZBBOr/cxnPrO4UsCnivoEWTIZ1MVZhE9EnYTfO5keUsCTIgQiJyxz33LLLYsVxxIP0U4Bnxzcq0iwp83WW29dJi7teEjYk+kh73ayXKAtvWbFvfnNby7xzD5rPuwgGS8h3nFfuL9e/vKXl3kM1vdCRbkkk0kKeFIEIYbkLG+r93bfffdq8803L9/7Li27yYA4h3tLrDfx9qAGk8++i/uYTAfZKpNCNHqr9qyYZIk/9alPLWIuXjyZDIh07HNiwY5O1j7rFuy4hyne00UKePI/mLiM0MIXvvCF5YEAYfUl40eY4Dve8Y4yX8HtFcKd4j19pIAnfWGJe4IPd4rFPsn4Eee91157lbDBHBkluRth0heLQWxCJcSQVe4RZ3Yw9DzIOmn5jZZe5ek+iBLaY489qq222qo8Xd6kZVre001uZpWsEO4Tu+nZ5vVTn/pUeShBQDyIe0arjIZ+5cnnvd9++xX3CR94TlgmSAFPZoX9u23zumzZsrJntx0Mg7oVmL7y4YlIH+IsmVAW522zMa4sj0bjNhGz7/sU7yQFPJk1rMLrrruuPIHm4IMPLla5Xffsed0Un2RuNDtBVnY8v9Q2B165slK0kzop4MmsIMphXXtyzrXXXlstXbq0Ov3004uog7ikO2Xu9Co3q2Gf/vSnlyggsfnCBH2XbpOkTgp4MmsICPH4+9//Xh4Vxhd+9tlnF7fKD37wgzLJGb9L+hOjlbq7KURZyKYY/CVLlpTH0PF5R4x3lH+SBCngydAQck/y4VI588wzq8suu6z6yU9+UoQmRDwEJ0X9v7C2weIGgebvtqJy/fXXL0/SsYDKszWTZBAp4Mm8IEJCCz1N/sgjjyxRKoQ9rEtiRbxzcvO/NAXcwxc8jEF8t42pWOFCBMNST5J+pIAnQxOWtuRJ8z/60Y+q888/v7rooouq7373u8UiTwv8f6mXicgSOwlyl9iPfeWVVy77mvhNukuSFZECngxN04fLovxPfSp+cS4VSejhzTffXCY++9FFka+Lb/O6LH/30AUhgvYz4fO2sjIsc79PAU9mQwp4MlKITzzUV5jhUUcdVZ1xxhnV9773vZlf/C9dc7MQ3roYh6skENNtozCv/Nxiu/0+BTuZKyngyYJAxC3+4Va58sorq8svv7yIuEnPn/70pzO/upWmT7gLNOPi11prreIiYWnbKMx+6yYtbVeQ4p0MSwp4MnIIVh3uk+uvv764Vi688MLiGxdyKHGv9AqrazNhgXOVSOK4PSlebLcoE4t0RJ2EuCMnLJNhSAFPRg4hboq4z1jlRNsiIAuAvvWtb5X9VbqGCBICzU1iy1eTlHzed7/73csy+HqH5X1a38mwpIAnI6cp3giRCtfKz372s+Ijv+qqq6qf//znJX7c+xtuuKH64x//WH47LuRVmsuIgFXNLWL5u5BAoYD+9v6hD33ocldJHeWU4p3MhxTwZGzU/eRWcgo9vOaaa0rkyn/qZXG9+P73v//9zH8sDoNcOgSXEJt4FL/taTjEWfifUEC+7hDusLZTpJOFIgU8GRsE0sSlV4t/JBa4Sc6rr766LNWXBkWwLDbhHuHLtsEU0WZtP/CBDyy+bqLtN1L6t5OFJgU8GQvELVLdSrXHCqubr/zGG28s1rgJUJ9ZLCT53PfeE3zfjTKCxa5/LGt+a68epkCgWdxEWvK0IiGAHqzAGifqRBuuRQoBTws8WShSwJOxUHdPhOD1gjCzzG+55ZYSW37TTTeV3Q8Ju/d85z7njgmL/h//+MfyzqEXcb7oOLhEvA9LmT+beLOsRZEQ6oc//OHLo0p836R5vrS6k8UgBTyZeAhj3d1CoOM9i52/XCLi/OWs8/hNLwg2a5nvmuXM4rZ83We+i79tMkWI4/fxPsU5mRRSwJNWQ6TD6pZY68ScuA+ywIkwUZYINWGWfBdC7n2STDIp4EmSJC0lx4LJ1MJKl5KkraSAJ1MLF0m6SZI2kwKeTC0p4EnbSQFPkiRpKSngSZIkLSUFvEY97Kz5vl9IWhsYV95HVW5xnFEdr8mojjvJeWsz8y2DLpdhCvgMcZN7pYhWWKyIhVGeq34di8moyq15HGmU1zLqfE5i3oZlXOetU7/+YcrW/9TLsWtkHPgMcZMt8IjFIH/961/Laj37YQQLOekVlc15nd8eH3UsLrGntD05ZktclxWKjhlLzu92t7uVPT5crzSK64r8O57XwPkstvH0eudXvtGY4vw2gYrVj81FNHFczHfi0f4pVm/Kgzw5p71N4rzOM+w54n/dPzsputZ+q0F74X/lwUIiK0TVPe8jL8PkqR/yqj7YhiDKV17VLXVMeSzEeeeKfAXeqzfKV9lKsW2CPKpH8i3Fylqf1/PvfRxznNc1KlLAZ4jK4abaIMm2ppZk26zIFqGWV6sQC4k8aESeUmOv7CuuuGLmm1shco961KPKDnhzWSmoknukmV3+NFjnsN3pBhtssLyiq/zzRf6jcRBIgq3jIGaS98RTAwxhcx2SfNgUyivxIiIETPKZa49rnk/Ds22t/VPso6Jc3N8NN9ywdNLOIf/zPYdje+qQsna9s8U9cC/kQ37suSIpCx2uOjiffNVR/jYJ80CN6FCVxxOe8ISyHa7zz6WOLQTuhTokMWbqyZ7xPpf3uGfKT12JuqTuKEtl59Xf8X5UdX7cpIDPoBKo1NJxxx1Xffazny0V3KOwXvCCF5SKzVJbaFRIYuthwF/+8pdnPr0VlfSZz3xm9fa3v325lTSIsHId86CDDqpOPPHE6qKLLiqfbb/99tVb3vKW8mR0gjkqlKPz6QR1QB6hdvHFF1ff//73S34kv5EQAqExRbJ5lOdG2kDKAxJWW221atVVVy2i4v/9ZlhhOeyww8r9Peuss0oePObszW9+cznPXEY2g7AF7uc+97ly3cphtrimSK7RDojq3ROf+MSSHv/4x9/GMp4PrFcPm37Tm960fKSnPF71qleVOqY8CPi4iDrCkNLpKlPlybBhANTrUlAvO4mQG2WuvvrqpSzVJ+XIeFHvu8Dt99lnn31n3k89xNuTYk477bTqmGOOKduW+kxvrRKwhkbReAahUtppj/AtW7asWK1hdbBiCTerUQVkTWBQnnzHsrrgggtKI2AZOqZKvNVWWxWrbkUdwSCioTmPIbkyO/nkk6tvfvOb1amnnlrO66HGdhC0oyAXhuuQJ0ljNOIw2vG9915/9atfFUvZ/WDR2hnQDoFwrmHvg/wQAkk56Cw89sy91eBHgScMEUfXLf/OM5sUIxVlFGWlHJSd9Itf/KLkUUemToZ4DVMW6rUHTB988MFlpBAjJKMRHYXyIILjwHXL2ze+8Y1Slzx6j+GhPJVtbCUc5VVPUXbqUSR10ujT/yk79ciukl0gBXwGjYCYnHfeecsrDDFlqRAm7ga9uIazkDinBnXppZeWvEDeNCYNllXk1TA3fNjxmyY+kzRWwq1RsGDg6ejbbLPNvAUc8hOd3znnnFMdcsgh1fHHH19EUuOBRiPpfIgmC89T2Qmz4a7RjUYV4qTDIloarEZoJKTTiWvqdb2zQbkaGXhgBLiklIPzj0rAWd3qj/wTFLDuY1vaKItm0im7p8TTqEgH51g6Mpaoe+e7eHhEMExZuF+OZzTCFRGdwVOe8pTlo83FFvBobyxuxosRqI5Q3VUO8qiuuH7l1XyVYstf5ei36rZj6gi5s+zjbjTntQukC6WGnvsDH/hAcTWE/5lgqiDvete7qq233roIzkLC/aACc3l8/OMfn/n01kaqAvPjyc973vOekh+NPhpfvwanYzrwwAOLW4ZVjGc961nV+9///lLpw5IfFg2PdWPUovyUo8ZCJAjy2muvXR7wS4CJGDHTsCK/0Un6H24rHYEHH2u8BJDYv/e976222GKLeYsKUTjiiCOqE044ofxtFPK+972vnGNULjLivXTp0uJfdh3gstJRbLLJJqW8pCZRBhI32vnnn1+EjJCrh3y3/n/HHXesXvrSly43JoYpE2V+yimnVK94xStKB+legXvuec973lhcKK7f6PMTn/hEdfjhh5d6pD1E3tSjddddt8wBec6o+6VM5FP78DvXpb7rlNRJxpDEhadclyxZUj396U8vx+gCaYHPYPjI0vn6179exFslAHFUOfTYrEcitJBo2KwFjxELCzysjqicKnVYa6wJyGM/S0zF5j5xXWGBm5jVAYzCAnd8lrfhLtGVRw1LHjUWgrPZZptVj3nMY4owKMuwlCLpSJSvxEp1XXzffOHy6hFm0Vn1u87ZoFx1kGGBO49yGKUFztVBfA3bwwI3guBv56KoW4715DMdnPKJMorRCDEj5EROh6s8lLF7N0x5uGeeRXrsscfexgIncFwoi2mBx7m5ynRYJ510UrlH2oLv3Hcd7Q477FDuFT+2uqGeKK+oN8rQq88IvOQ3RllGrOqSazPy44qcTz2aFBbnDrWA6KUNezUYQ1gVh7VIOLkDCCDxjAq3WBg2c3lo1ARXHs4999ySJw1aRR9XZVQW8qOzkZ9AuWksu+22W7XrrrtW66yzTmlMPjeKIDzEySvh1KBcJ4HXQDXUvfbaq9p7772rXXbZpTTGYLHLfxS4zrhur+pXMxmtEG33maW53XbbFWuY+ISYciUQXiMVwtt2EXIvIzFciLdRi+uSlJU6sccee1S77757GcUwBGIkFxE6yk/bUIYMG2Kuc1YHdZ4mZp/znOcUQ8L/trEO9SIFfAa+1rPPPrtYOiqCSuOmu/kEnOXGF6eS+VsFCAthoVEZDZ1Ntq255prFeuLP9hR3lqSQqnFBvI1e+JavuuqqmU9vtWw1ujXWWKOni4YgrcjCI3YaqVGPhhr/0wXLaTawgs296LwIWWCEox4S8LbjXrqn6hELPOZNon25dp2Zdsi6ng9xrkhdYGoFXAWJSkKAiA83gJlsFcVw17BNb+93rHIuFhXM+zjGYsBSJWAqsWGg8/LnEXH+ehV/sfLSxLBeB6JMjAYC+SXi3D/DNhYNzrWz0BfbHzsJ6MCIuMTCjI7LvVbu6m6XYJioQ64NrlM94lpiWXMZJbdlqgUcKo2JEwJu4ogQ6fU33XTT6klPelLxtWlAGpPJtTPPPLO4W/z/YlmC8qixEm8p8sPdYzLOkLMunouJfLGemmKibCIlw6NcdYDudxB/d8WKhGsxylC366MNaGvKIdps8l+mVsBVGOLCHcL3HZN74LLgh+WTFf+97bbblvd+QzD5H4lWHGOhiYrLnUDA+Ub5502QiY3l3oloh8WGhcxF0rSQRTZwORnRJMPBVcJY4PcWURH1gMDxk883emiSUI/4rrU77S8wEcywMkoOyzz5L1Mr4NCrc0VYlaeSqER830RbuKBhq1fWOMuAlcta53f2utjIH7eEkDzDShWaQBoVCF3TqSy2lcIS5CYx07/yyiuXz3RqOjmLeWJBCzfLNDdAnf1c3EDKy6hQyKMYcPcWJoJjEo+Qd8EqjWsg3KKWRB2Fy8iIWDkceeSRpY7ryIxIZ3PdftOF8hnEVAu4SSBCLORLJeFjM2st4oO1SzD5w8WMqlwaDBES4sQfPg7kx4SmjoZwys93vvOdssKQ1WtEsZgQJZagxR8aHjQ8VqM441iRyRo3ghFix2dvsphVpVOUZ42yy7hGYhSxySYhm0m5qI9cdSKedMxf/epXS9SJjlKdZKEKRWStqq9tF6i6yLomUSbmekTeiMhx3QIMlIPRr4l79YiBYLJTmSk7ZRpJGTNsItigy0x1HLiGEisvVQZCFJEnLByoQBKrW0VROVhDvucjxyjdKEYFzlOPA+eT5zpheank8kO4jR50PPITseJcK6JoouLKG3FcyDhw53AcomzxSjRKSblqdOJ7TQAb6cgzgfd7bgIJ4fscZXk2GVccuGPrrFy3iB0dWjMpH6NBq1gPO+ywElevjvo/99ZCJqF0YrXdbyirYcpLnZiEOPDIu/N7r1PiHjIKZoW7dm2OcaL+MlaUk/Lyt/rEBSq5r8rWvVXu2rPr6DJTK+AqjEqgV/eqQhueaiDEUuVBNBAVKCY7VXiVzMowosNSHxW9BJxrQp6E5PHFa1gEgfVhzxR5J+gsPCLPvRKr07BQAh6NHvKj8Sk3DUd+WNjKSmOSVw2RuBE24iE/Gp4GaXgsKWP/J8/KVd5cR5wrrmlYxiXgyoN1aK7CdfdK8iVxOSkf/6s8jW5ERMUKQsZDiGvUz7kyKQKOyL9X9VbkSSzuivvCmo76oy55NQp2H0VjScpN+bHYHUe7CUOsq0ylgKusrD5hg3xrREMl0Zh32mmn5Xtu1EVDhWANEUyWrwrmdyrZKCeT+gm4RkWcDaPlR8VWkVm3GiBxEJViVKAjIszBQgp4lJGOjJVowU59hBDCTgz87dqUI78u64lou04x+FwGrimEP8o9Okh/S/NhXAJOgAzrjUjUt14pOjnXr34qN/Vs4403LgtQxEPLp/LokoCjfh3y4txCB90TdUC5GLEpT/MDyohRpT4pt3q5uh51kcGjLXSZqRRw4kLs7Dpo5ZcbrsKoLCxdomyIWq9ULCH/E5OFGpffh1sDxBfDNKhgRRZ4CLj8qujyxaoj4D7jQpEfwhQslIBH+UjyoqHpzJw7Fl8YCvPby6ffKHti1gvfa5SsKUNlZeC6jHaU9SgEdlwC7h4KSVXu5i90/s1kwpzwuCfqJKHiQnB/uQbcQ/XO/Y36iXidC5Mi4M5bT66FBW2l8QEHHFAmcbVTedUByjdiMlf9Uq585t5bJu+eKmffK88uM5UCrsKqICIkNIyovISZlcj6CVeABgMiF0M4AssCIEQR9lQXwWEaVDAbAQ+ck5VCkFghrkve/cbvw1JbKAGHa43rdS7HMgTm6jF8VTYalQamQTmvSWL5i2gfv5XXsDw1VGUtEXBWFUFxXfMV2XEJuL1L7PRnNS2XCJHslZSLV/eaqCtL9YGosTJ1cO6zeRFlrX62WcARwq3DMjJjVJn81kZDuNVz5SZ/m2++eZkPMJnPpWTUF+XHrSlZsazdaMPzaY+TztQJOIFUIbhOCKTGoeGqrCqyYT3R4BIgLIRcQyEwBF4ihBqU47A0NSYVrC5mwzIbAQ9rRb7lkV8+ho8S60zHQpxdx0IKeNC8duWl7Ai4EEP5595hlVse7r2GRkD9Rj51npEX5ex+KGduK0KvnOdrUY1LwJ3jaU97Wonhd93Kv5l0bERI2UhEyP1WHyIW3OhE/WR1ssTVu2GYJAGHeu8aifdhhx1WJr25TNQp91x5POMZzyh76+y8884ltFcdV2bKiXGgfXjvVV1R/zDfNjnJLN4dmhCIhAZm4swkCMFww/XuLEI9tgb+hS98ofrMZz5TIlRYhSqYSkGAotEQGYJAQBeLEG+VUgMjfKwRohhw9WgIGv64UW6SPMuv8tUgWZeEwuTc85///PJ0INuIvvrVry4+X/i95P816NNPP7183kYIprQilJPrJT46PqJl618+cJ0izCEceOCBRcz9ts1Ex6+jMxr+8pe/XNpfoJ7o9Dw1ya6WykQdinoRdSuI8psWpkLA3dS4yTHxJ47UkI0AEj+NhJAYlrFgWSfEmw/u0EMPLSKtotUXUnChGOaJYvF+MStOVHyNmhWiA5I3Dd+1ETxWplEC6mWwmMhjoNHJrzLXCFmXfPasaxaozjGsVCLOwox8K38NmxXaz4c+ycy2/KO8zCcYHUW4qs7OZyB25mIYIO7vOO7rKHHNRlrur2viSguM3Ixe1A9loUyUQ71eNYnvvA76XReYGgs8emvDWrG2hmcqAh8j4SDgL3nJS8rwjF9NRVGZDDFZhqw/wkggfc9aJyQ6A5aDhjQbC2u+qJCEMPA+Qhrly+iAr9QkoHwZbWjg8jYOyyTyG6lfgwrB0hHZukA0kAYb4sRtoJG7Byb2ukyznFihXCY+B5eH+8oSN8pqu4DD9XDvNdsQAdeZa3f1MqnXq+bn8Xf9fVeZCgGPG6nh6+Xt4MeS4+fjPjEsiwUwNo3fc889qxe96EVFGCMKgIh70DFrOybhAuIinlkc9rjQwJ/97GeXPIN7xyQtX2zbEDqnM2Kh19Fh6ihFskwT3HxGLU1YqqzxLgi4e1v3xQfmJbo+ETkfpsYC17OzWFjVJvpUGJODrG+Wntl8VmAMWfnbLOoRPQD/xwr3xB4LBhwvlvryOftOhMC4kBeTOmbkXZf8mZDlo3e9/o4h+KSjTE3ORgRQnWnybwZErdd1+6xpsbaZXh2R6+vSNY6aqRFwgi0Kg9hCjy68zeQQsfC3CiSJAzdse9nLXlZcKyIVuCb4xT3F21JnVjmrnch4z+dMKMdlHRpimmS1j7kRgsatw3LNRgdGEgsh4FFmzjcqcXUc+W02XMNllmi4EqaFWLjSFLh+lnkb0Y5Y201L2wjDCHdUdatrTEVLUPENz0w4cqGoJCoLwTM5xHXis0ggdhagiALwQF3LmPkiRaTYOIprQmfguBpYrC7kfx4XGrQJWdcU6Fz48fmPuVVGiUZFZJUJgVmRb9rvQ4Tq7xGdgFcdoT1VNNw6Oin3pCuiNYgoD/ANm5COvwMuwDA+hsE53L/6fahTz8Mg4ne90mwxarRWwCR3+LYhhJRxNKhuzTafXWQqBJxvmtgSb5NgevuIG+V6iKF6vSF4TzBEdrDGbXLFrcK9orLwoQtJ1ABY3c7BP87VMg5UYnmWX24Urh8+ZGJoywANIUYfo8L5lIVOzKjkK1/5StmAicXvvFE+QbN868RxhMZZVi8MUmfod5JRkInjfq6VrqHc+PvVWe45k9JRlgyO2L6XiDfLci40xZvhwhCIY87m2PM5f2DuRqSJdumaAvWBgFvYYy2DTt1ouinY/fLg+rRPZan+M76MSkWj1etmW5kKAY9JRtaoIRkLjqvBRGS9svZChRZWKLzNA2Y9YJeYmFipo1KJSAn/eLNhLAbOKa8iUiKKw/WqsCquEcIoUW7OyTqy3ecHP/jBEj9PxMXZsxyJsDyw0GNpOGH3Kun4NC7RFO6P0M3jjjuuvLpvEXZoC1XzFa4v4qHbRCxMcr3Kol9SFsqLwKhLtuRVHkZ86hXLVHil+mviOhaQjQrniBFV5FWeBiW/cW8l/yNpD3NpAwwpAm5Ng5FutEsGl8l4AQTKQWSV0a66Ua9X9XP7TPK9emX0KQzVwjgL+BgIjtGFyfDb/acRLb7SLDIqAIERfWK1l8qy7777lnA1lUVvrrI0G4LP65VQJdGwNKajjz66Ouqoo2a+udU/qzE997nPrd761rcWK2KYob6Gzuo66KCDqo9//OPlM24RT9Q2AuC374V8yq98qLgq7Nve9rZSWXvBt//+979/3ptxaexGI694xSvKZlQEluXvmBJLUZw314fyYT2GBR0jF41M52LCVXinxukz94PFbWj9yle+siyh5vaaDxaKiO23CyUsJHrf+95X9iepW37zQYz20qVLixtIpwQrHCP8tJ/gxihEmbA8hbzqAI1mCCWUrxHhG97whtJRu3/DQGB1tJ7879hh0TJU1DdtJOrUinA9DB2/jd/LI0HWBvpdL5xD8hsdu2vWroi1+iCfOmz1Rp4kc0/ul7ogDNhImeBD+4mkrRJvo2LHVraEnRGm/nM1jmr17bjotICrTBqDyJFPfvKTpTGpDBrRe97znlJRVYAQ6WZFi8pVh4WiQYklN6zjNmElEE2oHISTla6xzZVeAs4d4gnv/PE6nF5EXgk4YZQfFjHXBkuuiXwScKsi5yPg8utcRNBQV6PR0flceRJuIsNqdB4NOgTcb3QARDvigOEeaZTKUCNznwitvwnFIEFYEQceeGB1+OGHFxcNmgKuDOdzfHBXCTvVeRIkcG0pi0GdhHMTLGLDQhTV5G/oFN17om3i3f1Td0O45opyVwYm6gl41HPnkE+Cqf3E54NQXuqd34aAO67OIOaXBuF/4jfqrtEblxGLWZ0gwuHycP/VI/WWmEed8jn8xjGk2K1QJ+jv4OUvf3n14he/uJTlMEbWJNHpvVDcNGLLMmRtQENlHWi4ETOt8vSqZPF58/toTMQlhmpES2NicVqMQrSG6d1VZpWOy4clp2KyNHr5B+vU86gxyYskXzoExyGMkvciVZSBBjasCAQaLtFx3Gjw3hNqIq0hhSVkMo5LR6dilBBhnf5feRFuYs+/a8TBUuIO0lhdVzT2+v2YC+Hm4g+VR/dLObD0Neb5Hh86IwJktOe6lLn7QEgI+qDEGHD/lZv7ojzcI/ncfvvtywjPykTGgfwPi7YhqkoHT/SibjB43A/loxNx31aU/K75ey4vczHqwIrKMspbck3uvT1NjLxcu/xpZ/KnTNQxfytP51WHCL3ESJMP5cgw0AG6r1GOktXWQm7Vs/mU4STQKQvcjZWiMmgEbqqePCaBuCBsQMWqcwMxl0Yb53AsQzKVlX/ZRCGrhrXMOhrWhRINi7vHEn4QbrvYRadTv8Z+uCZWC6uYNe+4kXeVmjvCviMhXMPiPI7N7UGoNSyv4QbxqiGx8oiYpJygQRJtliT3ijLTWblGjVgnaLisw3St8u58hHw296oXhuf864bn6odJ6b333ruckyhG2c4HozJlzi3EvSS/s4VAERnloX6yNJUJN1SUifIiPHE/53L8wD3gCtx///1LJ4NhjtMPLjUdDgt5mPJUp9SVqEvhSlKn1StGk3qlw1GftUf5j04v6pR7ql4pSymML/ND8jbKax4HnRTwuCluqhvu5scQzE3UEOrCFY12thUtzuP3BIWIs+oIQuzrQZyGqbjyqNHzgZp1h0bMAotJq/o1DkIjYPHqvOQz8i2fjmckorLL67A4nmPHtfqbOGhYGl99ksukpU4v3AJEiIVGsDQmjS38nBqda3Rcx4zXeD9M2YK46tSJgfJRF5SDBq8+DHvcQP4c2+jJ9bvmueRXmYS1SGyUg/vvvfw5fjCfsnDtLFWdmfqAYY/VCwYSw4OgzveY2oQ6RbC1jXqdkuQ/6qDzKSf1SQqrW/lpO9H5jeo6x81UTGL2IgQNIRRzwf86BvzvKHryOGa//MT5RnGuUVEvh2CY8qxTLwcMKpNRMaqyXeh75PjzqbfTykLfl3ExtQIejQDDNoI4xigbkWP2O96g78ZJvSwxijzWr3UxrjuuYb7nGdVx+lEv64Uuk66xGPVosZlaAU+SJGk73RpPJEmSTBEp4EmSJC0lBTxJkqSlpIAnSZK0lBTwJEmSlpICniRJ0lJSwJMkSVpKCniSJElLSQFPkiRpKSngSZIkLSUFPEmSpKWkgCdJkrSUFPAkSZKWkgKeJEnSUlLAkyRJWkoKeJIkSUtJAU+SJGkpKeBJkiQtJQU8SZKkpaSAJ0mStJQU8CRJklZSVf8P3ynfLWKF0iIAAAAASUVORK5CYII=;" vertex="1" parent="14">
          <mxGeometry x="60" y="70.27" width="120" height="69.45" as="geometry" />
        </mxCell>
        <mxCell id="dhkKI3xnQHwTl-i7RLE7-1008" value="Hosting VM" style="image;html=1;image=img/lib/clip_art/computers/Virtual_Machine_128x128.png" vertex="1" parent="14">
          <mxGeometry x="110" y="155" width="80" height="80" as="geometry" />
        </mxCell>
        <mxCell id="dhkKI3xnQHwTl-i7RLE7-1022" value="" style="edgeStyle=orthogonalEdgeStyle;shape=flexArrow;rounded=0;orthogonalLoop=1;jettySize=auto;html=1;dashed=0;labelBackgroundColor=default;fontFamily=Helvetica;fontSize=12;fontColor=#9E9E9E;endArrow=blockThin;endFill=1;startSize=4;endSize=4;strokeColor=#4284F3;strokeWidth=2;" edge="1" parent="1" source="997">
          <mxGeometry relative="1" as="geometry">
            <mxPoint x="253" y="210" as="targetPoint" />
          </mxGeometry>
        </mxCell>
        <mxCell id="997" value="Local" style="rounded=1;absoluteArcSize=1;arcSize=2;html=1;strokeColor=none;gradientColor=none;shadow=0;dashed=0;fontSize=12;fontColor=#9E9E9E;align=left;verticalAlign=top;spacing=10;spacingTop=-4;fillColor=#F1F8E9;" parent="1" vertex="1">
          <mxGeometry x="207.5" y="310" width="90" height="150" as="geometry" />
        </mxCell>
        <mxCell id="987" value="" style="strokeColor=#dddddd;fillColor=#ffffff;shadow=1;strokeWidth=1;rounded=1;absoluteArcSize=1;arcSize=2;labelPosition=center;verticalLabelPosition=middle;align=center;verticalAlign=bottom;spacingLeft=0;fontColor=#999999;fontSize=12;whiteSpace=wrap;spacingBottom=2;html=1;" parent="1" vertex="1">
          <mxGeometry x="217.5" y="379" width="70" height="70" as="geometry" />
        </mxCell>
        <mxCell id="988" value="" style="dashed=0;connectable=0;html=1;fillColor=#757575;strokeColor=none;shape=mxgraph.gcp2.laptop;part=1;" parent="987" vertex="1">
          <mxGeometry x="0.5" width="50" height="33" relative="1" as="geometry">
            <mxPoint x="-25" y="18.5" as="offset" />
          </mxGeometry>
        </mxCell>
        <mxCell id="dhkKI3xnQHwTl-i7RLE7-1001" value="" style="shape=image;html=1;verticalAlign=top;verticalLabelPosition=bottom;labelBackgroundColor=#ffffff;imageAspect=0;aspect=fixed;image=https://cdn4.iconfinder.com/data/icons/scripting-and-programming-languages/512/660277-Python_logo-128.png" vertex="1" parent="1">
          <mxGeometry x="217.5" y="320" width="70" height="70" as="geometry" />
        </mxCell>
        <mxCell id="dhkKI3xnQHwTl-i7RLE7-1023" style="edgeStyle=orthogonalEdgeStyle;shape=flexArrow;rounded=0;orthogonalLoop=1;jettySize=auto;html=1;exitX=1;exitY=0.5;exitDx=0;exitDy=0;entryX=0;entryY=0.5;entryDx=0;entryDy=0;dashed=0;labelBackgroundColor=default;fontFamily=Helvetica;fontSize=12;fontColor=#9E9E9E;endArrow=blockThin;endFill=1;startSize=4;endSize=4;strokeColor=#4284F3;strokeWidth=2;" edge="1" parent="1" source="dhkKI3xnQHwTl-i7RLE7-1002" target="997">
          <mxGeometry relative="1" as="geometry" />
        </mxCell>
        <mxCell id="dhkKI3xnQHwTl-i7RLE7-1002" value="Trello&#xa;" style="image;image=img/lib/atlassian/Trello_Logo.svg;" vertex="1" parent="1">
          <mxGeometry x="50" y="350" width="70" height="70" as="geometry" />
        </mxCell>
        <mxCell id="dhkKI3xnQHwTl-i7RLE7-1028" style="edgeStyle=orthogonalEdgeStyle;shape=flexArrow;rounded=0;orthogonalLoop=1;jettySize=auto;html=1;entryX=0;entryY=0.25;entryDx=0;entryDy=0;dashed=0;labelBackgroundColor=default;fontFamily=Helvetica;fontSize=12;fontColor=#9E9E9E;endArrow=blockThin;endFill=1;startSize=4;endSize=4;strokeColor=#4284F3;strokeWidth=2;" edge="1" parent="1" source="dhkKI3xnQHwTl-i7RLE7-1003" target="14">
          <mxGeometry relative="1" as="geometry" />
        </mxCell>
        <mxCell id="dhkKI3xnQHwTl-i7RLE7-1003" value="Github&lt;br&gt;" style="dashed=0;outlineConnect=0;html=1;align=center;labelPosition=center;verticalLabelPosition=bottom;verticalAlign=top;shape=mxgraph.weblogos.github" vertex="1" parent="1">
          <mxGeometry x="205" y="80" width="92.5" height="100" as="geometry" />
        </mxCell>
        <mxCell id="dhkKI3xnQHwTl-i7RLE7-1031" style="edgeStyle=orthogonalEdgeStyle;shape=flexArrow;rounded=0;orthogonalLoop=1;jettySize=auto;html=1;exitX=0.75;exitY=1;exitDx=0;exitDy=0;entryX=0.553;entryY=-0.002;entryDx=0;entryDy=0;entryPerimeter=0;dashed=0;labelBackgroundColor=default;fontFamily=Helvetica;fontSize=12;fontColor=#9E9E9E;endArrow=blockThin;endFill=1;startSize=4;endSize=4;strokeColor=#4284F3;strokeWidth=2;" edge="1" parent="1" source="dhkKI3xnQHwTl-i7RLE7-1009" target="14">
          <mxGeometry relative="1" as="geometry" />
        </mxCell>
        <mxCell id="dhkKI3xnQHwTl-i7RLE7-1009" value="" style="shape=image;verticalLabelPosition=bottom;labelBackgroundColor=default;verticalAlign=top;aspect=fixed;imageAspect=0;image=https://www.unixtutorial.org/images/software/docker-hub.png;" vertex="1" parent="1">
          <mxGeometry x="380" y="70" width="238.53" height="100" as="geometry" />
        </mxCell>
        <mxCell id="dhkKI3xnQHwTl-i7RLE7-1010" value="" style="shape=image;verticalLabelPosition=bottom;labelBackgroundColor=default;verticalAlign=top;aspect=fixed;imageAspect=0;image=https://ubiq.co/tech-blog/wp-content/uploads/2020/02/multiple-host-names-nginx.jpg;" vertex="1" parent="1">
          <mxGeometry x="618.53" y="68.5" width="130" height="101.5" as="geometry" />
        </mxCell>
        <mxCell id="dhkKI3xnQHwTl-i7RLE7-1014" value="" style="shape=image;verticalLabelPosition=bottom;labelBackgroundColor=default;verticalAlign=top;aspect=fixed;imageAspect=0;image=https://miro.medium.com/max/1400/0*Hl-1BN46JLiTh8UM.png;" vertex="1" parent="1">
          <mxGeometry x="910" y="240" width="170" height="167.38" as="geometry" />
        </mxCell>
        <mxCell id="dhkKI3xnQHwTl-i7RLE7-1026" style="edgeStyle=orthogonalEdgeStyle;shape=flexArrow;rounded=0;orthogonalLoop=1;jettySize=auto;html=1;dashed=0;labelBackgroundColor=default;fontFamily=Helvetica;fontSize=12;fontColor=#9E9E9E;endArrow=blockThin;endFill=1;startSize=4;endSize=4;strokeColor=#4284F3;strokeWidth=2;width=16.47058823529412;" edge="1" parent="1">
          <mxGeometry relative="1" as="geometry">
            <mxPoint x="270" y="610" as="sourcePoint" />
            <mxPoint x="460" y="610" as="targetPoint" />
          </mxGeometry>
        </mxCell>
      </root>
    </mxGraphModel>
  </diagram>
</mxfile>
